<?xml version="1.0" encoding="utf-8"?><svg viewBox="0 0 197 213" xmlns="http://www.w3.org/2000/svg" xmlns:xlink="http://www.w3.org/1999/xlink"><style>:root>svg{display:none}:root>svg:target{display:block}</style><svg fill="none" viewBox="0 0 197 213" id="4" xmlns="http://www.w3.org/2000/svg"><path d="M196.699 127.677h-34.551V87.991h-46.371v39.686h-56.98L151.54.137h-51.524L0 134.645v33.021h114.261v44.533h47.887v-44.533h34.551v-39.989Z" fill="#E60000"/></svg><svg fill="none" viewBox="0 0 16 16" id="address-pen" xmlns="http://www.w3.org/2000/svg"><path d="M7.334 14h6.667" stroke="#2D2727" stroke-width="1.5" stroke-linecap="round"/><path clip-rule="evenodd" d="M11.256 3.216a2.222 2.222 0 0 0-3.115.187l-5.408 6.05c-1.394 1.558-.372 3.71-.372 3.71s2.302.723 3.675-.814l5.41-6.049a2.17 2.17 0 0 0-.19-3.084Z" stroke="#2D2727" stroke-width="1.5" stroke-linecap="round" stroke-linejoin="round"/><path d="M6.906 4.861 9.95 7.52" stroke="#2D2727" stroke-width="1.5" stroke-linecap="round" stroke-linejoin="round"/></svg><svg fill="none" viewBox="0 0 16 16" id="address-remove" xmlns="http://www.w3.org/2000/svg"><path d="M14 3.987a67.801 67.801 0 0 0-6.68-.334c-1.32 0-2.64.067-3.96.2L2 3.987M5.666 3.313l.147-.873c.106-.633.186-1.107 1.313-1.107h1.747c1.126 0 1.213.5 1.313 1.114l.147.866M12.567 6.093l-.433 6.714c-.074 1.046-.134 1.86-1.994 1.86H5.86c-1.86 0-1.92-.814-1.993-1.86l-.433-6.714M6.887 11h2.22M6.334 8.334h3.333" stroke="#2D2727" stroke-width="1.5" stroke-linecap="round" stroke-linejoin="round"/></svg><svg fill="none" viewBox="0 0 22 22" id="alert" xmlns="http://www.w3.org/2000/svg"><g clip-path="url(#ada)"><circle cx="11" cy="11" r="11" fill="#F27229"/><path d="M10.222 13.407h1.905l.482-9.009h-2.85l.463 9.01Zm.962 4.601c.886 0 1.521-.674 1.521-1.501 0-.828-.635-1.483-1.52-1.483-.905 0-1.56.655-1.56 1.483 0 .827.655 1.501 1.56 1.501Z" fill="#fff"/></g><defs><clipPath id="ada"><path fill="#fff" d="M0 0h22v22H0z"/></clipPath></defs></svg><svg fill="none" viewBox="0 0 104 104" id="bad-envelope" xmlns="http://www.w3.org/2000/svg"><path d="M96.051 98.43 7.43 40.71v57.72H96.05Z" stroke="#fff" stroke-width="2" stroke-linejoin="round"/><path d="M6.82 39.918a1 1 0 0 0 1.218 1.586L6.82 39.918ZM51.905 5.943l.64-.769a1 1 0 0 0-1.257-.017l.617.786Zm43.527 35.553a1 1 0 0 0 1.237-1.571l-1.237 1.572Zm-76.942-8.03a1 1 0 0 0-1.219-1.585l1.22 1.586Zm22.863-20.51a1 1 0 0 0 1.235 1.574l-1.235-1.573Zm19.293 1.556a1 1 0 1 0 1.278-1.537l-1.278 1.537ZM85.99 31.517a1 1 0 1 0-1.237 1.572l1.237-1.572ZM8.038 41.504l10.453-8.037-1.219-1.586L6.82 39.918l1.22 1.586ZM42.59 14.53l9.935-7.8-1.235-1.573-9.935 7.8 1.235 1.573Zm8.678-7.818 9.38 7.8 1.278-1.537-9.38-7.8-1.278 1.537ZM84.753 33.09l10.68 8.407 1.237-1.571-10.68-8.408-1.237 1.572Z" fill="#fff"/><path d="M17.88 47.528V13.896h67.49v34.086" stroke="#A7A9B9" stroke-width="2" stroke-linejoin="round" stroke-dasharray="4 4"/><path d="M7.43 98.43h88.622V40.71L51.74 69.57" stroke="#fff" stroke-width="2" stroke-linejoin="round"/><path stroke="#E60000" stroke-width="2" stroke-linecap="round" d="M46.357 31.115 58.6 43.358M45.973 43.357l12.243-12.243"/></svg><svg fill="none" viewBox="0 0 140 140" id="car-entry" xmlns="http://www.w3.org/2000/svg"><path d="M87.5 61V9.5M78.5 17c3 .333 9-.8 9-8-.167 2.667 1.6 8 8 8M77 27.942c3.53.373 10.5-.894 10.5-8.942-.196 2.98 1.97 8.942 9.5 8.942" stroke="#2D2727" stroke-width="2" stroke-linejoin="round"/><path d="M75 38.93c4.235.455 12.5-1.093 12.5-10.93-.235 3.643 2.465 10.93 11.5 10.93M114.5 75.5v-46M105.5 37c3 .333 9-.8 9-8-.167 2.667 1.6 8 8 8M104 47.943c3.529.372 10.5-.895 10.5-8.943-.196 2.98 1.971 8.943 9.5 8.943" stroke="#2D2727" stroke-width="2" stroke-linejoin="round"/><path d="M102 58.93c4.235.455 12.5-1.093 12.5-10.93-.235 3.643 2.465 10.93 11.5 10.93" stroke="#2D2727" stroke-width="2" stroke-linejoin="round"/><path d="M4.111 73 18 82 3 80.875M135.258 85 121 83l17 10" stroke="#E60000" stroke-width="2" stroke-linejoin="round"/><circle cx="24.5" cy="107.5" r="14.5" stroke="#2D2727" stroke-width="2" stroke-linejoin="round"/><circle cx="113.5" cy="107.5" r="14.5" stroke="#2D2727" stroke-width="2" stroke-linejoin="round"/><circle cx="24.5" cy="107.5" r="8.5" stroke="#A7A9B9" stroke-width="2" stroke-linejoin="round" stroke-dasharray="3 3"/><circle cx="113.5" cy="107.5" r="8.5" stroke="#A7A9B9" stroke-width="2" stroke-linejoin="round" stroke-dasharray="3 3"/><path stroke="#2D2727" stroke-width="2" stroke-linejoin="round" d="M39 108h60"/><path d="m1.176 98.945-.993-.116.993.116Zm2.848-24.358-.993-.116.993.116Zm99.549-1.993.223-.974-.223.974Zm21.219 4.856-.223.974.223-.975Zm3.084 32.55H134v-2h-6.124v2ZM139 105V94.021h-2V105h2Zm-13.985-28.525-21.219-4.855-.446 1.95 21.219 4.854.446-1.95ZM57.914 52H26.802v2h31.112v-2Zm-37.536 2.696L4.988 70.381l1.427 1.4 15.39-15.684-1.427-1.4ZM3.031 74.471.183 98.829l1.986.232 2.848-24.358-1.986-.232ZM.183 98.829C-.513 104.777 4.135 110 10.123 110v-2c-4.791 0-8.51-4.18-7.954-8.939L.183 98.83ZM4.987 70.38a7 7 0 0 0-1.956 4.09l1.986.232a5 5 0 0 1 1.398-2.921L4.987 70.38ZM26.802 52a9 9 0 0 0-6.424 2.696l1.428 1.401A7 7 0 0 1 26.802 54v-2Zm77.142 19.704A63.617 63.617 0 0 0 57.914 52v2a61.618 61.618 0 0 1 44.583 19.084l1.447-1.38Zm-.148-.084a.293.293 0 0 1 .148.084l-1.447 1.38c.231.242.527.41.853.485l.446-1.95ZM139 94.02a18 18 0 0 0-13.985-17.546l-.446 1.95A16 16 0 0 1 137 94.02h2ZM134 110a5 5 0 0 0 5-5h-2a3 3 0 0 1-3 3v2Z" fill="#2D2727"/><path d="m102 80-.106.994a1 1 0 0 0 .748-1.76L102 80ZM30.098 59v-1a1 1 0 0 0-1 1h1Zm64.516 14.813.642-.766-.642.766ZM54.645 58H30.098v2h24.547v-2ZM4 73.317h26.098v-2H4v2ZM29.098 59v13.317h2V59h-2Zm73.544 20.233-7.386-6.186-1.284 1.533 7.386 6.187 1.284-1.534Zm-72.65-5.922 71.902 7.683.212-1.988-71.902-7.683-.212 1.988Zm65.264-.264a65.521 65.521 0 0 0-20.692-11.705l-.652 1.89a63.524 63.524 0 0 1 20.06 11.348l1.284-1.533ZM54.646 60a59.043 59.043 0 0 1 19.266 3.232l.652-1.89A61.042 61.042 0 0 0 54.645 58v2Z" fill="#2D2727"/><path d="m52 53 8 23.354V94" stroke="#2D2727" stroke-width="2" stroke-linejoin="round"/><path stroke="#2D2727" stroke-width="2" stroke-linecap="round" stroke-linejoin="round" d="M33 82h5M65 82h5"/></svg><svg fill="none" viewBox="0 0 24 24" id="car-icon" xmlns="http://www.w3.org/2000/svg"><path d="M4.125 17.554H4a3 3 0 0 1-3-3v-2.148a3 3 0 0 1 3-3h16a3 3 0 0 1 3 3v2.148a3 3 0 0 1-3 3h-.125" stroke="#504F55" stroke-width="2"/><path d="M8.149 17.147a1.852 1.852 0 1 1-3.704 0 1.852 1.852 0 0 1 3.704 0Z" stroke="#504F55" stroke-width="2"/><circle cx="17.703" cy="17.147" r="1.852" stroke="#504F55" stroke-width="2"/><path stroke="#504F55" stroke-width="2" d="M8.328 17.369h7.334M4.672 9.406l.536-3.217a2 2 0 0 1 1.973-1.671h6.198a2 2 0 0 1 1.664.89l2.666 3.998M11.781 4.518v4.888"/><path stroke="#504F55" stroke-width="2" stroke-linecap="round" d="M11.781 12.48h2.074"/></svg><svg fill="none" viewBox="0 0 48 48" id="car-payment" xmlns="http://www.w3.org/2000/svg"><path d="M8 35.11H3.5a1.5 1.5 0 0 1-1.5-1.5V20.315a1.5 1.5 0 0 1 1.5-1.5h41a1.5 1.5 0 0 1 1.5 1.5v13.297a1.5 1.5 0 0 1-1.5 1.5h-5" stroke="#2D2727" stroke-width="2"/><path d="M17.298 34.297a4.704 4.704 0 1 1-9.407 0 4.704 4.704 0 0 1 9.407 0ZM40.11 34.297a4.704 4.704 0 1 1-9.407 0 4.704 4.704 0 0 1 9.408 0ZM16.664 35.74h14.667M9.336 18.815l1.49-8.942a1 1 0 0 1 .987-.836h16.543a1 1 0 0 1 .832.445l6.222 9.333M22.555 9.037v9.778" stroke="#2D2727" stroke-width="2"/><path stroke="#2D2727" stroke-linecap="round" d="M22.055 26.463h7.148"/></svg><svg fill="none" viewBox="0 0 24 24" id="card" xmlns="http://www.w3.org/2000/svg"><path d="M2 9h20.5M4.5 14.5h7M14.5 14.5H16" stroke="#1B1B1B" stroke-width="1.5" stroke-linecap="round"/><rect x="1.75" y="4.75" width="20.5" height="14.5" rx="3.25" stroke="#000" stroke-width="1.5"/></svg><svg fill="none" viewBox="0 0 80 80" id="cart-confim" xmlns="http://www.w3.org/2000/svg"><path d="M70 19.932a339.006 339.006 0 0 0-33.4-1.666c-6.6 0-13.2.333-19.8 1l-6.8.666M28.33 16.566l.733-4.367c.534-3.166.934-5.533 6.567-5.533h8.733c5.634 0 6.067 2.5 6.567 5.567l.733 4.333M62.835 30.467l-2.167 33.566c-.367 5.234-.667 9.3-9.967 9.3h-21.4c-9.3 0-9.6-4.066-9.966-9.3l-2.167-33.566" stroke="#2D2727" stroke-width="2" stroke-linecap="round" stroke-linejoin="round"/><path d="M38.859 50.812h2.8c0-3.668 4.956-3.976 4.956-8.652 0-3.108-2.604-4.984-6.636-4.984-3.276 0-5.712 1.148-7.252 3.136l2.044 1.456c1.12-1.428 2.744-2.212 5.012-2.212 2.52 0 4.004 1.232 4.004 3.024 0 3.22-4.928 3.836-4.928 8.232Zm1.428 6.356a1.769 1.769 0 0 0 1.792-1.792c0-1.008-.756-1.792-1.792-1.792-1.064 0-1.82.784-1.82 1.792 0 .98.756 1.792 1.82 1.792Z" fill="#E60000"/></svg><svg fill="none" viewBox="0 0 140 140" id="cart-emply" xmlns="http://www.w3.org/2000/svg"><path stroke="#A7A9B9" stroke-width="2" stroke-linejoin="round" stroke-dasharray="3 3" d="m58.953 1.189 49.313 10.672-13.765 63.607-49.313-10.672z"/><path d="M3 17.5h13L53.5 114H113M60.5 114v5l-9 9M107.5 114v5l-9 9" stroke="#2D2727" stroke-width="2" stroke-linecap="round" stroke-linejoin="round"/><circle cx="52" cy="128" r="9" stroke="#E60000" stroke-width="2" stroke-linejoin="round"/><circle cx="99" cy="128" r="9" stroke="#E60000" stroke-width="2" stroke-linejoin="round"/><path stroke="#2D2727" stroke-width="2" stroke-linecap="round" stroke-linejoin="round" d="M45 90h37"/><path d="M39.5 78H111l12.5-36-102-9.5M28 46.5l91 9M33.5 61l80.5 7M45 34l18.5 44M70 37.5 88 78M95 40l16 38" stroke="#2D2727" stroke-width="2" stroke-linejoin="round"/></svg><svg fill="none" viewBox="0 0 24 24" id="cart-icon" xmlns="http://www.w3.org/2000/svg"><path d="m7 10 3.09-6M17 10l-3.09-6M21 10l-2 8c-.093.573-.345 1.087-.71 1.453-.366.365-.822.559-1.29.547H7c-.468.012-.924-.182-1.29-.547-.365-.366-.617-.88-.71-1.453l-2-8h18Z" stroke="#504F55" stroke-width="2" stroke-linecap="round" stroke-linejoin="round"/></svg><svg fill="none" viewBox="0 0 38 38" id="chat" xmlns="http://www.w3.org/2000/svg"><g clip-path="url(#ama)"><path d="M15.57 15.572a1.714 1.714 0 1 0 .001-3.428 1.714 1.714 0 0 0 0 3.428Zm6.858 0a1.714 1.714 0 1 0 0-3.428 1.714 1.714 0 0 0 0 3.428ZM12.298 26.7c.889.144 2.908.3 3.844.3 8.206 0 13.715-6.106 13.715-13.285 0-7.18-6.884-13-13.715-13-8.217 0-14.857 5.82-14.857 13 0 4.159 1.585 7.69 4.572 10.233v6.481l6.44-3.729ZM3.57 13.858C3.57 7.86 9.003 3 16.142 3c5.684 0 11.429 4.86 11.429 10.857 0 5.996-4.486 10.857-11.429 10.857-1.02 0-3.15-.117-4.1-.314l-3.9 2.6v-4.05c-2.787-2.262-4.571-5.284-4.571-9.093Zm28.513-2.7c.022.328.058.653.058.986 0 .726-.07 1.438-.172 2.141 1.538 1.801 2.458 4.02 2.458 6.43 0 3.81-2.276 7.155-5.714 9.092v4.05l-3.9-2.6c-.95.198-1.937.315-2.957.315-2.96 0-4.533-.89-6.681-2.368-.623.05-1.253.082-1.89.082-.456 0-.901-.033-1.35-.058 2.72 2.66 5.52 4.344 9.92 4.344.937 0 1.85-.085 2.738-.23l6.405 3.944v-6.482c3.474-2.38 5.715-6.073 5.715-10.233 0-3.708-1.783-7.044-4.63-9.413Zm-23.37 4.414a1.714 1.714 0 1 0 0-3.428 1.714 1.714 0 0 0 0 3.428Z" fill="#fff"/></g><defs><clipPath id="ama"><path fill="#fff" transform="translate(.715 .715)" d="M0 0h36.571v36.571H0z"/></clipPath></defs></svg><svg fill="none" viewBox="0 0 24 24" id="close" xmlns="http://www.w3.org/2000/svg"><g clip-path="url(#ana)" stroke="#2D2727" stroke-width="2" stroke-linecap="round"><path d="M18.552 6.035 5.453 19.134M18.552 19.134 5.453 6.035"/></g><defs><clipPath id="ana"><path fill="#fff" d="M0 0h24v24H0z"/></clipPath></defs></svg><svg fill="none" viewBox="0 0 24 24" id="close2" xmlns="http://www.w3.org/2000/svg"><g clip-path="url(#aoa)" stroke="#2D2727" stroke-width="2" stroke-linecap="round"><path d="M18.548 6.036 5.449 19.135M18.548 19.135 5.449 6.036"/></g><defs><clipPath id="aoa"><path fill="#fff" d="M0 0h24v24H0z"/></clipPath></defs></svg><svg fill="none" viewBox="0 0 48 48" id="credit-card" xmlns="http://www.w3.org/2000/svg"><path d="M4 18h41M9 29h14M29 29h3" stroke="#1B1B1B" stroke-width="2" stroke-linecap="round"/><rect x="3" y="9" width="42" height="30" rx="9" stroke="#000" stroke-width="2"/></svg><svg fill="none" viewBox="0 0 16 16" id="discount-icon" xmlns="http://www.w3.org/2000/svg"><path fill-rule="evenodd" clip-rule="evenodd" d="M6.878.465 5.673 1.669a.52.52 0 0 1-.368.153H3.41c-.877 0-1.587.71-1.587 1.587v1.896a.52.52 0 0 1-.153.368L.465 6.878c-.62.62-.62 1.624 0 2.244l1.204 1.204a.52.52 0 0 1 .153.368v1.897c0 .877.71 1.587 1.587 1.587h1.896a.52.52 0 0 1 .368.153l1.205 1.204c.62.62 1.624.62 2.244 0l1.204-1.204a.52.52 0 0 1 .368-.153h1.897c.877 0 1.587-.71 1.587-1.587v-1.896a.52.52 0 0 1 .153-.369l1.204-1.204c.62-.62.62-1.624 0-2.244l-1.204-1.205a.52.52 0 0 1-.153-.368V3.41c0-.877-.71-1.587-1.587-1.587h-1.896a.52.52 0 0 1-.369-.153L9.122.465a1.587 1.587 0 0 0-2.244 0Z" fill="#E60000"/><path stroke="#fff" stroke-width="1.5" stroke-linecap="round" d="M5 10.939 10.939 5"/><circle cx="6" cy="5" r="1" fill="#fff"/><circle cx="10" cy="11" r="1" fill="#fff"/></svg><svg fill="none" viewBox="0 0 16 16" id="eye_close" xmlns="http://www.w3.org/2000/svg"><path d="M7.767 4.726c.078-.009.156-.012.233-.012 1.473 0 2.667 1.222 2.667 2.786 0 1.538-1.194 2.786-2.667 2.786-1.497 0-2.666-1.248-2.666-2.786 0-.081.002-.162.01-.244.259.13.559.244.878.244C7.203 7.5 8 6.667 8 5.643c0-.334-.108-.647-.233-.917Zm5.584-1.387c1.3 1.26 2.17 2.742 2.58 3.804a.96.96 0 0 1 0 .714c-.41 1.036-1.28 2.519-2.58 3.804C12.042 12.932 10.245 14 8 14c-2.245 0-4.042-1.068-5.35-2.339C1.35 10.376.48 8.893.068 7.857a.964.964 0 0 1 0-.714C.482 6.081 1.351 4.598 2.651 3.34 3.959 2.069 5.756 1 8 1c2.244 0 4.041 1.069 5.35 2.339ZM8 3.32c-2.21 0-4 1.872-4 4.179 0 2.307 1.79 4.179 4 4.179 2.208 0 4-1.872 4-4.179 0-2.307-1.792-4.179-4-4.179Z" fill="#A7A9B9"/><path stroke="#A7A9B9" stroke-width="2" stroke-linecap="round" d="M15 1.414 2.414 14"/></svg><svg fill="none" viewBox="0 0 24 24" id="favorite" xmlns="http://www.w3.org/2000/svg"><path d="M19.497 13.572 11.997 21l-7.5-7.428a5 5 0 1 1 7.5-6.566 5 5 0 1 1 7.5 6.572" stroke="#504F55" stroke-width="2" stroke-linecap="round" stroke-linejoin="round"/></svg><svg fill="none" viewBox="0 0 140 140" id="favorite-emply" xmlns="http://www.w3.org/2000/svg"><path d="m67.5 124-.71.704a1.002 1.002 0 0 0 1.42 0L67.5 124ZM10.838 66.84l-.71.704.71-.703Zm113.324 0 .711.704-.711-.703ZM58.338 18.925l-.71.704.71-.704Zm9.162 9.243-.71.704a1 1 0 0 0 1.42 0l-.71-.704Zm9.162-9.243-.71-.704.71.704ZM68.21 123.296l-56.662-57.16-1.42 1.409 56.662 57.159 1.42-1.408Zm55.242-57.16-56.662 57.16 1.42 1.408 56.663-57.16-1.421-1.407ZM57.627 19.628l9.163 9.243 1.42-1.408-9.162-9.243-1.42 1.408ZM68.21 28.87l9.163-9.243-1.42-1.408-9.163 9.243 1.42 1.408ZM100.412 8a34.44 34.44 0 0 0-24.46 10.22l1.42 1.408A32.44 32.44 0 0 1 100.413 10V8ZM133 42.882c0 8.724-3.435 17.089-9.548 23.255l1.421 1.407C131.358 61.002 135 52.132 135 42.883h-2Zm2 0C135 23.626 119.523 8 100.412 8v2C118.402 10 133 24.714 133 42.882h2ZM34.588 10a32.44 32.44 0 0 1 23.04 9.628l1.42-1.408A34.44 34.44 0 0 0 34.588 8v2ZM2 42.882C2 24.714 16.598 10 34.588 10V8C15.478 8 0 23.625 0 42.882h2Zm9.548 23.255C5.435 59.97 2 51.605 2 42.882H0c0 9.249 3.642 18.12 10.127 24.663l1.42-1.409Z" fill="#2D2727"/><path d="M17.997 85.071 29.5 97l11.503-11.929a7.206 7.206 0 0 0 1.997-5C43 76.166 39.947 73 36.181 73a6.698 6.698 0 0 0-4.821 2.071L29.5 77l-1.86-1.929A6.698 6.698 0 0 0 22.818 73C19.053 73 16 76.166 16 80.071c0 1.875.718 3.674 1.997 5Z" fill="#fff"/><path d="m29.5 97-.72.694a1 1 0 0 0 1.44 0L29.5 97ZM17.997 85.071l-.72.694.72-.694Zm23.006 0 .72.694-.72-.694Zm-13.363-10-.72.694.72-.694ZM29.5 77l-.72.694a1 1 0 0 0 1.44 0L29.5 77Zm1.86-1.929-.72-.694.72.694Zm-1.14 21.235-11.503-11.93-1.44 1.39L28.78 97.693l1.44-1.388Zm10.063-11.93L28.78 96.307l1.44 1.388 11.503-11.929-1.44-1.388Zm-13.363-8.61 1.86 1.928 1.44-1.388-1.86-1.93-1.44 1.39Zm3.3 1.928 1.86-1.929-1.44-1.388-1.86 1.929 1.44 1.388ZM36.182 72c-2.086 0-4.079.86-5.542 2.377l1.44 1.388A5.698 5.698 0 0 1 36.182 74v-2ZM42 80.071c0 1.622-.621 3.17-1.717 4.306l1.44 1.388A8.206 8.206 0 0 0 44 80.071h-2Zm2 0C44 75.648 40.533 72 36.181 72v2C39.361 74 42 76.683 42 80.071h2ZM22.819 74c1.53 0 3.007.63 4.101 1.765l1.44-1.388A7.697 7.697 0 0 0 22.819 72v2ZM17 80.071C17 76.683 19.639 74 22.819 74v-2C18.466 72 15 75.648 15 80.071h2Zm1.717 4.306A6.206 6.206 0 0 1 17 80.07h-2c0 2.13.815 4.178 2.277 5.694l1.44-1.388Z" fill="#E60000"/><path d="M90.772 101.124 112.5 122l21.728-20.876c2.415-2.32 3.772-5.468 3.772-8.75C138 85.54 132.234 80 125.121 80c-3.416 0-6.692 1.304-9.108 3.624L112.5 87l-3.513-3.376c-2.416-2.32-5.692-3.624-9.108-3.624C92.766 80 87 85.54 87 92.374c0 3.282 1.357 6.43 3.772 8.75Z" fill="#fff"/><path d="m112.5 122-.693.721a1 1 0 0 0 1.386 0L112.5 122Zm-21.728-20.876-.693.721.693-.721Zm43.456 0 .693.721-.693-.721Zm-25.241-17.5-.693.722.693-.722ZM112.5 87l-.693.721a1 1 0 0 0 1.386 0L112.5 87Zm3.513-3.376-.692-.72.692.72Zm-2.82 37.655-1.087-1.044-1.385 1.442 1.086 1.044 1.386-1.442Zm-3.259-3.131-2.173-2.088-1.386 1.442 2.173 2.088 1.386-1.442Zm-4.346-4.176-2.173-2.087-1.385 1.442 2.172 2.088 1.386-1.443Zm-4.345-4.175-2.173-2.087-1.386 1.442 2.173 2.088 1.386-1.443Zm-4.346-4.175-2.173-2.087-1.385 1.442 2.172 2.087 1.386-1.442Zm-4.346-4.175-1.086-1.044-1.386 1.442 1.087 1.044 1.386-1.442Zm-1.086-1.044a11.56 11.56 0 0 1-.773-.819l-1.52 1.301c.285.333.588.653.907.96l1.386-1.442Zm-2.059-2.66a11.118 11.118 0 0 1-.892-2.057l-1.905.605c.267.841.62 1.654 1.052 2.428l1.745-.976Zm-1.348-4.25c-.039-.37-.058-.743-.058-1.119h-2c0 .445.023.887.068 1.325l1.99-.206ZM88 92.374a11 11 0 0 1 .104-1.511l-1.981-.275A13.01 13.01 0 0 0 86 92.374h2Zm.928-4.415a11.27 11.27 0 0 1 1.584-2.58l-1.55-1.265a13.27 13.27 0 0 0-1.864 3.038l1.83.807Zm3.795-4.664a12.016 12.016 0 0 1 2.673-1.457l-.728-1.863a14.01 14.01 0 0 0-3.117 1.7l1.172 1.62Zm5.629-2.202c.5-.061 1.01-.093 1.527-.093v-2c-.6 0-1.19.037-1.771.108l.243 1.985ZM99.879 81c.39 0 .777.018 1.161.054l.187-1.99A14.413 14.413 0 0 0 99.879 79v2Zm3.439.487c.746.216 1.468.502 2.155.853l.91-1.781a14.206 14.206 0 0 0-2.508-.993l-.557 1.921Zm4.103 2.1c.303.237.594.49.873.758l1.385-1.442c-.326-.313-.667-.61-1.021-.888l-1.237 1.572Zm.873.758.878.844 1.386-1.442-.879-.844-1.385 1.442Zm2.635 2.532.878.844 1.386-1.442-.879-.844-1.385 1.442Zm2.264.844.878-.844-1.385-1.442-.879.844 1.386 1.442Zm2.635-2.532.878-.843-1.385-1.443-.879.844 1.386 1.442Zm.878-.843c.279-.268.57-.522.873-.76l-1.237-1.571c-.354.278-.695.575-1.021.888l1.385 1.442Zm2.821-2.006a12.187 12.187 0 0 1 2.155-.853l-.557-1.921c-.867.251-1.707.584-2.508.993l.91 1.78Zm4.433-1.286c.384-.036.771-.054 1.161-.054v-2c-.452 0-.902.021-1.348.063l.187 1.991Zm1.161-.054c.518 0 1.028.032 1.528.093l.243-1.985a14.502 14.502 0 0 0-1.771-.108v2Zm4.483.838c.96.375 1.858.867 2.673 1.457l1.172-1.62a14.006 14.006 0 0 0-3.117-1.7l-.728 1.863Zm4.884 3.54a11.3 11.3 0 0 1 1.584 2.58l1.83-.805a13.27 13.27 0 0 0-1.865-3.04l-1.549 1.265Zm2.408 5.485c.069.494.104.998.104 1.511h2c0-.605-.042-1.2-.123-1.786l-1.981.275Zm.104 1.511c0 .376-.019.75-.058 1.12l1.99.205c.045-.438.068-.88.068-1.325h-2Zm-.515 3.312c-.226.711-.524 1.4-.891 2.057l1.745.976a13.06 13.06 0 0 0 1.052-2.428l-1.906-.605Zm-2.177 3.898c-.242.284-.5.557-.773.819l1.386 1.442c.319-.307.622-.627.906-.96l-1.519-1.3Zm-.773.819-1.087 1.044 1.386 1.442 1.087-1.044-1.386-1.442Zm-3.259 3.132-2.173 2.087 1.386 1.442 2.172-2.087-1.385-1.442Zm-4.346 4.175-2.173 2.087 1.386 1.443 2.173-2.088-1.386-1.442Zm-4.345 4.175-2.173 2.087 1.386 1.443 2.172-2.088-1.385-1.442Zm-4.346 4.175-2.173 2.088 1.386 1.442 2.173-2.088-1.386-1.442Zm-4.345 4.175-1.087 1.044 1.386 1.442 1.086-1.044-1.385-1.442Z" fill="#A7A9B9"/></svg><svg fill="none" viewBox="0 0 24 24" id="favorite-red" xmlns="http://www.w3.org/2000/svg"><g clip-path="url(#ata)"><path d="M19.5 13.572 12 21l-7.5-7.428A5 5 0 1 1 12 7.006a5.002 5.002 0 0 1 8.52.876 4.999 4.999 0 0 1-1.02 5.696" stroke="#E60000" stroke-width="2" stroke-linecap="round" stroke-linejoin="round"/></g><defs><clipPath id="ata"><path fill="#fff" d="M0 0h24v24H0z"/></clipPath></defs></svg><svg fill="none" viewBox="0 0 16 16" id="geo" xmlns="http://www.w3.org/2000/svg"><path fill-rule="evenodd" clip-rule="evenodd" d="M4.253 2.877a5.333 5.333 0 0 1 9.085 3.737c0 3.653-4.666 7.72-4.9 7.893a.667.667 0 0 1-.866 0H7.57c-.216-.187-4.9-4.246-4.9-7.893a5.333 5.333 0 0 1 1.582-3.737ZM8.003 8.5a2 2 0 1 0 0-4 2 2 0 0 0 0 4Z" fill="#2D2727"/></svg><svg fill="none" viewBox="0 0 24 24" id="geo-stroke" xmlns="http://www.w3.org/2000/svg"><path d="M12 2v1-1Zm8 7.92h1v-.01l-1 .01Zm-7.35 11.84-.596-.803-.028.02L12 21l.65.76Zm-1.3 0-.655.755.005.005.65-.76Zm-.002-.001.655-.756-.655.756ZM4 9.92l-1-.01v.01h1ZM12 1a9 9 0 0 0-6.332 2.604l1.407 1.421A7 7 0 0 1 12 3V1Zm6.332 2.604A9 9 0 0 0 12 1v2a7 7 0 0 1 4.925 2.025l1.407-1.42ZM21 9.91a9 9 0 0 0-2.668-6.306l-1.407 1.421A7 7 0 0 1 19 9.93l2-.02Zm-7.754 12.653c.254-.189 2.152-1.842 3.991-4.14C19.05 16.155 21 13.026 21 9.92h-2c0 2.373-1.55 5.034-3.325 7.253a30.993 30.993 0 0 1-3.278 3.485 14.03 14.03 0 0 1-.257.226c-.071.062-.095.08-.086.073l1.192 1.606ZM12 23a2 2 0 0 0 1.3-.48L12 21v2Zm-1.3-.48A2 2 0 0 0 12 23v-2l-1.3 1.52Zm-.007-.006.002.002 1.31-1.511-.002-.002-1.31 1.511ZM3 9.92c0 3.104 1.959 6.228 3.773 8.491a33.591 33.591 0 0 0 3.92 4.103l1.31-1.511c-.145-.126-1.929-1.672-3.67-3.843C6.554 14.941 5 12.287 5 9.92H3Zm2.668-6.316A9 9 0 0 0 3 9.91l2 .02a7 7 0 0 1 2.075-4.905l-1.407-1.42ZM14 9.748a2 2 0 0 1-2 2v2a4 4 0 0 0 4-4h-2Zm-2-2a2 2 0 0 1 2 2h2a4 4 0 0 0-4-4v2Zm-2 2a2 2 0 0 1 2-2v-2a4 4 0 0 0-4 4h2Zm2 2a2 2 0 0 1-2-2H8a4 4 0 0 0 4 4v-2Z" fill="#504F55"/></svg><svg fill="none" viewBox="0 0 14 13" id="grey-car" xmlns="http://www.w3.org/2000/svg"><path fill-rule="evenodd" clip-rule="evenodd" d="M4.108 0a2 2 0 0 0-1.897 1.368L1.148 4.556A2 2 0 0 0 .066 6.333v2.934c0 .684.344 1.288.868 1.648v.785a1.3 1.3 0 1 0 2.6 0v-.433h6.93v.433a1.3 1.3 0 0 0 2.6 0v-.784c.525-.36.87-.965.87-1.65V6.334a2 2 0 0 0-1.082-1.776l-1.063-3.19A2 2 0 0 0 9.892 0H4.108Zm.29 1.733h5.2l.867 2.6H3.53l.867-2.6Zm0 6.067a.867.867 0 1 1-1.734 0 .867.867 0 0 1 1.733 0Zm6.933 0a.867.867 0 1 1-1.733 0 .867.867 0 0 1 1.733 0Z" fill="#A7A9B9"/></svg><svg fill="none" viewBox="0 0 16 16" id="list" xmlns="http://www.w3.org/2000/svg"><path stroke="#2D2727" stroke-width="2" d="M0 2h7M0 8h14M0 14h14"/></svg><svg fill="none" viewBox="0 0 64 64" id="mail-error" xmlns="http://www.w3.org/2000/svg"><path d="M59.107 60.57 4.57 25.05v35.52h54.537Z" stroke="#2D2727" stroke-width="2" stroke-linejoin="round"/><path d="m4.57 25.052 6.433-4.946m48.104 4.945-6.572-5.173M25.828 8.456l6.113-4.8 5.772 4.8" stroke="#2D2727" stroke-width="2" stroke-linecap="round" stroke-linejoin="round"/><path d="M11.004 29.247V8.55h41.532v20.976" stroke="#A7A9B9" stroke-width="2" stroke-linejoin="round" stroke-dasharray="4 4"/><path d="M4.572 60.57H59.11V25.05L31.841 42.81" stroke="#2D2727" stroke-width="2" stroke-linejoin="round"/><path stroke="#E60000" stroke-width="2" stroke-linecap="round" d="m29.07 19.148 6.991 6.991M28.289 26.137l6.99-6.991"/></svg><svg fill="none" viewBox="0 0 64 64" id="mail-success" xmlns="http://www.w3.org/2000/svg"><path d="M59.107 60.57 4.57 25.05v35.52h54.537Z" stroke="#2D2727" stroke-width="2" stroke-linejoin="round"/><path d="m4.57 25.052 6.433-4.946m48.104 4.945-6.572-5.173M25.828 8.456l6.113-4.8 5.772 4.8" stroke="#2D2727" stroke-width="2" stroke-linecap="round" stroke-linejoin="round"/><path d="m28.34 22.114 3.356 3.357 6.293-6.293" stroke="#E60000" stroke-width="2" stroke-linecap="round" stroke-linejoin="round"/><path d="M11.004 29.247V8.55h41.532v20.976" stroke="#A7A9B9" stroke-width="2" stroke-linejoin="round" stroke-dasharray="4 4"/><path d="M4.572 60.57H59.11V25.05L31.841 42.81" stroke="#2D2727" stroke-width="2" stroke-linejoin="round"/></svg><svg fill="none" viewBox="0 0 140 140" id="map-geo" xmlns="http://www.w3.org/2000/svg"><path d="M42.496 31.328v88.681M94.797 47.813v87.543" stroke="#A7A9B9" stroke-width="2" stroke-dasharray="3 3"/><path d="m51.266 33.682-8.747-2.917a.058.058 0 0 0-.041.002L1.033 49.217A.058.058 0 0 0 1 49.27v87.705c0 .041.041.069.08.054l41.684-16.731a.06.06 0 0 1 .037-.001l51.976 15.053a.066.066 0 0 0 .039-.003l43.15-19.02a.059.059 0 0 0 .034-.053V30.843a.058.058 0 0 0-.079-.054L95.103 47.803a.058.058 0 0 1-.044 0l-7.818-3.28" stroke="#000" stroke-width="2"/><path d="M69.5 16.75v1-1Zm-13.368 5.498-.704-.711.704.71Zm26.736 0-.703.71.703-.71ZM88.5 35.56h1v-.01l-1 .01ZM71.044 63.68l-.597-.803-.027.02-.026.023.65.76Zm-3.088 0-.655.756.005.004.65-.76Zm-.004-.003.656-.756-.656.756ZM50.5 35.56l-1-.01v.01h1Zm19-19.81a20 20 0 0 0-14.072 5.787l1.407 1.421A18 18 0 0 1 69.5 17.75v-2Zm14.072 5.787A20 20 0 0 0 69.5 15.75v2a18 18 0 0 1 12.665 5.208l1.407-1.421ZM89.5 35.55a20 20 0 0 0-5.928-14.013l-1.407 1.421A18 18 0 0 1 87.5 35.57l2-.02ZM71.64 64.483c.495-.368 4.92-4.207 9.225-9.59C85.143 49.545 89.5 42.435 89.5 35.56h-2c0 6.14-3.956 12.782-8.197 18.084a75.003 75.003 0 0 1-5.882 6.5 64.54 64.54 0 0 1-2.057 1.94 34.695 34.695 0 0 1-.832.726 6.19 6.19 0 0 1-.06.048l-.018.014a.185.185 0 0 1-.007.005l1.193 1.606Zm-2.14.767c.804 0 1.582-.287 2.194-.81l-1.3-1.52c-.25.213-.566.33-.894.33v2Zm-2.194-.81c.612.523 1.39.81 2.194.81v-2c-.328 0-.645-.117-.894-.33l-1.3 1.52Zm-.009-.008.004.004 1.31-1.512-.004-.003-1.31 1.511ZM49.5 35.56c0 6.864 4.373 13.963 8.658 19.307 4.323 5.391 8.74 9.218 9.14 9.565l1.31-1.511c-.368-.318-4.678-4.053-8.89-9.306-4.249-5.3-8.218-11.927-8.218-18.055h-2Zm5.928-14.023A20 20 0 0 0 49.5 35.55l2 .02a18 18 0 0 1 5.335-12.612l-1.407-1.421Zm20.197 13.614a6.125 6.125 0 0 1-6.125 6.125v2a8.125 8.125 0 0 0 8.125-8.125h-2ZM69.5 29.026a6.125 6.125 0 0 1 6.125 6.125h2a8.125 8.125 0 0 0-8.125-8.125v2Zm-6.125 6.125a6.125 6.125 0 0 1 6.125-6.125v-2a8.125 8.125 0 0 0-8.125 8.125h2Zm6.125 6.125a6.125 6.125 0 0 1-6.125-6.125h-2a8.125 8.125 0 0 0 8.125 8.125v-2Z" fill="#E60000"/></svg><svg fill="none" viewBox="0 0 24 26" id="message" xmlns="http://www.w3.org/2000/svg"><path d="M8.5 21H8c-4 0-6-1-6-6v-5c0-4 2-6 6-6h8c4 0 6 2 6 6v5c0 4-2 6-6 6h-.5c-.31 0-.61.15-.8.4l-1.5 2c-.66.88-1.74.88-2.4 0l-1.5-2c-.16-.22-.53-.4-.8-.4Z" stroke="#2D2727" stroke-width="1.5" stroke-miterlimit="10" stroke-linecap="round" stroke-linejoin="round"/><path d="M15.995 13h.008M11.995 13h.009M7.995 13h.008" stroke="#2D2727" stroke-width="2" stroke-linecap="round" stroke-linejoin="round"/></svg><svg fill="none" viewBox="0 0 80 80" id="nodes-notfound" xmlns="http://www.w3.org/2000/svg"><g clip-path="url(#bda)"><path d="M65.572 41.72c0 9.648-7.9 17.485-17.667 17.485-9.766 0-17.667-7.837-17.667-17.485s7.9-17.486 17.667-17.486c9.766 0 17.667 7.838 17.667 17.486Z" stroke="#E60000" stroke-width="2"/><rect width="3.429" height="13.909" rx="1.714" transform="matrix(.82177 -.56982 .57733 .8165 58.285 55.664)" fill="#E60000"/><path d="M65.237 22.8V.57H.57v76.792h56.584" stroke="#000" stroke-width="2" stroke-linecap="round"/><path d="M11.18 13.2h41.932M11.18 25.324h19.198M11.18 37.45h11.114M11.18 49.574h11.114M11.18 61.7h15.156" stroke="#A7A9B9" stroke-width="2" stroke-linecap="round" stroke-dasharray="3 3"/></g><defs><clipPath id="bda"><path fill="#fff" d="M0 0h80v80H0z"/></clipPath></defs></svg><svg fill="none" viewBox="0 0 32 32" id="ok" xmlns="http://www.w3.org/2000/svg"><g clip-path="url(#bea)"><path d="M0 15.36C0 8.118 0 4.5 2.24 2.24S8.109 0 15.36 0h1.28c7.242 0 10.86 0 13.12 2.24S32 8.109 32 15.36v1.28c0 7.242 0 10.86-2.24 13.12S23.891 32 16.64 32h-1.28C8.118 32 4.5 32 2.24 29.76S0 23.891 0 16.64v-1.28Z" fill="#F1F1F3"/><path d="M16.03 16.316a4.854 4.854 0 0 0 4.846-4.846 4.854 4.854 0 0 0-4.846-4.845c-2.698 0-4.874 2.176-4.874 4.845 0 2.67 2.176 4.845 4.874 4.845Zm0-6.848c1.103 0 2.002.9 2.002 2.002 0 1.103-.899 2.002-2.002 2.002-1.102 0-2.001-.9-2.001-2.002-.03-1.102.87-2.002 2.002-2.002ZM17.975 20.29a9.173 9.173 0 0 0 2.814-1.16c.667-.406.87-1.305.435-1.973a1.413 1.413 0 0 0-1.973-.435 6.16 6.16 0 0 1-6.528 0 1.445 1.445 0 0 0-1.972.435c-.378.668-.175 1.538.493 1.944.87.552 1.828.929 2.814 1.16l-2.698 2.7a1.418 1.418 0 0 0 0 2.001c.29.29.638.406 1.015.406.377 0 .726-.145 1.016-.406l2.669-2.67 2.67 2.67c.55.551 1.45.551 2.001 0a1.419 1.419 0 0 0 0-2.002l-2.756-2.67Z" fill="#fff"/><path d="M16.03 16.316a4.854 4.854 0 0 0 4.846-4.846 4.854 4.854 0 0 0-4.846-4.845c-2.698 0-4.874 2.176-4.874 4.845 0 2.67 2.176 4.845 4.874 4.845Zm0-6.848c1.103 0 2.002.9 2.002 2.002 0 1.103-.899 2.002-2.002 2.002-1.102 0-2.001-.9-2.001-2.002-.03-1.102.87-2.002 2.002-2.002ZM17.975 20.29a9.17 9.17 0 0 0 2.814-1.16c.667-.406.87-1.305.435-1.973a1.413 1.413 0 0 0-1.973-.435 6.16 6.16 0 0 1-6.528 0 1.445 1.445 0 0 0-1.972.435c-.378.668-.175 1.538.493 1.944.87.552 1.828.929 2.814 1.16l-2.698 2.7a1.419 1.419 0 0 0 0 2.001c.29.29.638.406 1.015.406.377 0 .726-.145 1.016-.406l2.669-2.67 2.67 2.67c.55.551 1.45.551 2.001 0a1.419 1.419 0 0 0 0-2.002l-2.756-2.67Z" fill="#2D2727"/></g><defs><clipPath id="bea"><path fill="#fff" d="M0 0h32v32H0z"/></clipPath></defs></svg><svg fill="none" viewBox="0 0 48 16" id="order-item-arrow" xmlns="http://www.w3.org/2000/svg"><path d="M46.707 8.707a1 1 0 0 0 0-1.414L40.343.929a1 1 0 1 0-1.414 1.414L44.586 8l-5.657 5.657a1 1 0 0 0 1.414 1.414l6.364-6.364ZM2 9h44V7H2v2Z" fill="#2D2727"/></svg><svg fill="none" viewBox="0 0 25 16" id="order-item-small-arrow" xmlns="http://www.w3.org/2000/svg"><g clip-path="url(#bga)"><path d="M23.967 8.707a1 1 0 0 0 0-1.414L17.603.929a1 1 0 1 0-1.414 1.414L21.846 8l-5.657 5.657a1 1 0 0 0 1.414 1.414l6.364-6.364ZM1.26 9h22V7h-22v2Z" fill="#2D2727"/></g><defs><clipPath id="bga"><path fill="#fff" transform="translate(.26)" d="M0 0h24v16H0z"/></clipPath></defs></svg><svg fill="none" viewBox="0 0 48 16" id="pagination-left" xmlns="http://www.w3.org/2000/svg"><g clip-path="url(#bha)"><path d="M1.293 7.293a1 1 0 0 0 0 1.414l6.364 6.364a1 1 0 0 0 1.414-1.414L3.414 8l5.657-5.657A1 1 0 0 0 7.657.93L1.293 7.293ZM46 7H2v2h44V7Z" fill="#2D2727"/></g><defs><clipPath id="bha"><path fill="#fff" transform="rotate(-180 24 8)" d="M0 0h48v16H0z"/></clipPath></defs></svg><svg fill="none" viewBox="0 0 48 16" id="pagination-right" xmlns="http://www.w3.org/2000/svg"><path d="M46.707 8.707a1 1 0 0 0 0-1.414L40.343.929a1 1 0 1 0-1.414 1.414L44.586 8l-5.657 5.657a1 1 0 0 0 1.414 1.414l6.364-6.364ZM2 9h44V7H2v2Z" fill="#2D2727"/></svg><svg fill="none" viewBox="0 0 24 24" id="payment-attention" xmlns="http://www.w3.org/2000/svg"><g clip-path="url(#bja)"><circle cx="12" cy="12" r="12" fill="#F27229"/><path d="M11.151 14.629h2.079l.525-9.828h-3.108l.504 9.828Zm1.05 5.019c.966 0 1.659-.735 1.659-1.638 0-.903-.693-1.617-1.659-1.617-.987 0-1.701.714-1.701 1.617s.714 1.638 1.701 1.638Z" fill="#fff"/></g><defs><clipPath id="bja"><path fill="#fff" d="M0 0h24v24H0z"/></clipPath></defs></svg><svg fill="none" viewBox="0 0 176 24" id="payments" xmlns="http://www.w3.org/2000/svg"><g clip-path="url(#bka)" fill="#A7A9B9"><path d="M20.574 19.001h-3.725l2.342-14h3.68l-2.297 14Zm-6.78-14-3.522 9.633-.405-2.078-1.242-6.295A1.567 1.567 0 0 0 6.873 5H1.07L1 5.24c1.36.337 2.66.877 3.857 1.603l3.187 12.16h3.839l5.847-14h-3.963.027Zm28.977 14h3.381l-2.95-14h-2.958a1.69 1.69 0 0 0-1.7 1.048L33.05 19.001h3.84l.765-2.078h4.685l.431 2.078Zm-4.05-4.957 1.937-5.283 1.092 5.283h-3.03Zm-5.389-5.679.528-3.011a10.734 10.734 0 0 0-3.31-.608c-1.832 0-6.164.793-6.164 4.632 0 3.618 5.098 3.662 5.098 5.564 0 1.902-4.57 1.559-6.075.361l-.546 3.144c1.316.545 2.73.815 4.156.792 2.518 0 6.304-1.285 6.304-4.79 0-3.636-5.142-3.98-5.142-5.565 0-1.584 3.575-1.373 5.151-.519Z"/><path d="M9.867 12.554 8.625 6.258a1.567 1.567 0 0 0-1.752-1.26H1.07L1 5.238a14.343 14.343 0 0 1 5.468 2.712 10.918 10.918 0 0 1 3.399 4.605Z" fill-opacity=".5"/></g><path d="M83.758 11.15a11.206 11.206 0 0 1 4.213-8.761A10.941 10.941 0 0 0 81.15 0a11.15 11.15 0 1 0 0 22.302 10.94 10.94 0 0 0 6.829-2.39 11.16 11.16 0 0 1-4.222-8.761Z" fill="#A7A9B9"/><path d="M83.758 11.15a11.206 11.206 0 0 1 4.213-8.761A10.941 10.941 0 0 0 81.15 0a11.15 11.15 0 1 0 0 22.302 10.94 10.94 0 0 0 6.829-2.39 11.16 11.16 0 0 1-4.222-8.761Z" fill="#A7A9B9"/><path d="M105.906 11.15a11.107 11.107 0 0 1-11.07 11.152 10.94 10.94 0 0 1-6.828-2.39 11.222 11.222 0 0 0 0-17.532A10.941 10.941 0 0 1 94.837 0a11.124 11.124 0 0 1 11.069 11.15Z" fill="#A7A9B9" fill-opacity=".5"/><path fill-rule="evenodd" clip-rule="evenodd" d="M84.864 6.291a11.206 11.206 0 0 0-1.106 4.862 11.16 11.16 0 0 0 4.221 8.762h.028a11.223 11.223 0 0 0 .011-17.524h-.048a11.206 11.206 0 0 0-3.106 3.9Z" fill="#504F55"/><g clip-path="url(#bkb)" fill-rule="evenodd" clip-rule="evenodd" fill="#A7A9B9"><path d="M141.665 5v.006c-.006 0-1.836-.006-2.324 1.74-.447 1.6-1.708 6.018-1.743 6.14h-.348s-1.29-4.517-1.743-6.146c-.488-1.746-2.324-1.74-2.324-1.74H129v13.279h4.183v-7.886h.349l2.44 7.886h2.904l2.44-7.88h.349v7.88h4.183V5h-4.183ZM156.944 5s-1.226.11-1.801 1.392l-2.963 6.494h-.349V5h-4.183v13.279h3.951s1.284-.116 1.859-1.392l2.905-6.494h.348v7.886h4.183V5h-3.95ZM162.754 11.031v7.248h4.183v-4.232h4.531a4.524 4.524 0 0 0 4.27-3.016h-12.984Z" fill-opacity=".5"/><path d="M171.469 5h-9.301a6.674 6.674 0 0 0 6.571 5.45h7.169c.064-.3.093-.608.093-.927 0-2.5-2.028-4.523-4.532-4.523Z"/></g><defs><clipPath id="bka"><path fill="#fff" transform="translate(1 5)" d="M0 0h45.152v14H0z"/></clipPath><clipPath id="bkb"><path fill="#fff" transform="translate(128)" d="M0 0h48v24H0z"/></clipPath></defs></svg><svg fill="none" viewBox="0 0 48 48" id="pin-payment" xmlns="http://www.w3.org/2000/svg"><path d="M24.004 4v1-1Zm16 15.84h1v-.01l-1 .01Zm-14.7 23.68-.596-.803-.028.02-.026.023.65.76Zm-2.6 0-.655.756.005.004.65-.76Zm-.003-.003.655-.756-.655.756ZM8.004 19.84l-1-.01v.01h1Zm16-16.84a17 17 0 0 0-11.961 4.919L13.45 9.34A15 15 0 0 1 24.004 5V3Zm11.961 4.919A17 17 0 0 0 24.004 3v2a15 15 0 0 1 10.554 4.34l1.407-1.421Zm5.039 11.911a17 17 0 0 0-5.039-11.911L34.558 9.34a15 15 0 0 1 4.446 10.51l2-.02ZM25.9 44.323c.43-.319 4.165-3.562 7.797-8.103 3.607-4.509 7.307-10.533 7.307-16.38h-2c0 5.113-3.3 10.669-6.868 15.13a63 63 0 0 1-4.941 5.459 54.082 54.082 0 0 1-1.727 1.63 28.789 28.789 0 0 1-.695.606l-.049.04-.016.012 1.192 1.606ZM24.004 45a3 3 0 0 0 1.95-.72l-1.3-1.52a1 1 0 0 1-.65.24v2Zm-1.95-.72a3 3 0 0 0 1.95.72v-2a1 1 0 0 1-.65-.24l-1.3 1.52Zm-.008-.007.003.003 1.31-1.512-.003-.003-1.31 1.512ZM7.004 19.84c0 5.839 3.715 11.853 7.326 16.357 3.65 4.551 7.376 7.781 7.716 8.076l1.31-1.512c-.307-.265-3.928-3.403-7.466-7.815-3.576-4.46-6.886-10.004-6.886-15.106h-2Zm5.039-11.921A17 17 0 0 0 7.004 19.83l2 .02A15 15 0 0 1 13.45 9.34L12.043 7.92ZM29 19.497a5 5 0 0 1-5 5v2a7 7 0 0 0 7-7h-2Zm-5-5a5 5 0 0 1 5 5h2a7 7 0 0 0-7-7v2Zm-5 5a5 5 0 0 1 5-5v-2a7 7 0 0 0-7 7h2Zm5 5a5 5 0 0 1-5-5h-2a7 7 0 0 0 7 7v-2Z" fill="#2D2727"/></svg><svg fill="none" viewBox="0 0 48 16" id="profile-back" xmlns="http://www.w3.org/2000/svg"><g clip-path="url(#bma)"><path d="M1.293 7.293a1 1 0 0 0 0 1.414l6.364 6.364a1 1 0 0 0 1.414-1.414L3.414 8l5.657-5.657A1 1 0 0 0 7.657.93L1.293 7.293ZM46 7H2v2h44V7Z" fill="#2D2727"/></g><defs><clipPath id="bma"><path fill="#fff" transform="rotate(-180 24 8)" d="M0 0h48v16H0z"/></clipPath></defs></svg><svg fill="none" viewBox="0 0 140 140" id="profile-cars" xmlns="http://www.w3.org/2000/svg"><path d="M87.5 61V9.5M78.5 17c3 .333 9-.8 9-8-.167 2.667 1.6 8 8 8M77 27.942c3.53.373 10.5-.894 10.5-8.942-.196 2.98 1.97 8.942 9.5 8.942" stroke="#2D2727" stroke-width="2" stroke-linejoin="round"/><path d="M75 38.93c4.235.455 12.5-1.093 12.5-10.93-.235 3.643 2.465 10.93 11.5 10.93M114.5 75.5v-46M105.5 37c3 .333 9-.8 9-8-.167 2.667 1.6 8 8 8M104 47.943c3.529.372 10.5-.895 10.5-8.943-.196 2.98 1.971 8.943 9.5 8.943" stroke="#2D2727" stroke-width="2" stroke-linejoin="round"/><path d="M102 58.93c4.235.455 12.5-1.093 12.5-10.93-.235 3.643 2.465 10.93 11.5 10.93" stroke="#2D2727" stroke-width="2" stroke-linejoin="round"/><path d="M4.111 73 18 82 3 80.875M135.258 85 121 83l17 10" stroke="#E60000" stroke-width="2" stroke-linejoin="round"/><circle cx="24.5" cy="107.5" r="14.5" stroke="#2D2727" stroke-width="2" stroke-linejoin="round"/><circle cx="113.5" cy="107.5" r="14.5" stroke="#2D2727" stroke-width="2" stroke-linejoin="round"/><circle cx="24.5" cy="107.5" r="8.5" stroke="#A7A9B9" stroke-width="2" stroke-linejoin="round" stroke-dasharray="3 3"/><circle cx="113.5" cy="107.5" r="8.5" stroke="#A7A9B9" stroke-width="2" stroke-linejoin="round" stroke-dasharray="3 3"/><path stroke="#2D2727" stroke-width="2" stroke-linejoin="round" d="M39 108h60"/><path d="m1.176 98.945-.993-.116.993.116Zm2.848-24.358-.993-.116.993.116Zm99.549-1.993.223-.974-.223.974Zm21.219 4.856-.223.974.223-.975Zm3.084 32.55H134v-2h-6.124v2ZM139 105V94.021h-2V105h2Zm-13.985-28.525-21.219-4.855-.446 1.95 21.219 4.854.446-1.95ZM57.914 52H26.802v2h31.112v-2Zm-37.536 2.696L4.988 70.381l1.427 1.4 15.39-15.684-1.427-1.4ZM3.031 74.471.183 98.829l1.986.232 2.848-24.358-1.986-.232ZM.183 98.829C-.513 104.777 4.135 110 10.123 110v-2c-4.791 0-8.51-4.18-7.954-8.939L.183 98.83ZM4.987 70.38a7 7 0 0 0-1.956 4.09l1.986.232a5 5 0 0 1 1.398-2.921L4.987 70.38ZM26.802 52a9 9 0 0 0-6.424 2.696l1.428 1.401A7 7 0 0 1 26.802 54v-2Zm77.142 19.704A63.617 63.617 0 0 0 57.914 52v2a61.618 61.618 0 0 1 44.583 19.084l1.447-1.38Zm-.148-.084a.293.293 0 0 1 .148.084l-1.447 1.38c.231.242.527.41.853.485l.446-1.95ZM139 94.02a18 18 0 0 0-13.985-17.546l-.446 1.95A16 16 0 0 1 137 94.02h2ZM134 110a5 5 0 0 0 5-5h-2a3 3 0 0 1-3 3v2Z" fill="#2D2727"/><path d="m102 80-.106.994a1 1 0 0 0 .748-1.76L102 80ZM30.098 59v-1a1 1 0 0 0-1 1h1Zm64.516 14.813.642-.766-.642.766ZM54.645 58H30.098v2h24.547v-2ZM4 73.317h26.098v-2H4v2ZM29.098 59v13.317h2V59h-2Zm73.544 20.233-7.386-6.186-1.284 1.533 7.386 6.187 1.284-1.534Zm-72.65-5.922 71.902 7.683.212-1.988-71.902-7.683-.212 1.988Zm65.264-.264a65.521 65.521 0 0 0-20.692-11.705l-.652 1.89a63.524 63.524 0 0 1 20.06 11.348l1.284-1.533ZM54.646 60a59.043 59.043 0 0 1 19.266 3.232l.652-1.89A61.042 61.042 0 0 0 54.645 58v2Z" fill="#2D2727"/><path d="m52 53 8 23.354V94" stroke="#2D2727" stroke-width="2" stroke-linejoin="round"/><path stroke="#2D2727" stroke-width="2" stroke-linecap="round" stroke-linejoin="round" d="M33 82h5M65 82h5"/></svg><svg fill="none" viewBox="0 0 140 140" id="profile-cart" xmlns="http://www.w3.org/2000/svg"><path stroke="#A7A9B9" stroke-width="2" stroke-linejoin="round" stroke-dasharray="3 3" d="m58.953 1.189 49.313 10.672-13.765 63.607-49.313-10.672z"/><path d="M3 17.5h13L53.5 114H113M60.5 114v5l-9 9M107.5 114v5l-9 9" stroke="#2D2727" stroke-width="2" stroke-linecap="round" stroke-linejoin="round"/><circle cx="52" cy="128" r="9" stroke="#E60000" stroke-width="2" stroke-linejoin="round"/><circle cx="99" cy="128" r="9" stroke="#E60000" stroke-width="2" stroke-linejoin="round"/><path stroke="#2D2727" stroke-width="2" stroke-linecap="round" stroke-linejoin="round" d="M45 90h37"/><path d="M39.5 78H111l12.5-36-102-9.5M28 46.5l91 9M33.5 61l80.5 7M45 34l18.5 44M70 37.5 88 78M95 40l16 38" stroke="#2D2727" stroke-width="2" stroke-linejoin="round"/></svg><svg fill="none" viewBox="0 0 140 140" id="profile-favorite" xmlns="http://www.w3.org/2000/svg"><path d="m67.5 124-.71.704a1.002 1.002 0 0 0 1.42 0L67.5 124ZM10.838 66.84l-.71.704.71-.703Zm113.324 0 .711.704-.711-.703ZM58.338 18.925l-.71.704.71-.704Zm9.162 9.243-.71.704a1 1 0 0 0 1.42 0l-.71-.704Zm9.162-9.243-.71-.704.71.704ZM68.21 123.296l-56.662-57.16-1.42 1.409 56.662 57.159 1.42-1.408Zm55.242-57.16-56.662 57.16 1.42 1.408 56.663-57.16-1.421-1.407ZM57.627 19.628l9.163 9.243 1.42-1.408-9.162-9.243-1.42 1.408ZM68.21 28.87l9.163-9.243-1.42-1.408-9.163 9.243 1.42 1.408ZM100.412 8a34.44 34.44 0 0 0-24.46 10.22l1.42 1.408A32.44 32.44 0 0 1 100.413 10V8ZM133 42.882c0 8.724-3.435 17.089-9.548 23.255l1.421 1.407C131.358 61.002 135 52.132 135 42.883h-2Zm2 0C135 23.626 119.523 8 100.412 8v2C118.402 10 133 24.714 133 42.882h2ZM34.588 10a32.44 32.44 0 0 1 23.04 9.628l1.42-1.408A34.44 34.44 0 0 0 34.588 8v2ZM2 42.882C2 24.714 16.598 10 34.588 10V8C15.478 8 0 23.625 0 42.882h2Zm9.548 23.255C5.435 59.97 2 51.605 2 42.882H0c0 9.249 3.642 18.12 10.127 24.663l1.42-1.409Z" fill="#2D2727"/><path d="M17.997 85.071 29.5 97l11.503-11.929a7.206 7.206 0 0 0 1.997-5C43 76.166 39.947 73 36.181 73a6.698 6.698 0 0 0-4.821 2.071L29.5 77l-1.86-1.929A6.698 6.698 0 0 0 22.818 73C19.053 73 16 76.166 16 80.071c0 1.875.718 3.674 1.997 5Z" fill="#fff"/><path d="m29.5 97-.72.694a1 1 0 0 0 1.44 0L29.5 97ZM17.997 85.071l-.72.694.72-.694Zm23.006 0 .72.694-.72-.694Zm-13.363-10-.72.694.72-.694ZM29.5 77l-.72.694a1 1 0 0 0 1.44 0L29.5 77Zm1.86-1.929-.72-.694.72.694Zm-1.14 21.235-11.503-11.93-1.44 1.39L28.78 97.693l1.44-1.388Zm10.063-11.93L28.78 96.307l1.44 1.388 11.503-11.929-1.44-1.388Zm-13.363-8.61 1.86 1.928 1.44-1.388-1.86-1.93-1.44 1.39Zm3.3 1.928 1.86-1.929-1.44-1.388-1.86 1.929 1.44 1.388ZM36.182 72c-2.086 0-4.079.86-5.542 2.377l1.44 1.388A5.698 5.698 0 0 1 36.182 74v-2ZM42 80.071c0 1.622-.621 3.17-1.717 4.306l1.44 1.388A8.206 8.206 0 0 0 44 80.071h-2Zm2 0C44 75.648 40.533 72 36.181 72v2C39.361 74 42 76.683 42 80.071h2ZM22.819 74c1.53 0 3.007.63 4.101 1.765l1.44-1.388A7.697 7.697 0 0 0 22.819 72v2ZM17 80.071C17 76.683 19.639 74 22.819 74v-2C18.466 72 15 75.648 15 80.071h2Zm1.717 4.306A6.206 6.206 0 0 1 17 80.07h-2c0 2.13.815 4.178 2.277 5.694l1.44-1.388Z" fill="#E60000"/><path d="M90.772 101.124 112.5 122l21.728-20.876c2.415-2.32 3.772-5.468 3.772-8.75C138 85.54 132.234 80 125.121 80c-3.416 0-6.692 1.304-9.108 3.624L112.5 87l-3.513-3.376c-2.416-2.32-5.692-3.624-9.108-3.624C92.766 80 87 85.54 87 92.374c0 3.282 1.357 6.43 3.772 8.75Z" fill="#fff"/><path d="m112.5 122-.693.721a1 1 0 0 0 1.386 0L112.5 122Zm-21.728-20.876-.693.721.693-.721Zm43.456 0 .693.721-.693-.721Zm-25.241-17.5-.693.722.693-.722ZM112.5 87l-.693.721a1 1 0 0 0 1.386 0L112.5 87Zm3.513-3.376-.692-.72.692.72Zm-2.82 37.655-1.087-1.044-1.385 1.442 1.086 1.044 1.386-1.442Zm-3.259-3.131-2.173-2.088-1.386 1.442 2.173 2.088 1.386-1.442Zm-4.346-4.176-2.173-2.087-1.385 1.442 2.172 2.088 1.386-1.443Zm-4.345-4.175-2.173-2.087-1.386 1.442 2.173 2.088 1.386-1.443Zm-4.346-4.175-2.173-2.087-1.385 1.442 2.172 2.087 1.386-1.442Zm-4.346-4.175-1.086-1.044-1.386 1.442 1.087 1.044 1.386-1.442Zm-1.086-1.044a11.56 11.56 0 0 1-.773-.819l-1.52 1.301c.285.333.588.653.907.96l1.386-1.442Zm-2.059-2.66a11.118 11.118 0 0 1-.892-2.057l-1.905.605c.267.841.62 1.654 1.052 2.428l1.745-.976Zm-1.348-4.25c-.039-.37-.058-.743-.058-1.119h-2c0 .445.023.887.068 1.325l1.99-.206ZM88 92.374a11 11 0 0 1 .104-1.511l-1.981-.275A13.01 13.01 0 0 0 86 92.374h2Zm.928-4.415a11.27 11.27 0 0 1 1.584-2.58l-1.55-1.265a13.27 13.27 0 0 0-1.864 3.038l1.83.807Zm3.795-4.664a12.016 12.016 0 0 1 2.673-1.457l-.728-1.863a14.01 14.01 0 0 0-3.117 1.7l1.172 1.62Zm5.629-2.202c.5-.061 1.01-.093 1.527-.093v-2c-.6 0-1.19.037-1.771.108l.243 1.985ZM99.879 81c.39 0 .777.018 1.161.054l.187-1.99A14.413 14.413 0 0 0 99.879 79v2Zm3.439.487c.746.216 1.468.502 2.155.853l.91-1.781a14.206 14.206 0 0 0-2.508-.993l-.557 1.921Zm4.103 2.1c.303.237.594.49.873.758l1.385-1.442c-.326-.313-.667-.61-1.021-.888l-1.237 1.572Zm.873.758.878.844 1.386-1.442-.879-.844-1.385 1.442Zm2.635 2.532.878.844 1.386-1.442-.879-.844-1.385 1.442Zm2.264.844.878-.844-1.385-1.442-.879.844 1.386 1.442Zm2.635-2.532.878-.843-1.385-1.443-.879.844 1.386 1.442Zm.878-.843c.279-.268.57-.522.873-.76l-1.237-1.571c-.354.278-.695.575-1.021.888l1.385 1.442Zm2.821-2.006a12.187 12.187 0 0 1 2.155-.853l-.557-1.921c-.867.251-1.707.584-2.508.993l.91 1.78Zm4.433-1.286c.384-.036.771-.054 1.161-.054v-2c-.452 0-.902.021-1.348.063l.187 1.991Zm1.161-.054c.518 0 1.028.032 1.528.093l.243-1.985a14.502 14.502 0 0 0-1.771-.108v2Zm4.483.838c.96.375 1.858.867 2.673 1.457l1.172-1.62a14.006 14.006 0 0 0-3.117-1.7l-.728 1.863Zm4.884 3.54a11.3 11.3 0 0 1 1.584 2.58l1.83-.805a13.27 13.27 0 0 0-1.865-3.04l-1.549 1.265Zm2.408 5.485c.069.494.104.998.104 1.511h2c0-.605-.042-1.2-.123-1.786l-1.981.275Zm.104 1.511c0 .376-.019.75-.058 1.12l1.99.205c.045-.438.068-.88.068-1.325h-2Zm-.515 3.312c-.226.711-.524 1.4-.891 2.057l1.745.976a13.06 13.06 0 0 0 1.052-2.428l-1.906-.605Zm-2.177 3.898c-.242.284-.5.557-.773.819l1.386 1.442c.319-.307.622-.627.906-.96l-1.519-1.3Zm-.773.819-1.087 1.044 1.386 1.442 1.087-1.044-1.386-1.442Zm-3.259 3.132-2.173 2.087 1.386 1.442 2.172-2.087-1.385-1.442Zm-4.346 4.175-2.173 2.087 1.386 1.443 2.173-2.088-1.386-1.442Zm-4.345 4.175-2.173 2.087 1.386 1.443 2.172-2.088-1.385-1.442Zm-4.346 4.175-2.173 2.088 1.386 1.442 2.173-2.088-1.386-1.442Zm-4.345 4.175-1.087 1.044 1.386 1.442 1.086-1.044-1.385-1.442Z" fill="#A7A9B9"/></svg><svg fill="none" viewBox="0 0 24 24" id="red-arrow" xmlns="http://www.w3.org/2000/svg"><path d="m3 12 5.974 6 12-12" stroke="#E60000" stroke-width="2" stroke-linecap="round" stroke-linejoin="round"/></svg><svg fill="none" viewBox="0 0 24 24" id="red-plus" xmlns="http://www.w3.org/2000/svg"><path fill-rule="evenodd" clip-rule="evenodd" d="M13.485 5a1 1 0 1 0-2 0v6.485H5a1 1 0 1 0 0 2h6.485v6.486a1 1 0 1 0 2 0v-6.486h6.486a1 1 0 1 0 0-2h-6.486V5Z" fill="#E60000"/></svg><svg fill="none" viewBox="0 0 24 24" id="repeat-arrows" xmlns="http://www.w3.org/2000/svg"><g clip-path="url(#bsa)" stroke="#E60000" stroke-width="2" stroke-linecap="round" stroke-linejoin="round"><path d="M20 11A8.1 8.1 0 0 0 4.5 9M4 5v4h4M4 13a8.1 8.1 0 0 0 15.5 2m.5 4v-4h-4"/></g><defs><clipPath id="bsa"><path fill="#fff" d="M0 0h24v24H0z"/></clipPath></defs></svg><svg fill="none" viewBox="0 0 16 16" id="return" xmlns="http://www.w3.org/2000/svg"><g clip-path="url(#bta)"><path d="M13.293 7.332a5.333 5.333 0 1 0-.333 2.666m.333 3.334V9.998H9.96" stroke="#2D2727" stroke-width="1.5" stroke-linecap="round" stroke-linejoin="round"/></g><defs><clipPath id="bta"><path fill="#fff" d="M0 0h16v16H0z"/></clipPath></defs></svg><svg fill="none" viewBox="0 0 48 48" id="reviews-emply" xmlns="http://www.w3.org/2000/svg"><g clip-path="url(#bua)" stroke="#2D2727" stroke-width="2"><path d="M1 24C1 11.297 11.297 1 24 1s23 10.297 23 23-10.297 23-23 23H1V24Z" stroke-linejoin="round"/><path d="M16 33h8M16 20h14" stroke-linecap="round"/></g><defs><clipPath id="bua"><path fill="#fff" d="M0 0h48v48H0z"/></clipPath></defs></svg><svg fill="none" viewBox="0 0 64 64" id="sad-smile" xmlns="http://www.w3.org/2000/svg"><g clip-path="url(#bva)" stroke-width="2" stroke-linecap="round" stroke-linejoin="round"><path d="M32 62c16.569 0 30-13.431 30-30C62 15.431 48.569 2 32 2 15.431 2 2 15.431 2 32c0 16.569 13.431 30 30 30Z" stroke="#2D2727"/><path d="M22 25.336h.033M42 25.336h.033" stroke="#A7A9B9"/><path d="M23.664 42.834a11.667 11.667 0 0 1 16.667 0" stroke="#E60000"/></g><defs><clipPath id="bva"><path fill="#fff" d="M0 0h64v64H0z"/></clipPath></defs></svg><svg fill="none" viewBox="0 0 80 80" id="search-notfound" xmlns="http://www.w3.org/2000/svg"><g clip-path="url(#bwa)"><path d="M65.572 41.72c0 9.648-7.9 17.485-17.667 17.485-9.766 0-17.667-7.837-17.667-17.485s7.9-17.486 17.667-17.486c9.766 0 17.667 7.838 17.667 17.486Z" stroke="#E60000" stroke-width="2"/><rect width="3.429" height="13.909" rx="1.714" transform="matrix(.82177 -.56982 .57733 .8165 58.285 55.664)" fill="#E60000"/><path d="M65.237 22.8V.57H.57v76.792h56.584" stroke="#000" stroke-width="2" stroke-linecap="round"/><path d="M11.18 13.2h41.932M11.18 25.324h19.198M11.18 37.45h11.114M11.18 49.574h11.114M11.18 61.7h15.156" stroke="#A7A9B9" stroke-width="2" stroke-linecap="round" stroke-dasharray="3 3"/></g><defs><clipPath id="bwa"><path fill="#fff" d="M0 0h80v80H0z"/></clipPath></defs></svg><svg fill="none" viewBox="0 0 48 48" id="sentmail" xmlns="http://www.w3.org/2000/svg"><circle cx="24" cy="24" r="24" fill="#E60000"/><path d="M31 17H17a2 2 0 0 0-2 2v10a2 2 0 0 0 2 2h14a2 2 0 0 0 2-2V19a2 2 0 0 0-2-2Z" stroke="#fff" stroke-width="1.5" stroke-linecap="round" stroke-linejoin="round"/><path d="m15 19 9 6 9-6" stroke="#fff" stroke-width="1.5" stroke-linecap="round" stroke-linejoin="round"/></svg><svg class="byheader__city-icon" fill="none" viewBox="0 0 16 16" id="small-arrow-down" xmlns="http://www.w3.org/2000/svg"><path d="m4 6 4 4 4-4" stroke="#2D2727" stroke-width="1.5" stroke-linecap="round" stroke-linejoin="round"/></svg><svg fill="none" viewBox="0 0 80 80" id="state-success" xmlns="http://www.w3.org/2000/svg"><circle cx="43.078" cy="40.769" r="20.538" stroke="#2D2727" stroke-width="2"/><path d="m36.922 40.594 4.195 4.195 7.866-7.866" stroke="#E60000" stroke-width="2" stroke-linecap="round" stroke-linejoin="round"/><circle cx="34.239" cy="8.846" r="2.692" fill="#A7A9B9"/><circle cx="24.239" cy="69.614" r="2.692" fill="#A7A9B9"/><circle cx="45.001" cy="13.461" r="1.923" fill="#A7A9B9"/><circle cx="48.087" cy="68.845" r="1.923" fill="#A7A9B9"/><circle cx="10.772" cy="28.462" r="3.077" fill="#A7A9B9"/><circle cx="71.157" cy="37.308" r="1.923" fill="#A7A9B9"/><circle cx="59.241" cy="70.768" r="3.077" fill="#A7A9B9"/><path d="M69.234 53.116c2.565-.257 7.308.615 5.77 6.154M20.005 50.165c-.641 1.026-2.385 3.154-5.77 3.462-4.23-.385-5.384-3.462-4.23-4.616 1.154-1.153 4.23-.769 4.23 3.846-.384 2.693-1.538 5.385-11.922 4.616M66.93 23.462c2.307.128 6.923-.693 6.923-5 0-5.385 3.461-6.154 4.23-6.154" stroke="#A7A9B9" stroke-width="2" stroke-linecap="round"/></svg><svg fill="none" viewBox="0 0 64 64" id="state-success2" xmlns="http://www.w3.org/2000/svg"><circle cx="32" cy="32" r="31" stroke="#2D2727" stroke-width="2"/><path d="m20 32 7.965 8 16-16" stroke="#E60000" stroke-width="2" stroke-linecap="round" stroke-linejoin="round"/></svg><svg fill="none" viewBox="0 0 104 104" id="success-envelope" xmlns="http://www.w3.org/2000/svg"><path d="M96.052 98.428 7.43 40.71v57.718h88.622Z" stroke="#fff" stroke-width="2" stroke-linejoin="round"/><path d="M6.82 39.917a1 1 0 1 0 1.22 1.585l-1.22-1.585ZM51.907 5.942l.64-.769a1 1 0 0 0-1.257-.017l.617.786Zm43.527 35.553a1 1 0 1 0 1.237-1.571l-1.237 1.572Zm-76.942-8.03a1 1 0 1 0-1.219-1.585l1.22 1.586Zm22.863-20.51a1 1 0 1 0 1.235 1.574l-1.235-1.573Zm19.292 1.556a1 1 0 0 0 1.28-1.537l-1.28 1.537Zm25.344 17.005a1 1 0 0 0-1.237 1.572l1.237-1.572ZM8.039 41.502l10.453-8.036-1.219-1.586L6.82 39.917l1.22 1.585ZM42.59 14.53l9.935-7.8-1.235-1.573-9.935 7.8 1.235 1.573Zm8.678-7.818 9.38 7.8 1.278-1.537-9.38-7.8-1.278 1.537Zm33.486 26.377 10.68 8.407 1.237-1.571-10.68-8.408-1.237 1.572Z" fill="#fff"/><path d="m46.055 35.937 5.453 5.454 10.226-10.226" stroke="#E60000" stroke-width="2" stroke-linecap="round" stroke-linejoin="round"/><path d="M17.883 47.527V13.895h67.49v34.086" stroke="#A7A9B9" stroke-width="2" stroke-linejoin="round" stroke-dasharray="4 4"/><path d="M7.432 98.428h88.623V40.71L51.743 69.57" stroke="#fff" stroke-width="2" stroke-linejoin="round"/></svg><svg fill="none" viewBox="0 0 64 64" id="success-icon" xmlns="http://www.w3.org/2000/svg"><circle cx="32" cy="32" r="31" stroke="#2D2727" stroke-width="2"/><path d="M20.709 31.294a1 1 0 0 0-1.418 1.412l1.418-1.412ZM27.965 40l-.708.705a1 1 0 0 0 1.416.002L27.966 40Zm16.708-15.293a1 1 0 0 0-1.415-1.414l1.415 1.414ZM19.29 32.706l7.966 8 1.417-1.412-7.965-8-1.418 1.412Zm9.382 8 16-15.999-1.415-1.414-16 16 1.415 1.414Z" fill="#E60000"/></svg><svg fill="none" viewBox="0 0 24 24" id="user" xmlns="http://www.w3.org/2000/svg"><path d="M12 11a4 4 0 1 0 0-8 4 4 0 0 0 0 8ZM6 21v-2a4 4 0 0 1 4-4h4a4 4 0 0 1 4 4v2" stroke="#504F55" stroke-width="2" stroke-linecap="round" stroke-linejoin="round"/></svg><svg fill="none" viewBox="0 0 46 14" id="visa" xmlns="http://www.w3.org/2000/svg"><g clip-path="url(#cfa)"><path d="M20.347 14h-3.725l2.343-14h3.68l-2.298 14zm-6.78-14-3.522 9.632-.405-2.078L8.4 1.26A1.567 1.567 0 0 0 6.647 0H.844l-.07.238c1.358.337 2.659.877 3.856 1.603L7.817 14h3.84l5.846-14h-3.962.026zm28.977 14h3.382l-2.95-14h-2.959a1.69 1.69 0 0 0-1.699 1.047L32.824 14h3.839l.766-2.078h4.684L42.544 14zm-4.05-4.958 1.937-5.283 1.092 5.283h-3.029zm-5.389-5.679.529-3.011a10.733 10.733 0 0 0-3.31-.608c-1.832 0-6.164.793-6.164 4.632 0 3.618 5.098 3.662 5.098 5.564 0 1.902-4.57 1.559-6.076.361l-.546 3.144c1.317.545 2.731.815 4.156.792 2.518 0 6.305-1.285 6.305-4.79 0-3.636-5.142-3.98-5.142-5.564 0-1.585 3.574-1.374 5.15-.52z" fill="#F1F1F3"/><path d="M9.64 7.554 8.4 1.258a1.567 1.567 0 0 0-1.753-1.26H.844l-.07.239A14.343 14.343 0 0 1 6.24 2.949a10.918 10.918 0 0 1 3.4 4.605z" fill="#fff"/></g><defs><clipPath id="cfa"><path fill="#fff" transform="translate(.773)" d="M0 0h45.152v14H0z"/></clipPath></defs></svg><svg fill="none" viewBox="0 0 48 24" id="visa-grey" xmlns="http://www.w3.org/2000/svg"><g clip-path="url(#cea)" fill="#A7A9B9"><path d="M20.574 19h-3.725l2.342-14h3.68l-2.297 14zm-6.78-14-3.522 9.632-.405-2.078L8.625 6.26A1.567 1.567 0 0 0 6.873 5H1.07L1 5.237c1.36.337 2.66.877 3.857 1.603L8.044 19h3.839L17.73 5h-3.963.027zM42.77 19h3.381l-2.95-14h-2.958a1.69 1.69 0 0 0-1.7 1.047L33.05 19h3.84l.765-2.078h4.685L42.77 19zm-4.05-4.958 1.937-5.283 1.092 5.283h-3.03zm-5.389-5.679.528-3.011a10.734 10.734 0 0 0-3.31-.608c-1.832 0-6.164.793-6.164 4.632 0 3.619 5.098 3.663 5.098 5.564 0 1.902-4.57 1.559-6.075.361l-.546 3.144c1.316.545 2.73.815 4.156.792 2.518 0 6.304-1.285 6.304-4.79 0-3.636-5.142-3.98-5.142-5.564 0-1.585 3.575-1.374 5.151-.52z"/><path d="M9.867 12.554 8.625 6.258a1.567 1.567 0 0 0-1.752-1.26H1.07l-.07.24A14.343 14.343 0 0 1 6.468 7.95a10.918 10.918 0 0 1 3.399 4.605z" fill-opacity=".5"/></g><defs><clipPath id="cea"><path fill="#fff" transform="translate(1 5)" d="M0 0h45.152v14H0z"/></clipPath></defs></svg><svg fill="none" viewBox="0 0 32 32" id="vk" xmlns="http://www.w3.org/2000/svg"><path d="M0 15.36C0 8.12 0 4.499 2.25 2.25 4.498 0 8.12 0 15.36 0h1.28c7.24 0 10.861 0 13.11 2.25C32 4.498 32 8.12 32 15.36v1.28c0 7.24 0 10.861-2.25 13.11C27.502 32 23.88 32 16.64 32h-1.28c-7.24 0-10.861 0-13.11-2.25C0 27.502 0 23.88 0 16.64v-1.28Z" fill="#F1F1F3"/><path d="M17.025 23.054c-7.293 0-11.453-5-11.627-13.32h3.654c.12 6.107 2.813 8.694 4.946 9.227V9.734h3.44v5.267c2.107-.227 4.32-2.627 5.067-5.267h3.44c-.573 3.254-2.973 5.654-4.68 6.64 1.707.8 4.44 2.894 5.48 6.68h-3.787c-.813-2.533-2.84-4.493-5.52-4.76v4.76h-.413Z" fill="#2D2727"/></svg><svg fill="none" viewBox="0 0 48 48" id="wallet" xmlns="http://www.w3.org/2000/svg"><path d="M38.09 19.52v-2.575a8 8 0 0 0-8-8H12.78a8 8 0 0 0-8 8v14.003a8 8 0 0 0 8 8H30.09a8 8 0 0 0 8-8v-1.714" stroke="#000" stroke-width="2"/><path d="M13.5 18.5h11" stroke="#1B1B1B" stroke-width="2" stroke-linecap="round"/><rect x="33" y="20" width="10" height="9" rx="1" stroke="#000" stroke-width="2"/></svg><svg fill="none" viewBox="0 0 48 16" id="white-arrow-right" xmlns="http://www.w3.org/2000/svg"><path d="M46.707 8.707a1 1 0 0 0 0-1.414L40.343.929a1 1 0 1 0-1.414 1.414L44.586 8l-5.657 5.657a1 1 0 0 0 1.414 1.414l6.364-6.364ZM2 9h44V7H2v2Z" fill="#fff"/></svg><svg fill="none" viewBox="0 0 24 24" id="write" xmlns="http://www.w3.org/2000/svg"><path d="M11 21h10" stroke="#2D2727" stroke-width="2" stroke-linecap="round"/><path clip-rule="evenodd" d="M16.884 4.824a3.332 3.332 0 0 0-4.672.281L4.1 14.18c-2.091 2.337-.558 5.566-.558 5.566s3.452 1.082 5.512-1.222l8.115-9.074a3.256 3.256 0 0 0-.285-4.626Z" stroke="#2D2727" stroke-width="2" stroke-linecap="round" stroke-linejoin="round"/><path d="m10.36 7.293 4.565 3.987" stroke="#2D2727" stroke-width="2" stroke-linecap="round" stroke-linejoin="round"/></svg></svg>