<svg viewBox="0 0 211 34" xmlns="http://www.w3.org/2000/svg" xmlns:xlink="http://www.w3.org/1999/xlink"><style>:root&gt;svg{display:none}:root&gt;svg:target{display:block}</style><svg fill="none" viewBox="0 0 16 16" id="css--arrow_filter" xmlns="http://www.w3.org/2000/svg"><path d="M7.25 13a.75.75 0 001.5 0h-1.5zM8.53 1.47a.75.75 0 00-1.06 0L2.697 6.243a.75.75 0 001.06 1.06L8 3.061l4.243 4.242a.75.75 0 001.06-1.06L8.53 1.47zM8.75 13V2h-1.5v11h1.5z" fill="currentColor"/></svg><svg fill="none" viewBox="0 0 45 16" id="css--back-arrow" xmlns="http://www.w3.org/2000/svg"><path d="M.293 7.293a1 1 0 000 1.414l6.364 6.364a1 1 0 001.414-1.414L2.414 8l5.657-5.657A1 1 0 006.657.93L.293 7.293zM45 7H1v2h44V7z" fill="#2D2727"/></svg><svg fill="none" viewBox="0 0 24 24" id="css--car" xmlns="http://www.w3.org/2000/svg"><path d="M4.667 17.554H4a3 3 0 01-3-3v-2.148a3 3 0 013-3h16a3 3 0 013 3v2.148a3 3 0 01-3 3h-.667" stroke="currentColor" stroke-width="2"/><circle cx="6.296" cy="17.147" r="1.852" stroke="currentColor" stroke-width="2"/><circle cx="17.704" cy="17.147" r="1.852" stroke="currentColor" stroke-width="2"/><path stroke="currentColor" stroke-width="2" d="M8.333 17.369h7.334m-11-7.963l.536-3.217a2 2 0 011.973-1.671h6.198a2 2 0 011.664.89l2.666 3.998m-5.926-4.888v4.888"/><path stroke="currentColor" stroke-width="2" stroke-linecap="round" d="M11.778 12.48h2.074"/></svg><svg fill="none" viewBox="0 0 24 24" id="css--card" xmlns="http://www.w3.org/2000/svg"><path d="M7 10l3.09-6M17 10l-3.09-6M21 10l-2 8c-.093.573-.345 1.087-.71 1.453-.366.365-.822.559-1.29.547H7c-.468.012-.924-.182-1.29-.547-.365-.366-.617-.88-.71-1.453l-2-8h18z" stroke="currentColor" stroke-width="2" stroke-linecap="round" stroke-linejoin="round"/></svg><svg fill="none" viewBox="0 0 24 24" id="css--cart" xmlns="http://www.w3.org/2000/svg"><path d="M7 10l3.09-6M17 10l-3.09-6M21 10l-2 8c-.093.573-.345 1.087-.71 1.453-.366.365-.822.559-1.29.547H7c-.468.012-.924-.182-1.29-.547-.365-.366-.617-.88-.71-1.453l-2-8h18z" stroke="#fff" stroke-width="2" stroke-linecap="round" stroke-linejoin="round"/></svg><svg fill="none" viewBox="0 0 24 24" id="css--catalog" xmlns="http://www.w3.org/2000/svg"><path fill-rule="evenodd" clip-rule="evenodd" d="M12.75 11.25H4.5A1.5 1.5 0 013 9.75V4.5A1.5 1.5 0 014.5 3h8.25a1.5 1.5 0 011.5 1.5v5.25a1.5 1.5 0 01-1.5 1.5zm0-6.75H4.5v5.25h8.25V4.5zm4.5-1.5h2.25A1.5 1.5 0 0121 4.5v5.25a1.5 1.5 0 01-1.5 1.5h-2.25a1.5 1.5 0 01-1.5-1.5V4.5a1.5 1.5 0 011.5-1.5zm0 6.75h2.25V4.5h-2.25v5.25zm-10.5 3H4.5a1.5 1.5 0 00-1.5 1.5v5.25A1.5 1.5 0 004.5 21h2.25a1.5 1.5 0 001.5-1.5v-5.25a1.5 1.5 0 00-1.5-1.5zm0 6.75H4.5v-5.25h2.25v5.25zm4.5-6.75h8.25a1.5 1.5 0 011.5 1.5v5.25a1.5 1.5 0 01-1.5 1.5h-8.25a1.5 1.5 0 01-1.5-1.5v-5.25a1.5 1.5 0 011.5-1.5zm0 6.75h8.25v-5.25h-8.25v5.25z" fill="currentColor"/></svg><svg fill="none" viewBox="0 0 9 8" id="css--check" xmlns="http://www.w3.org/2000/svg"><path d="M6.847.97a.236.236 0 00-.02.021L3.354 5.416 1.261 3.322a.75.75 0 00-1.06 1.06L2.847 7.03a.75.75 0 001.08-.02l3.991-4.99A.75.75 0 006.848.97z" fill="currentColor"/></svg><svg fill="none" viewBox="0 0 9 8" id="css--checked" xmlns="http://www.w3.org/2000/svg"><path d="M6.847.97a.236.236 0 00-.02.021L3.354 5.416 1.261 3.322a.75.75 0 00-1.06 1.06L2.847 7.03a.75.75 0 001.08-.02l3.991-4.99A.75.75 0 006.848.97z" fill="currentColor"/></svg><svg fill="none" viewBox="0 0 10 6" id="css--chevron" xmlns="http://www.w3.org/2000/svg"><path d="M1 1l4 4 4-4" stroke="#2D2727" stroke-width="1.5" stroke-linecap="round" stroke-linejoin="round"/></svg><svg fill="none" viewBox="0 0 16 16" id="css--chevron-white" xmlns="http://www.w3.org/2000/svg"><path d="M2.209 7.294A1 1 0 10.79 8.706l1.42-1.412zM5.483 12l-.709.706a1 1 0 001.416.001L5.483 12zm8.707-7.293a1 1 0 00-1.414-1.414l1.414 1.414zM.79 8.706l3.983 4 1.417-1.412-3.982-4L.79 8.706zm5.399 4.001l8-8-1.414-1.414-8 8 1.414 1.414z" fill="#F1F1F3"/></svg><svg fill="none" viewBox="0 0 16 16" id="css--close" xmlns="http://www.w3.org/2000/svg"><path d="M12.367 4.024l-8.732 8.733m8.732 0L3.635 4.024" stroke="currentColor" stroke-width="2" stroke-linecap="round"/></svg><svg fill="none" viewBox="0 0 24 24" id="css--exit" xmlns="http://www.w3.org/2000/svg"><path d="M13 4.5V1H1v22h12v-3.5m5-12l4 4.5-4 4.5m3-4.5H8" stroke="#2D2727" stroke-width="2" stroke-linecap="round" stroke-linejoin="round"/></svg><svg fill="none" viewBox="0 0 24 20" id="css--eye" xmlns="http://www.w3.org/2000/svg"><path d="M11.65 6.089c.117-.013.234-.018.35-.018 2.209 0 4 1.833 4 4.179 0 2.307-1.791 4.179-4 4.179-2.245 0-4-1.872-4-4.179 0-.122.005-.244.017-.366.388.196.838.366 1.317.366C10.804 10.25 12 9 12 7.464c0-.5-.163-.97-.35-1.375zm8.376-2.08c1.95 1.888 3.254 4.113 3.87 5.706.138.344.138.726 0 1.07-.616 1.554-1.92 3.778-3.87 5.707C18.063 18.398 15.367 20 12 20s-6.063-1.602-8.025-3.508C2.025 14.563.722 12.339.102 10.785a1.446 1.446 0 010-1.07c.62-1.593 1.923-3.818 3.873-5.707C5.938 2.104 8.634.5 12 .5c3.367 0 6.063 1.604 8.026 3.508zM12 3.981c-3.313 0-6 2.808-6 6.268s2.687 6.268 6 6.268c3.312 0 6-2.808 6-6.268s-2.688-6.268-6-6.268z" fill="#2D2727"/></svg><svg fill="none" viewBox="0 0 24 24" id="css--eye_close" xmlns="http://www.w3.org/2000/svg"><path d="M11.65 7.089c.117-.013.234-.018.35-.018 2.209 0 4 1.833 4 4.179 0 2.307-1.791 4.179-4 4.179-2.245 0-4-1.872-4-4.179 0-.122.005-.244.017-.366.388.196.838.366 1.317.366C10.804 11.25 12 10 12 8.464c0-.5-.163-.97-.35-1.375zm8.376-2.08c1.95 1.888 3.254 4.113 3.87 5.706.138.344.138.726 0 1.07-.616 1.554-1.92 3.778-3.87 5.707C18.063 19.398 15.367 21 12 21s-6.063-1.602-8.025-3.508C2.025 15.563.722 13.339.102 11.785a1.446 1.446 0 010-1.07c.62-1.593 1.923-3.818 3.873-5.707C5.938 3.104 8.634 1.5 12 1.5c3.367 0 6.063 1.604 8.026 3.508zM12 4.981c-3.313 0-6 2.808-6 6.268s2.687 6.268 6 6.268c3.312 0 6-2.808 6-6.268s-2.688-6.268-6-6.268z" fill="#2D2727"/><path stroke="#2D2727" stroke-width="2" stroke-linecap="round" d="M22.5 1.414L2.914 21"/></svg><svg fill="none" viewBox="0 0 16 16" id="css--filter" xmlns="http://www.w3.org/2000/svg"><path stroke="#fff" stroke-width="2" stroke-linecap="round" d="M1 3h14M3.908 9h8.182m-4.545 6h.909"/></svg><svg fill="none" viewBox="0 0 24 24" id="css--garage" xmlns="http://www.w3.org/2000/svg"><path fill-rule="evenodd" clip-rule="evenodd" d="M4.879 13.879A3 3 0 004.172 15H3v-3a1 1 0 011-1h1a1 1 0 00.89-.55l1.45-2.9a1 1 0 01.9-.55H11v1h-1a1 1 0 000 2h5.582l.708.71A1 1 0 0017 11h2.48A1.52 1.52 0 0121 12.52V13a1 1 0 002 0v-.48A3.53 3.53 0 0019.48 9h-2.07l-3.12-3.12A3 3 0 0012.17 5H8.24a3 3 0 00-2.69 1.66L4.38 9H4a3 3 0 00-3 3v3a2 2 0 002 2h1.172a3 3 0 005.657 0h5.343a2.988 2.988 0 001.161 1.494A3 3 0 1015.172 15H9.828a3 3 0 00-4.95-1.121zM8 16v.001a1 1 0 11-2 0A1 1 0 018 16zm9.444-.832a1 1 0 111.112 1.665 1 1 0 01-1.112-1.664z" fill="currentColor"/></svg><svg fill="none" viewBox="0 0 26 23" id="css--heart" xmlns="http://www.w3.org/2000/svg"><path d="M13 21.571l-.707.707a1 1 0 001.414 0L13 21.572zM2.775 11.347l-.707.707.707-.707zm20.45 0l.707.707-.707-.707zM11.347 2.775l-.707.707.707-.707zM13 4.43l-.707.707a1 1 0 001.414 0L13 4.429zm1.653-1.654l-.707-.707.707.707zm-.946 18.09L3.482 10.64l-1.414 1.414 10.225 10.225 1.414-1.415zm8.81-10.225L12.294 20.864l1.414 1.415 10.225-10.225-1.414-1.415zM10.64 3.481l1.653 1.654 1.414-1.415-1.653-1.653-1.415 1.414zm3.067 1.654l1.653-1.654-1.414-1.414-1.653 1.653 1.414 1.415zM18.94 0a7.06 7.06 0 00-4.993 2.068l1.415 1.414A5.06 5.06 0 0118.939 2V0zM24 7.06a5.06 5.06 0 01-1.482 3.58l1.414 1.414A7.06 7.06 0 0026 7.06h-2zm2 0A7.06 7.06 0 0018.94 0v2A5.06 5.06 0 0124 7.06h2zM7.06 2a5.06 5.06 0 013.58 1.482l1.414-1.414A7.06 7.06 0 007.06 0v2zM2 7.06A5.06 5.06 0 017.06 2V0A7.06 7.06 0 000 7.06h2zm1.482 3.58A5.06 5.06 0 012 7.06H0a7.06 7.06 0 002.068 4.994l1.414-1.415z" fill="currentColor"/></svg><svg fill="none" viewBox="0 0 26 23" id="css--heart-red" xmlns="http://www.w3.org/2000/svg"><path d="M2.775 11.347L13 21.57l10.225-10.224a6.06 6.06 0 00-8.572-8.572L13 4.43l-1.653-1.654a6.06 6.06 0 10-8.572 8.572z" fill="#E60000"/><path d="M13 21.571l-.707.707a1 1 0 001.414 0L13 21.572zM2.775 11.347l-.707.707.707-.707zm8.572-8.572l-.707.707.707-.707zM13 4.43l-.707.707a1 1 0 001.414 0L13 4.429zm1.653-1.654l-.707-.707.707.707zm-.946 18.09L3.482 10.64l-1.414 1.414 10.225 10.225 1.414-1.415zm8.81-10.225L12.294 20.864l1.414 1.415 10.225-10.225-1.414-1.415zM10.64 3.481l1.653 1.654 1.414-1.415-1.653-1.653-1.415 1.414zm3.067 1.654l1.653-1.654-1.414-1.414-1.653 1.653 1.414 1.415zM18.94 0a7.06 7.06 0 00-4.993 2.068l1.415 1.414A5.06 5.06 0 0118.939 2V0zM24 7.06a5.06 5.06 0 01-1.482 3.58l1.414 1.414A7.06 7.06 0 0026 7.06h-2zm2 0A7.06 7.06 0 0018.94 0v2A5.06 5.06 0 0124 7.06h2zM7.06 2a5.06 5.06 0 013.58 1.482l1.414-1.414A7.06 7.06 0 007.06 0v2zM2 7.06A5.06 5.06 0 017.06 2V0A7.06 7.06 0 000 7.06h2zm1.482 3.58A5.06 5.06 0 012 7.06H0a7.06 7.06 0 002.068 4.994l1.414-1.415z" fill="#E60000"/></svg><svg fill="none" viewBox="0 0 211 32" id="css--logo" xmlns="http://www.w3.org/2000/svg"><g clip-path="url(#asclip0_604_101209)"><path d="M197.569 0h6.951l6.094 5.838c.515.51.515 1.363 0 1.832l-6.094 5.837h-6.951l7.037-6.732L197.569 0z" fill="#E60000"/><path d="M199.843 6.732h-6.952l-6.094 5.838c-.515.511-.515 1.364 0 1.832l6.094 5.838h6.952l-7.038-6.733 7.038-6.775z" fill="#E60000"/><path d="M128.265 10.737l-.128-.128h-17.68a5.672 5.672 0 00-3.09.895c-.687.426-1.202.938-1.545 1.534a4.142 4.142 0 00-.644 1.704c-.042.299-.042.64-.042.895v4.219c0 .852.3 1.704.858 2.428.472.682 1.116 1.194 1.888 1.577.215.128.429.17.644.256.085.042.128.042.214.085l-.901 1.278-2.36 3.366c-.515.767-1.03 1.534-1.588 2.259-.043.042-.086.085-.086.17l-.3.469h5.793l.129-.043.086-.085a.588.588 0 00.128-.17l1.588-2.301c.773-1.15 1.588-2.259 2.36-3.41.215-.297.386-.553.601-.851l.3-.426h8.626v6.945l.086.085.043.043.085.085h4.635l.129-.043.171-.213V10.865c.043 0 .043-.085 0-.128zm-5.149 4.346v4.943h-12.659l-.129-.085v-.043c0-.085-.043-.213-.043-.298v-4.091c0-.213.043-.34.172-.426h12.659zM50.08 10.396c-.816-.256-1.589-.17-2.275.213-.172.085-.3.213-.472.341-.215.17-.386.34-.601.511-.172.128-.3.256-.472.384l-1.159.937c-.214.17-.429.384-.643.554l-.859.725a11.1 11.1 0 00-.772.681c-.172.17-.343.299-.515.47-.215.17-.386.34-.6.51l-.773.64-1.717 1.448c-.343.299-.686.554-.987.852-.171.17-.343.299-.558.47-.214.17-.386.34-.6.51a2.255 2.255 0 01-.601.512c-.172.17-.386.298-.558.468a5.66 5.66 0 01-.558.47c-.172.17-.386.34-.558.468-.257.213-.472.426-.73.597l-2.574 2.215V10.524h-4.892l-.215.085-.042.213c0 .043 0 .128-.043.17v18.706c0 .512.171.938.472 1.364.214.298.515.511.9.682.344.128.773.298 1.245.298h.13a2.761 2.761 0 001.63-.64c.343-.255.643-.553.987-.809l7.938-6.775c.43-.34.816-.724 1.245-1.065l.6-.511c.344-.256.644-.554.988-.81.214-.17.386-.34.6-.511.172-.17.344-.299.558-.469.172-.17.387-.298.558-.469.215-.17.386-.298.558-.468.215-.213.472-.384.687-.597l.429-.34c.257-.214.515-.427.73-.64v13.465l.257.042-.258.086v.042l.172.17h4.935V12.74c.129-1.364-.773-2.088-1.588-2.344zm105.735.298l-.172-.17h-.086c-.472-.042-4.334-.042-4.677.043l-.172.042-.043.299v8.01h-13.26v-7.84c0-.128.043-.298-.129-.469l-.085-.085h-4.721l-.257.043-.043.213v20.538c0 .085.043.127.086.17l.128.128h4.978V23.35c1.674-.043 11.63 0 13.26 0v7.712c0 .128-.043.298.086.469l.086.085h.129c.257 0 .987.043 1.802.043 1.244 0 2.661 0 2.832-.043l.172-.043.043-.17.043-20.453v-.255zm-53.77 19.943l-.557-.98c-.258-.469-.515-.895-.773-1.363l-.515-.895-.515-.895-.643-1.15-.644-1.151-.515-.895c-.172-.298-.343-.639-.515-.937-.215-.426-.472-.81-.686-1.236-.3-.511-.601-1.023-.859-1.534-.257-.469-.515-.895-.772-1.363l-.601-1.066c-.343-.596-.687-1.15-.987-1.747l-1.888-3.323a3.335 3.335 0 00-1.03-1.15c-.558-.384-1.202-.597-2.103-.682-.128 0-.3 0-.429.042-.043 0-.129 0-.172.043-.815.085-1.544.426-2.188.98-.3.298-.515.639-.73.98-.042.085-.128.213-.171.298-.43.682-.816 1.321-1.245 2.003l-7.81 12.698c-.73 1.15-1.416 2.3-2.145 3.45-.086.129-.172.256-.215.384l-.386.64h5.836l2.575-4.176c1.287-.043 11.972-.043 13.217 0l2.317 4.176h.129c.343 0 1.158.042 2.017.042 1.416 0 2.961-.042 3.175-.085l.172-.043.043-.34-.043-.086c-.129-.213-.215-.426-.344-.639zm-10.084-7.585h-7.853l4.077-6.647 3.776 6.647zm95.094 8.224c-.129-.213-.215-.426-.343-.64l-.43-.724c-.3-.554-.6-1.065-.901-1.619l-.515-.895-.515-.895-.643-1.15-.644-1.15c-.172-.299-.343-.64-.515-.938l-.515-.895c-.257-.426-.515-.894-.772-1.32-.258-.47-.558-.938-.816-1.45a18.521 18.521 0 01-.686-1.278 30.267 30.267 0 01-.644-1.193c-.343-.596-.687-1.15-.987-1.747l-.644-1.15c-.429-.724-.815-1.449-1.244-2.173a3.342 3.342 0 00-1.03-1.15c-.558-.384-1.202-.597-2.103-.682-.128 0-.3 0-.429.042-.043 0-.129 0-.171.043-.816.085-1.545.426-2.189.98-.3.298-.515.639-.73.98-.042.085-.128.213-.171.298-.429.682-.815 1.321-1.245 2.003l-7.81 12.697c-.729 1.151-1.416 2.301-2.145 3.452a4.6 4.6 0 00-.258.469l-.343.553h5.836l2.575-4.175c1.287-.043 11.972-.043 13.217 0l2.317 4.175h.129c.343 0 1.158.043 2.017.043 1.416 0 3.004-.043 3.175-.085l.172-.043.043-.34-.043-.043zm-10.428-8.224h-7.853l4.077-6.647 3.776 6.647zm-108.31 7.925V15.041h9.14v-4.389H53.898l-.086.086c-.085.085-.085.085-.085 4.09v.256h9.355V31.53l.042.17h5.021l.086-.085c.172-.213.129-.426.086-.51.043-.086 0-.129 0-.129zM16.907 10.44l-9.44 9.033c-.43.426-.687.98-.687 1.619 0 .597.257 1.193.687 1.62l9.355 8.99.085.085h7.424L13.217 21.135 24.33 10.481h-7.424v-.042zm-11.757.085H0V31.66h5.15V10.525z" fill="#2D2727"/></g><defs><clipPath id="asclip0_604_101209"><path fill="#fff" d="M0 0h211v32H0z"/></clipPath></defs></svg><svg fill="none" viewBox="0 0 24 24" id="css--menu" xmlns="http://www.w3.org/2000/svg"><path fill="#2D2727" d="M2 2h20v4H2zm0 8h20v4H2zm0 8h20v4H2z"/></svg><svg fill="none" viewBox="0 0 24 24" id="css--menu_close" xmlns="http://www.w3.org/2000/svg"><g clip-path="url(#auclip0_719_26585)" fill="#E60000"><path d="M4.197 1.368l18.435 18.435-2.828 2.828L1.369 4.196z"/><path d="M1.334 19.837L19.837 1.334l2.828 2.829L4.162 22.665z"/></g><defs><clipPath id="auclip0_719_26585"><path fill="#fff" d="M0 0h24v24H0z"/></clipPath></defs></svg><svg fill="none" viewBox="0 0 48 16" id="css--next-arrow" xmlns="http://www.w3.org/2000/svg"><path d="M46.707 8.707a1 1 0 000-1.414L40.343.929a1 1 0 10-1.414 1.414L44.586 8l-5.657 5.657a1 1 0 001.414 1.414l6.364-6.364zM2 9h44V7H2v2z" fill="#fff"/></svg><svg fill="none" viewBox="0 0 32 32" id="css--ok" xmlns="http://www.w3.org/2000/svg"><g clip-path="url(#awclip0_626_101248)"><path d="M0 15.36C0 8.118 0 4.5 2.24 2.24S8.109 0 15.36 0h1.28c7.242 0 10.86 0 13.12 2.24S32 8.109 32 15.36v1.28c0 7.242 0 10.86-2.24 13.12S23.891 32 16.64 32h-1.28C8.118 32 4.5 32 2.24 29.76S0 23.891 0 16.64v-1.28z" fill="#000"/><path d="M16.032 16.316a4.854 4.854 0 004.845-4.846 4.854 4.854 0 00-4.845-4.845c-2.699 0-4.875 2.176-4.875 4.845 0 2.67 2.176 4.845 4.875 4.845zm0-6.848c1.102 0 2.001.9 2.001 2.002a2.005 2.005 0 01-2.002 2.002c-1.102 0-2.001-.9-2.001-2.002-.03-1.102.87-2.002 2.002-2.002zm1.943 10.822a9.173 9.173 0 002.814-1.16c.667-.406.87-1.305.435-1.973a1.413 1.413 0 00-1.973-.435 6.16 6.16 0 01-6.528 0 1.445 1.445 0 00-1.972.435c-.378.668-.175 1.538.493 1.944a9.12 9.12 0 002.814 1.16l-2.698 2.7a1.418 1.418 0 000 2.001c.29.29.638.406 1.015.406.377 0 .726-.145 1.016-.406l2.669-2.67 2.67 2.67c.55.551 1.45.551 2.001 0a1.419 1.419 0 000-2.002l-2.756-2.67z" fill="#fff"/><path d="M16.032 16.316a4.854 4.854 0 004.845-4.846 4.854 4.854 0 00-4.845-4.845c-2.699 0-4.875 2.176-4.875 4.845 0 2.67 2.176 4.845 4.875 4.845zm0-6.848c1.102 0 2.001.9 2.001 2.002a2.005 2.005 0 01-2.002 2.002c-1.102 0-2.001-.9-2.001-2.002-.03-1.102.87-2.002 2.002-2.002zm1.943 10.822a9.17 9.17 0 002.814-1.16c.667-.406.87-1.305.435-1.973a1.413 1.413 0 00-1.973-.435 6.16 6.16 0 01-6.528 0 1.445 1.445 0 00-1.972.435c-.378.668-.175 1.538.493 1.944a9.12 9.12 0 002.814 1.16l-2.698 2.7a1.419 1.419 0 000 2.001c.29.29.638.406 1.015.406.377 0 .726-.145 1.016-.406l2.669-2.67 2.67 2.67c.55.551 1.45.551 2.001 0a1.419 1.419 0 000-2.002l-2.756-2.67z" fill="#fff"/></g><defs><clipPath id="awclip0_626_101248"><path fill="#fff" d="M0 0h32v32H0z"/></clipPath></defs></svg><svg fill="none" viewBox="0 0 16 17" id="css--phone" xmlns="http://www.w3.org/2000/svg"><path d="M2.647 1.5h3.294l1.647 4.118L5.53 6.853a9.059 9.059 0 004.118 4.118l1.235-2.06L15 10.56v3.294a1.647 1.647 0 01-1.647 1.647A13.177 13.177 0 011 3.147 1.647 1.647 0 012.647 1.5" stroke="#2D2727" stroke-width="1.5" stroke-linecap="round" stroke-linejoin="round"/></svg><svg fill="none" viewBox="0 0 24 24" id="css--search" xmlns="http://www.w3.org/2000/svg"><circle cx="11" cy="11" r="7" stroke="#2D2727" stroke-width="2"/><rect x="14" y="18" width="2" height="6" rx="1" transform="rotate(-30 14 18)" fill="#2D2727"/></svg><svg fill="none" viewBox="0 0 16 21" id="css--search-grey" xmlns="http://www.w3.org/2000/svg"><circle cx="8" cy="8" r="7" stroke="#2D2727" stroke-opacity=".7" stroke-width="2"/><rect x="11" y="15" width="2" height="6" rx="1" transform="rotate(-30 11 15)" fill="#2D2727" fill-opacity=".7"/></svg><svg fill="none" viewBox="0 0 24 24" id="css--skype" xmlns="http://www.w3.org/2000/svg"><path d="M12 3a9 9 0 018.604 11.65 4.5 4.5 0 01-5.953 5.953A9 9 0 013.398 9.35 4.5 4.5 0 019.35 3.396 8.987 8.987 0 0112 3v0z" stroke="#2D2727" stroke-opacity=".7" stroke-width="1.5" stroke-linecap="round" stroke-linejoin="round"/><path d="M8 14.5c.5 2 2.358 2.5 4 2.5 2.905 0 4-1.187 4-2.5 0-1.503-1.927-2.5-4-2.5s-4-.997-4-2.5C8 8.187 9.095 7 12 7c1.642 0 3.5.5 4 2.5" stroke="#2D2727" stroke-opacity=".7" stroke-width="1.5" stroke-linecap="round" stroke-linejoin="round"/></svg><svg fill="none" viewBox="0 0 34 34" id="css--skype-main" xmlns="http://www.w3.org/2000/svg"><path d="M16.998 4.25a12.75 12.75 0 0112.188 16.504 6.375 6.375 0 01-8.434 8.434A12.75 12.75 0 014.811 13.246a6.375 6.375 0 018.433-8.435 12.732 12.732 0 013.754-.56v0z" stroke="currentColor" stroke-width="1.5" stroke-linecap="round" stroke-linejoin="round"/><path d="M11.334 20.542c.708 2.833 3.34 3.542 5.667 3.542 4.115 0 5.666-1.682 5.666-3.542 0-2.13-2.73-3.542-5.666-3.542-2.937 0-5.667-1.412-5.667-3.541 0-1.86 1.551-3.542 5.667-3.542 2.326 0 4.958.708 5.666 3.542" stroke="currentColor" stroke-width="1.5" stroke-linecap="round" stroke-linejoin="round"/></svg><svg fill="none" viewBox="0 0 24 24" id="css--telegram" xmlns="http://www.w3.org/2000/svg"><path d="M15 10l-4 4 6 6 4-16-18 7 4 2 2 6 3-4" stroke="#2D2727" stroke-opacity=".7" stroke-width="1.5" stroke-linecap="round" stroke-linejoin="round"/></svg><svg fill="none" viewBox="0 0 34 34" id="css--telegram-main" xmlns="http://www.w3.org/2000/svg"><path d="M21.25 14.167l-5.667 5.667 8.5 8.5L29.75 5.667l-25.5 9.917 5.667 2.833 2.833 8.5L17 21.25" stroke="currentColor" stroke-width="1.5" stroke-linecap="round" stroke-linejoin="round"/></svg><svg fill="none" viewBox="0 0 24 24" id="css--trash" xmlns="http://www.w3.org/2000/svg"><path d="M21 5.98c-3.33-.33-6.68-.5-10.02-.5-1.98 0-3.96.1-5.94.3L3 5.98m5.5-1.01l.22-1.31C8.88 2.71 9 2 10.69 2h2.62c1.69 0 1.82.75 1.97 1.67l.22 1.3m3.35 4.17l-.65 10.07C18.09 20.78 18 22 15.21 22H8.79C6 22 5.91 20.78 5.8 19.21L5.15 9.14m5.18 7.36h3.33m-4.16-4h5" stroke="#2D2727" stroke-width="2" stroke-linecap="round" stroke-linejoin="round"/></svg><svg fill="none" viewBox="0 0 16 16" id="css--user" xmlns="http://www.w3.org/2000/svg"><path d="M8 7.333A2.667 2.667 0 108 2a2.667 2.667 0 000 5.333zM4 14v-1.333A2.667 2.667 0 016.667 10h2.666A2.667 2.667 0 0112 12.667V14" stroke="#2d2727" stroke-width="1.5" stroke-linecap="round" stroke-linejoin="round"/></svg><svg fill="none" viewBox="0 0 24 24" id="css--viber" xmlns="http://www.w3.org/2000/svg"><path fill-rule="evenodd" clip-rule="evenodd" d="M18.967 4.893c-.474-.444-2.377-1.86-6.622-1.879 0 0-5.005-.31-7.446 1.982-1.356 1.39-1.834 3.427-1.888 5.952-.006.276-.012.578-.01.9 0 2.618.383 6.493 4.349 7.635h.005v1.957s-.03.794.483.952c.513.164.848-.225 1.288-.736.088-.103.18-.21.28-.32.325-.354.77-.877 1.104-1.276 3.048.261 5.39-.34 5.65-.424a4.23 4.23 0 01.235-.066c.989-.258 3.91-1.023 4.426-5.324.576-4.881-.292-7.963-1.854-9.353zm.527 8.993c-.43 3.554-2.756 4.11-3.599 4.311-.094.023-.17.04-.222.058-.222.074-2.278.597-4.867.424l-2.8 3.107L8 18.206l-.02-.005c-3.715-1.056-3.64-4.981-3.6-7.108l.001-.086c.045-2.106.43-3.836 1.578-4.995C8.02 4.1 12.275 4.385 12.275 4.385c3.59.014 5.31 1.124 5.71 1.494 1.327 1.158 2.002 3.94 1.51 8.007zm-3.244.592s-.572-.488-.848-.695c-.261-.197-.68-.463-.913-.597-.418-.236-.848-.089-1.025.148l-.37.473c-.188.242-.478.198-.553.183-.542-.138-1.118-.473-1.71-1.045-.597-.577-.962-1.179-1.09-1.805l-.01-.04a.725.725 0 01.114-.551l.02-.016c.07-.066.158-.136.25-.209.228-.181.476-.38.519-.57.157-.4-.409-1.178-.637-1.491a3.232 3.232 0 01-.078-.11s-.573-.756-.775-.904c-.216-.182-.557-.286-.902-.073l-.02.015c-.986.665-1.34 1.05-1.242 1.617l.049.232c.498 1.572 1.465 3.249 2.9 4.743 1.42 1.475 2.958 2.357 4.471 2.968.395.133.804.02 1.223-.34l.005-.005c.321-.3.578-.62.765-.966v-.005c.192-.38.128-.725-.143-.957zm-2.47-3.555a.118.118 0 00.113.108v.005a.116.116 0 00.108-.123c-.02-.469-.153-.829-.39-1.08-.236-.251-.576-.39-1.02-.414-.064-.005-.113.044-.118.108 0 .065.044.119.108.123.385.026.675.139.873.346.197.207.306.518.325.927zm1.232.493a.115.115 0 01-.113-.118c.02-.784-.212-1.445-.68-1.968a2.429 2.429 0 00-.844-.611 3.293 3.293 0 00-1.129-.266.112.112 0 01-.103-.123.116.116 0 01.123-.11c.902.07 1.617.39 2.125.957.508.568.76 1.288.74 2.13a.119.119 0 01-.119.109zm1.036.35c0 .064.049.114.113.114.064-.005.113-.055.113-.114-.005-.72-.113-1.375-.325-1.943a4.122 4.122 0 00-.952-1.493c-.833-.834-1.883-1.258-3.126-1.268a.112.112 0 00-.113.114c0 .064.05.118.113.118.592 0 1.14.103 1.632.305.489.203.942.504 1.336.898.395.4.696.873.898 1.41.203.543.306 1.17.31 1.859z" fill="#2D2727" fill-opacity=".7"/></svg><svg fill="none" viewBox="0 0 34 34" id="css--viber-main" xmlns="http://www.w3.org/2000/svg"><path fill-rule="evenodd" clip-rule="evenodd" d="M26.87 6.931c-.672-.628-3.367-2.633-9.382-2.66 0 0-7.09-.442-10.548 2.807-1.92 1.97-2.598 4.855-2.675 8.431-.008.391-.016.82-.015 1.275.002 3.709.545 9.199 6.162 10.817h.007v2.773s-.042 1.124.684 1.348c.727.233 1.202-.32 1.825-1.043.125-.145.256-.297.397-.452a61.366 61.366 0 001.564-1.809c4.318.37 7.635-.482 8.006-.6a5.06 5.06 0 01.33-.093c1.402-.367 5.54-1.45 6.271-7.543.817-6.915-.412-11.28-2.626-13.25zm.747 12.741c-.61 5.034-3.905 5.822-5.099 6.107a4.45 4.45 0 00-.314.082c-.315.105-3.228.845-6.895.601l-3.968 4.4-.007-5.07-.028-.007c-5.264-1.495-5.159-7.057-5.102-10.07l.002-.122c.064-2.983.608-5.434 2.236-7.076 2.92-2.71 8.948-2.305 8.948-2.305 5.086.02 7.523 1.593 8.09 2.116 1.879 1.642 2.835 5.581 2.137 11.344zm-4.597.84s-.81-.693-1.2-.986a14.79 14.79 0 00-1.294-.845c-.593-.335-1.2-.126-1.452.21l-.524.67c-.266.342-.678.28-.783.258-.768-.195-1.585-.67-2.424-1.48-.845-.818-1.362-1.67-1.543-2.557l-.014-.056c-.05-.363.014-.53.16-.782l.028-.022c.1-.093.225-.193.354-.296.324-.257.676-.537.736-.807.223-.567-.578-1.67-.901-2.113a4.699 4.699 0 01-.112-.157s-.81-1.069-1.097-1.279c-.306-.258-.789-.405-1.278-.104l-.027.021c-1.397.943-1.9 1.488-1.76 2.29l.069.33c.706 2.227 2.075 4.602 4.107 6.72 2.012 2.088 4.191 3.338 6.336 4.204.559.189 1.138.028 1.732-.481l.007-.007c.454-.427.818-.88 1.083-1.37v-.006c.273-.539.181-1.028-.203-1.356zm-3.5-5.037a.167.167 0 00.162.153v.007a.165.165 0 00.153-.174c-.027-.665-.217-1.175-.552-1.53-.335-.356-.817-.552-1.446-.587-.09-.007-.16.062-.167.153 0 .091.062.168.153.175.545.035.957.196 1.237.489.28.294.433.733.46 1.314zm1.747.697a.163.163 0 01-.16-.167c.027-1.11-.3-2.046-.965-2.787a3.44 3.44 0 00-1.194-.866c-.461-.21-1.006-.336-1.6-.377a.159.159 0 01-.146-.175.165.165 0 01.174-.154c1.278.098 2.291.552 3.01 1.355.72.804 1.077 1.824 1.05 3.018a.169.169 0 01-.169.153zm1.468.497c0 .09.069.16.16.16.091-.006.16-.076.16-.16-.007-1.02-.16-1.949-.46-2.753a5.837 5.837 0 00-1.348-2.116c-1.18-1.18-2.669-1.782-4.429-1.796-.091 0-.16.07-.16.162 0 .09.069.167.16.167.838 0 1.614.147 2.312.433a5.824 5.824 0 011.893 1.272 5.6 5.6 0 011.27 1.997c.288.77.435 1.656.442 2.634z" fill="currentColor"/></svg><svg fill="none" viewBox="0 0 32 32" id="css--vk" xmlns="http://www.w3.org/2000/svg"><path d="M0 15.36C0 8.12 0 4.499 2.25 2.25 4.498 0 8.12 0 15.36 0h1.28c7.24 0 10.861 0 13.11 2.25C32 4.498 32 8.12 32 15.36v1.28c0 7.24 0 10.861-2.25 13.11C27.502 32 23.88 32 16.64 32h-1.28c-7.24 0-10.861 0-13.11-2.25C0 27.502 0 23.88 0 16.64v-1.28z" fill="#000"/><path d="M17.027 23.054c-7.293 0-11.453-5-11.627-13.32h3.654c.12 6.107 2.813 8.694 4.946 9.227V9.734h3.44v5.267c2.107-.227 4.32-2.627 5.067-5.267h3.44c-.573 3.254-2.973 5.654-4.68 6.64 1.707.8 4.44 2.894 5.48 6.68H22.96c-.813-2.533-2.84-4.493-5.52-4.76v4.76h-.413z" fill="#fff"/></svg><svg fill="none" viewBox="0 0 24 24" id="css--whatsapp" xmlns="http://www.w3.org/2000/svg"><path d="M3 21l1.65-3.8a9 9 0 113.4 2.9L3 21" stroke="#2D2727" stroke-opacity=".7" stroke-width="1.5" stroke-linecap="round" stroke-linejoin="round"/><path d="M9 10a.5.5 0 001 0V9a.5.5 0 10-1 0v1zm0 0a5 5 0 005 5h1a.5.5 0 000-1h-1a.5.5 0 000 1" stroke="#2D2727" stroke-opacity=".7" stroke-width="1.5" stroke-linecap="round" stroke-linejoin="round"/></svg><svg fill="none" viewBox="0 0 34 34" id="css--whatsapp-main" xmlns="http://www.w3.org/2000/svg"><path d="M4.25 29.75l2.338-5.383a12.75 12.75 0 114.816 4.108L4.25 29.75" stroke="currentColor" stroke-width="1.5" stroke-linecap="round" stroke-linejoin="round"/><path d="M12.75 14.167a.708.708 0 101.417 0V12.75a.708.708 0 00-1.417 0v1.417zm0 0a7.083 7.083 0 007.083 7.083h1.417a.709.709 0 100-1.416h-1.417a.708.708 0 100 1.416" stroke="currentColor" stroke-width="1.5" stroke-linecap="round" stroke-linejoin="round"/></svg><svg fill="none" viewBox="0 0 24 24" id="css--write" xmlns="http://www.w3.org/2000/svg"><path d="M11 21h10" stroke="currentColor" stroke-width="2" stroke-linecap="round"/><path clip-rule="evenodd" d="M16.884 4.824a3.332 3.332 0 00-4.672.281L4.1 14.18c-2.091 2.337-.558 5.566-.558 5.566s3.452 1.082 5.512-1.222l8.115-9.074a3.256 3.256 0 00-.285-4.626z" stroke="currentColor" stroke-width="2" stroke-linecap="round" stroke-linejoin="round"/><path d="M10.36 7.293l4.566 3.987" stroke="currentColor" stroke-width="2" stroke-linecap="round" stroke-linejoin="round"/></svg><svg fill="none" viewBox="0 0 16 16" id="sprite--arrow-right" xmlns="http://www.w3.org/2000/svg"><path d="M6 2.666l5 5-5 5" stroke="#2D2727" stroke-width="2" stroke-linecap="round" stroke-linejoin="round"/></svg><svg fill="none" viewBox="0 0 14 13" id="sprite--car-forward" xmlns="http://www.w3.org/2000/svg"><path fill-rule="evenodd" clip-rule="evenodd" d="M4.108 0a2 2 0 00-1.897 1.368L1.148 4.556A2 2 0 00.067 6.333v2.934c0 .683.343 1.287.867 1.648v.785a1.3 1.3 0 102.6 0v-.433h6.933v.433a1.3 1.3 0 102.6 0v-.785a2 2 0 00.867-1.648V6.333a2 2 0 00-1.082-1.777L11.79 1.368A2 2 0 009.892 0H4.108zM4.4 1.733h5.2l.867 2.6H3.534l.866-2.6zm0 6.067a.867.867 0 11-1.733 0 .867.867 0 011.733 0zm6.933 0a.867.867 0 11-1.733 0 .867.867 0 011.733 0z" fill="#A7A9B9"/></svg><svg fill="none" viewBox="0 0 17 13" id="sprite--checked-red" xmlns="http://www.w3.org/2000/svg"><path d="M.457 7.677A1.561 1.561 0 112.665 5.47l4.416 4.415a1.561 1.561 0 11-2.208 2.208L.457 7.677z" fill="#E60000"/><path d="M16.06 3.114A1.561 1.561 0 1013.852.906l-8.979 8.98a1.561 1.561 0 102.208 2.207l8.979-8.979z" fill="#E60000"/></svg><svg fill="none" viewBox="0 0 16 16" id="sprite--discount" xmlns="http://www.w3.org/2000/svg"><path fill-rule="evenodd" clip-rule="evenodd" d="M6.878.465L5.673 1.669a.52.52 0 01-.368.153H3.41c-.877 0-1.587.71-1.587 1.587v1.896a.52.52 0 01-.153.368L.465 6.878c-.62.62-.62 1.624 0 2.244l1.204 1.204a.52.52 0 01.153.368v1.897c0 .877.71 1.587 1.587 1.587h1.896a.52.52 0 01.368.153l1.205 1.204c.62.62 1.624.62 2.244 0l1.204-1.204a.52.52 0 01.368-.153h1.897c.877 0 1.587-.71 1.587-1.587v-1.896a.52.52 0 01.153-.369l1.204-1.204c.62-.62.62-1.624 0-2.244l-1.204-1.205a.52.52 0 01-.153-.368V3.41c0-.877-.71-1.587-1.587-1.587h-1.896a.52.52 0 01-.369-.153L9.122.465a1.587 1.587 0 00-2.244 0z" fill="#E60000"/><path stroke="#fff" stroke-width="1.5" stroke-linecap="round" d="M5 10.939L10.939 5"/><circle cx="6" cy="5" r="1" fill="#fff"/><circle cx="10" cy="11" r="1" fill="#fff"/></svg><svg fill="none" viewBox="0 0 16 16" id="sprite--eye_open" xmlns="http://www.w3.org/2000/svg"><path d="M7.767 4.726c.078-.009.156-.012.233-.012 1.473 0 2.667 1.222 2.667 2.786 0 1.538-1.194 2.786-2.667 2.786-1.497 0-2.666-1.248-2.666-2.786 0-.081.002-.162.01-.244.259.13.559.244.878.244C7.203 7.5 8 6.667 8 5.643c0-.334-.108-.647-.233-.917zm5.584-1.387c1.3 1.26 2.17 2.742 2.58 3.804a.96.96 0 010 .714c-.41 1.036-1.28 2.519-2.58 3.804C12.042 12.932 10.245 14 8 14s-4.042-1.068-5.35-2.339C1.35 10.376.48 8.893.068 7.857a.964.964 0 010-.714C.482 6.081 1.351 4.598 2.651 3.34 3.959 2.069 5.756 1 8 1s4.041 1.069 5.35 2.339zM8 3.32c-2.21 0-4 1.872-4 4.179 0 2.307 1.79 4.179 4 4.179 2.208 0 4-1.872 4-4.179 0-2.307-1.792-4.179-4-4.179z" fill="#A7A9B9"/></svg><svg fill="none" viewBox="0 0 49 16" id="sprite--next-arrow" xmlns="http://www.w3.org/2000/svg"><path d="M47.207 8.707a1 1 0 000-1.414L40.843.929a1 1 0 10-1.414 1.414L45.086 8l-5.657 5.657a1 1 0 001.414 1.414l6.364-6.364zM2.5 9h44V7h-44v2z" fill="#2D2727"/></svg><svg fill="none" viewBox="0 0 16 16" id="sprite--pin" xmlns="http://www.w3.org/2000/svg"><path fill-rule="evenodd" clip-rule="evenodd" d="M4.248 2.877a5.333 5.333 0 019.085 3.737c0 3.653-4.666 7.72-4.9 7.893a.667.667 0 01-.866 0h-.001c-.216-.187-4.9-4.246-4.9-7.893a5.333 5.333 0 011.582-3.737zM8 8.5a2 2 0 100-4 2 2 0 000 4z" fill="#2D2727"/></svg><svg fill="none" viewBox="0 0 16 16" id="sprite--star" xmlns="http://www.w3.org/2000/svg"><g clip-path="url(#btclip0_243_90603)"><path d="M7.557.845a.5.5 0 01.886 0l2.182 4.164a.5.5 0 00.36.26l4.634.79a.5.5 0 01.274.842l-3.286 3.363a.5.5 0 00-.137.422l.682 4.651a.5.5 0 01-.717.52l-4.213-2.085a.5.5 0 00-.444 0l-4.213 2.086a.5.5 0 01-.717-.52l.682-4.652a.5.5 0 00-.137-.422L.107 6.9a.5.5 0 01.274-.842l4.635-.79a.5.5 0 00.359-.26L7.557.845z" fill="#F27229"/></g><defs><clipPath id="btclip0_243_90603"><path fill="#fff" d="M0 0h16v16H0z"/></clipPath></defs></svg><svg fill="none" viewBox="0 0 16 16" id="sprite--stile" xmlns="http://www.w3.org/2000/svg"><path d="M16 0H7.719L.46 6.907c-.613.604-.613 1.613 0 2.167l7.259 6.907H16L7.617 8.016 16 0z" fill="#E60000"/></svg></svg>