<svg width="46" height="14" fill="none" xmlns="http://www.w3.org/2000/svg"><g clip-path="url(#clip0_626_101178)"><path d="M20.347 14h-3.725l2.343-14h3.68l-2.298 14zm-6.78-14l-3.522 9.632-.405-2.078L8.4 1.26A1.567 1.567 0 006.647 0H.844l-.07.238c1.358.337 2.659.877 3.856 1.603L7.817 14h3.84l5.846-14h-3.962.026zm28.977 14h3.382l-2.95-14h-2.959a1.69 1.69 0 00-1.699 1.047L32.824 14h3.839l.766-2.078h4.684L42.544 14zm-4.05-4.958l1.937-5.283 1.092 5.283h-3.029zm-5.389-5.679l.529-3.011a10.733 10.733 0 00-3.31-.608c-1.832 0-6.164.793-6.164 4.632 0 3.618 5.098 3.662 5.098 5.564 0 1.902-4.57 1.559-6.076.361l-.546 3.144c1.317.545 2.731.815 4.156.792 2.518 0 6.305-1.285 6.305-4.79 0-3.636-5.142-3.98-5.142-5.564 0-1.585 3.574-1.374 5.15-.52z" fill="#F1F1F3"/><path d="M9.64 7.554L8.4 1.258a1.567 1.567 0 00-1.753-1.26H.844l-.07.239A14.343 14.343 0 016.24 2.949a10.918 10.918 0 013.4 4.605z" fill="#fff"/></g><defs><clipPath id="clip0_626_101178"><path fill="#fff" transform="translate(.773)" d="M0 0h45.152v14H0z"/></clipPath></defs></svg>