<svg width="48" height="24" fill="none" xmlns="http://www.w3.org/2000/svg"><path fill-rule="evenodd" clip-rule="evenodd" d="M13.665 5v.006c-.006 0-1.836-.006-2.324 1.74-.447 1.6-1.708 6.018-1.743 6.14H9.25S7.96 8.37 7.507 6.74C7.019 4.994 5.183 5 5.183 5H1v13.279h4.183v-7.886h.349l2.44 7.886h2.904l2.44-7.88h.349v7.88h4.183V5h-4.183zm15.279 0s-1.226.11-1.8 1.392l-2.964 6.494h-.348V5h-4.183v13.279h3.95s1.284-.116 1.86-1.392l2.904-6.494h.349v7.886h4.183V5h-3.95zm5.81 6.031v7.248h4.183v-4.232h4.531a4.525 4.525 0 004.27-3.016H34.755z" fill="#A7A9B9" fill-opacity=".5"/><path fill-rule="evenodd" clip-rule="evenodd" d="M43.468 5h-9.301a6.675 6.675 0 006.57 5.45h7.17c.064-.3.093-.608.093-.927C48 7.023 45.972 5 43.468 5z" fill="#A7A9B9"/></svg>