<svg width="37" height="28" fill="none" xmlns="http://www.w3.org/2000/svg"><g clip-path="url(#clip0_626_101181)"><path d="M7.445 27.936v-1.824a1.085 1.085 0 00-1.167-1.176 1.213 1.213 0 00-1.022.52 1.076 1.076 0 00-.984-.53.993.993 0 00-.857.438v-.4H2.74v2.972h.693v-1.642a.665.665 0 01.711-.775.64.64 0 01.647.775v1.642h.593v-1.642a.684.684 0 01.711-.775.64.64 0 01.648.775v1.642h.702zm9.564-2.973h-1.04v-.912h-.683v.912h-.547v.593h.547v1.358A.911.911 0 0016.298 28a1.72 1.72 0 00.811-.218l-.182-.557a.995.995 0 01-.556.155.41.41 0 01-.429-.492v-1.331h1.049v-.593h.018zm5.47-.064a.911.911 0 00-.765.438v-.374h-.639v2.973h.648v-1.669a.638.638 0 01.61-.811c.136.006.27.027.402.063l.182-.62a2.019 2.019 0 00-.428 0h-.01zm-8.27.31c-.36-.222-.78-.33-1.203-.31a1.05 1.05 0 00-1.23.958.912.912 0 001.011.912h.31c.338.063.52.155.52.31 0 .154-.246.373-.675.373a1.687 1.687 0 01-.984-.31l-.32.484c.371.252.81.382 1.259.373.857 0 1.35-.4 1.35-.957a.966.966 0 00-1.013-.912h-.31c-.273 0-.492-.09-.492-.282 0-.192.219-.338.556-.338.318.016.63.1.912.246l.31-.547zm17.16-.31a.911.911 0 00-.766.438v-.374h-.647v2.973h.647v-1.669a.638.638 0 01.62-.811c.136.006.27.027.401.063l.183-.62a2.019 2.019 0 00-.429 0h-.009zm-8.206 1.55A1.487 1.487 0 0024.732 28a1.52 1.52 0 001.048-.337l-.31-.529a1.24 1.24 0 01-.766.283.914.914 0 01-.912-.957.91.91 0 01.912-.958c.28.005.55.105.766.283l.31-.529c-.295-.24-.67-.36-1.049-.337a1.485 1.485 0 00-1.595 1.531h.027zm5.963 0v-1.486h-.675v.374a1.112 1.112 0 00-.911-.438 1.55 1.55 0 000 3.1 1.03 1.03 0 00.912-.437v.374h.647v-1.487h.027zm-2.37 0a.912.912 0 011.823 0 .925.925 0 11-1.85 0h.027zm-7.723-1.55a1.55 1.55 0 000 3.1c.436.011.861-.13 1.204-.4l-.31-.466a1.455 1.455 0 01-.857.31.83.83 0 01-.912-.71h2.179v-.256a1.368 1.368 0 00-1.322-1.578h.018zm0 .557a.72.72 0 01.739.71h-1.56a.784.784 0 01.803-.71h.018zm16.02.993v-2.662h-.62v1.55a1.112 1.112 0 00-.912-.438 1.55 1.55 0 000 3.1 1.03 1.03 0 00.912-.437v.374h.647v-1.487h-.027zm-2.371 0a.912.912 0 011.823 0 .92.92 0 11-1.841 0h.018zm-21.59 0v-1.486h-.657v.374a1.112 1.112 0 00-.912-.438 1.55 1.55 0 000 3.1 1.03 1.03 0 00.912-.437v.374h.647v-1.487h.01zm-2.398 0a.912.912 0 011.823 0 .92.92 0 01-1.841 0h.018z" fill="#fff"/><path d="M23.684 2.389H14v17.524h9.683V2.389z" fill="#A7A9B9"/><path d="M14.612 11.15a11.206 11.206 0 014.212-8.761A10.941 10.941 0 0012.004 0a11.15 11.15 0 000 22.302 10.94 10.94 0 006.83-2.39 11.158 11.158 0 01-4.222-8.761z" fill="#A7A9B9"/><path d="M36.759 11.15A11.105 11.105 0 0125.69 22.303a10.94 10.94 0 01-6.829-2.39 11.223 11.223 0 000-17.532A10.941 10.941 0 0125.691 0a11.123 11.123 0 0111.068 11.15z" fill="#F1F1F3"/></g><defs><clipPath id="clip0_626_101181"><path fill="#fff" transform="translate(.926)" d="M0 0h35.832v28H0z"/></clipPath></defs></svg>