<svg width="48" height="24" fill="none" xmlns="http://www.w3.org/2000/svg"><g clip-path="url(#clip0_243_97023)" fill="#A7A9B9"><path d="M20.574 19h-3.725l2.342-14h3.68l-2.297 14zm-6.78-14l-3.522 9.632-.405-2.078L8.625 6.26A1.567 1.567 0 006.873 5H1.07L1 5.237c1.36.337 2.66.877 3.857 1.603L8.044 19h3.839L17.73 5h-3.963.027zM42.77 19h3.381l-2.95-14h-2.958a1.69 1.69 0 00-1.7 1.047L33.05 19h3.84l.765-2.078h4.685L42.77 19zm-4.05-4.958l1.937-5.283 1.092 5.283h-3.03zm-5.389-5.679l.528-3.011a10.734 10.734 0 00-3.31-.608c-1.832 0-6.164.793-6.164 4.632 0 3.619 5.098 3.663 5.098 5.564 0 1.902-4.57 1.559-6.075.361l-.546 3.144c1.316.545 2.73.815 4.156.792 2.518 0 6.304-1.285 6.304-4.79 0-3.636-5.142-3.98-5.142-5.564 0-1.585 3.575-1.374 5.151-.52z"/><path d="M9.867 12.554L8.625 6.258a1.567 1.567 0 00-1.752-1.26H1.07l-.07.24A14.343 14.343 0 016.468 7.95a10.918 10.918 0 013.399 4.605z" fill-opacity=".5"/></g><defs><clipPath id="clip0_243_97023"><path fill="#fff" transform="translate(1 5)" d="M0 0h45.152v14H0z"/></clipPath></defs></svg>