<svg width="104" height="104" viewBox="0 0 104 104" fill="none" xmlns="http://www.w3.org/2000/svg">
                <path d="M96.0514 98.4293L7.42871 40.7109V98.4293H96.0514Z" stroke="white" stroke-width="2"
                    stroke-linejoin="round" />
                <path
                    d="M6.81919 39.9179C6.38136 40.2546 6.29931 40.8824 6.63594 41.3202C6.97257 41.7581 7.60039 41.8401 8.03823 41.5035L6.81919 39.9179ZM51.9061 5.94336L52.5455 5.17448C52.1831 4.87307 51.6594 4.86572 51.2886 5.15682L51.9061 5.94336ZM95.4328 41.4965C95.8668 41.8381 96.4955 41.7632 96.8371 41.3293C97.1787 40.8953 97.1039 40.2666 96.6699 39.925L95.4328 41.4965ZM18.4912 33.4668C18.929 33.1302 19.011 32.5024 18.6744 32.0645C18.3378 31.6267 17.71 31.5446 17.2721 31.8813L18.4912 33.4668ZM41.354 12.9568C40.9196 13.2979 40.844 13.9265 41.185 14.3609C41.5261 14.7953 42.1547 14.871 42.5891 14.5299L41.354 12.9568ZM60.6465 14.5122C61.0711 14.8654 61.7016 14.8074 62.0547 14.3827C62.4079 13.9581 62.3499 13.3276 61.9252 12.9745L60.6465 14.5122ZM85.9898 31.5172C85.5558 31.1756 84.9271 31.2504 84.5855 31.6844C84.2439 32.1183 84.3187 32.747 84.7527 33.0887L85.9898 31.5172ZM8.03823 41.5035L18.4912 33.4668L17.2721 31.8813L6.81919 39.9179L8.03823 41.5035ZM42.5891 14.5299L52.5237 6.7299L51.2886 5.15682L41.354 12.9568L42.5891 14.5299ZM51.2668 6.71224L60.6465 14.5122L61.9252 12.9745L52.5455 5.17448L51.2668 6.71224ZM84.7527 33.0887L95.4328 41.4965L96.6699 39.925L85.9898 31.5172L84.7527 33.0887Z"
                    fill="white" />
                <path d="M17.8809 47.5277V13.8965H85.3704V47.9821" stroke="#A7A9B9" stroke-width="2"
                    stroke-linejoin="round" stroke-dasharray="4 4" />
                <path d="M7.42908 98.4293H96.0518V40.7109L51.7404 69.5701" stroke="white" stroke-width="2"
                    stroke-linejoin="round" />
                <line x1="46.3566" y1="31.1152" x2="58.5996" y2="43.3583" stroke="#E60000" stroke-width="2"
                    stroke-linecap="round" />
                <line x1="45.9727" y1="43.3573" x2="58.2157" y2="31.1142" stroke="#E60000" stroke-width="2"
                    stroke-linecap="round" />
            </svg>
