<svg width="24" height="24" viewBox="0 0 24 24" fill="none" xmlns="http://www.w3.org/2000/svg">
								<path d="M4.12488 17.5544H4C2.34315 17.5544 1 16.2113 1 14.5544V12.4063C1 10.7494 2.34315 9.40625 4 9.40625H20C21.6569 9.40625 23 10.7494 23 12.4063V14.5544C23 16.2113 21.6569 17.5544 20 17.5544H19.8749" stroke="#504F55" stroke-width="2"></path>
								<path d="M8.14902 17.1468C8.14902 18.1695 7.31991 18.9986 6.29716 18.9986C5.27441 18.9986 4.44531 18.1695 4.44531 17.1468C4.44531 16.124 5.27441 15.2949 6.29716 15.2949C7.31991 15.2949 8.14902 16.124 8.14902 17.1468Z" stroke="#504F55" stroke-width="2"></path>
								<circle cx="17.7034" cy="17.1468" r="1.85185" stroke="#504F55" stroke-width="2"></circle>
								<line x1="8.32812" y1="17.3691" x2="15.6615" y2="17.3691" stroke="#504F55" stroke-width="2"></line>
								<path d="M4.67188 9.40647L5.20816 6.18878C5.36889 5.2244 6.20327 4.51758 7.18094 4.51758H13.3793C14.048 4.51758 14.6725 4.85178 15.0434 5.40818L17.7089 9.40647" stroke="#504F55" stroke-width="2"></path>
								<line x1="11.7812" y1="4.51758" x2="11.7812" y2="9.40647" stroke="#504F55" stroke-width="2"></line>
								<line x1="11.7812" y1="12.4805" x2="13.8553" y2="12.4805" stroke="#504F55" stroke-width="2" stroke-linecap="round"></line>
							</svg>