<svg width="48" height="48" viewBox="0 0 48 48" fill="none" xmlns="http://www.w3.org/2000/svg">
<path d="M8 35.1107H3.5C2.67157 35.1107 2 34.4392 2 33.6107V20.3145C2 19.486 2.67157 18.8145 3.5 18.8145H44.5C45.3284 18.8145 46 19.486 46 20.3145V33.6107C46 34.4392 45.3284 35.1107 44.5 35.1107H39.5" stroke="#2D2727" stroke-width="2"/>
<path d="M17.298 34.2975C17.298 36.8952 15.1921 39.0012 12.5943 39.0012C9.99654 39.0012 7.89062 36.8952 7.89062 34.2975C7.89062 31.6997 9.99654 29.5938 12.5943 29.5938C15.1921 29.5938 17.298 31.6997 17.298 34.2975Z" stroke="#2D2727" stroke-width="2"/>
<path d="M40.1105 34.2975C40.1105 36.8952 38.0046 39.0012 35.4068 39.0012C32.809 39.0012 30.7031 36.8952 30.7031 34.2975C30.7031 31.6997 32.809 29.5938 35.4068 29.5938C38.0046 29.5938 40.1105 31.6997 40.1105 34.2975Z" stroke="#2D2727" stroke-width="2"/>
<line x1="16.6641" y1="35.7402" x2="31.3307" y2="35.7402" stroke="#2D2727" stroke-width="2"/>
<path d="M9.33594 18.8149L10.8263 9.87271C10.9067 9.39052 11.3239 9.03711 11.8127 9.03711H28.3563C28.6907 9.03711 29.0029 9.20421 29.1884 9.48241L35.41 18.8149" stroke="#2D2727" stroke-width="2"/>
<line x1="22.5547" y1="9.03711" x2="22.5547" y2="18.8149" stroke="#2D2727" stroke-width="2"/>
<line x1="22.0547" y1="26.4629" x2="29.2028" y2="26.4629" stroke="#2D2727" stroke-linecap="round"/>
</svg>
