<svg width="80" height="80" viewBox="0 0 80 80" fill="none" xmlns="http://www.w3.org/2000/svg">
<path d="M70 19.9323C58.9 18.8323 47.7333 18.2656 36.6 18.2656C30 18.2656 23.4 18.599 16.8 19.2656L10 19.9323" stroke="#2D2727" stroke-width="2" stroke-linecap="round" stroke-linejoin="round"/>
<path d="M28.3301 16.566L29.0634 12.1993C29.5967 9.03268 29.9967 6.66602 35.6301 6.66602H44.3634C49.9967 6.66602 50.4301 9.16602 50.9301 12.2327L51.6634 16.566" stroke="#2D2727" stroke-width="2" stroke-linecap="round" stroke-linejoin="round"/>
<path d="M62.8346 30.4668L60.668 64.0334C60.3013 69.2668 60.0013 73.3334 50.7013 73.3334H29.3013C20.0013 73.3334 19.7013 69.2668 19.3346 64.0334L17.168 30.4668" stroke="#2D2727" stroke-width="2" stroke-linecap="round" stroke-linejoin="round"/>
<path d="M38.8586 50.812H41.6586C41.6586 47.144 46.6146 46.836 46.6146 42.16C46.6146 39.052 44.0106 37.176 39.9786 37.176C36.7026 37.176 34.2666 38.324 32.7266 40.312L34.7706 41.768C35.8906 40.34 37.5146 39.556 39.7826 39.556C42.3026 39.556 43.7866 40.788 43.7866 42.58C43.7866 45.8 38.8586 46.416 38.8586 50.812ZM40.2866 57.168C41.3226 57.168 42.0786 56.356 42.0786 55.376C42.0786 54.368 41.3226 53.584 40.2866 53.584C39.2226 53.584 38.4666 54.368 38.4666 55.376C38.4666 56.356 39.2226 57.168 40.2866 57.168Z" fill="#E60000"/>
</svg>
