<svg width="38" height="38" viewBox="0 0 38 38" fill="none" xmlns="http://www.w3.org/2000/svg">
<g clip-path="url(#clip0_2666_86034)">
<path d="M15.5709 15.572C16.5172 15.572 17.2852 14.8052 17.2852 13.8577C17.2852 12.9115 16.5172 12.1435 15.5709 12.1435C14.6246 12.1435 13.8566 12.9115 13.8566 13.8577C13.8566 14.8051 14.6246 15.572 15.5709 15.572ZM22.428 15.572C23.3743 15.572 24.1423 14.8052 24.1423 13.8577C24.1423 12.9115 23.3743 12.1435 22.428 12.1435C21.4818 12.1435 20.7138 12.9115 20.7138 13.8577C20.7137 14.8051 21.4818 15.572 22.428 15.572ZM12.2977 26.7C13.1868 26.844 15.2063 27.0005 16.1423 27.0005C24.348 27.0005 29.8566 20.8942 29.8566 13.7148C29.8566 6.53538 22.9732 0.714844 16.1423 0.714844C7.92517 0.714844 1.28516 6.53543 1.28516 13.7148C1.28516 17.8737 2.87029 21.4051 5.8566 23.948V30.4291L12.2977 26.7ZM3.57088 13.8577C3.57088 7.86111 9.00285 3.00057 16.1423 3.00057C21.8257 3.00057 27.5708 7.86111 27.5708 13.8577C27.5708 19.8543 23.0851 24.7149 16.1423 24.7149C15.1217 24.7149 12.9926 24.5983 12.0429 24.4005L8.14232 27.0005V22.9503C5.35487 20.6886 3.57088 17.6668 3.57088 13.8577ZM32.084 11.1583C32.1057 11.4863 32.1423 11.8109 32.1423 12.1435C32.1423 12.8703 32.0726 13.5823 31.9697 14.2852C33.508 16.0863 34.428 18.3046 34.428 20.7149C34.428 24.5241 32.1515 27.8703 28.7138 29.8074V33.8577L24.8131 31.2577C23.8635 31.4554 22.8772 31.572 21.8566 31.572C18.8966 31.572 17.324 30.6829 15.1755 29.204C14.5526 29.2543 13.9229 29.2864 13.2852 29.2864C12.8304 29.2864 12.3846 29.2532 11.9366 29.2281C14.6566 31.8886 17.4555 33.5721 21.8566 33.5721C22.7926 33.5721 23.7057 33.4875 24.5937 33.3423L30.9994 37.2863V30.804C34.4726 28.4246 36.7137 24.7309 36.7137 20.5708C36.7137 16.8634 34.9308 13.5274 32.084 11.1583ZM8.71375 15.572C9.66002 15.572 10.428 14.8052 10.428 13.8577C10.428 12.9115 9.66002 12.1435 8.71375 12.1435C7.76743 12.1435 6.99946 12.9115 6.99946 13.8577C6.99946 14.8051 7.76743 15.572 8.71375 15.572Z" fill="white"/>
</g>
<defs>
<clipPath id="clip0_2666_86034">
<rect width="36.5714" height="36.5714" fill="white" transform="translate(0.714844 0.714844)"/>
</clipPath>
</defs>
</svg>
