<svg width="16" height="16" viewBox="0 0 16 16" fill="none" xmlns="http://www.w3.org/2000/svg">
						<path fill-rule="evenodd" clip-rule="evenodd" d="M6.87776 0.464847L5.67347 1.66914C5.57588 1.76673 5.4435 1.82156 5.30548 1.82156H3.40865C2.53213 1.82156 1.82156 2.53213 1.82156 3.40865V5.30548C1.82156 5.4435 1.76673 5.57587 1.66914 5.67347L0.464847 6.87776C-0.154949 7.49756 -0.154949 8.50244 0.464847 9.12224L1.66914 10.3265C1.76673 10.4241 1.82156 10.5565 1.82156 10.6945V12.5914C1.82156 13.4679 2.53213 14.1784 3.40865 14.1784H5.30548C5.4435 14.1784 5.57587 14.2333 5.67347 14.3309L6.87776 15.5352C7.49756 16.1549 8.50244 16.155 9.12224 15.5352L10.3265 14.3309C10.4241 14.2333 10.5565 14.1784 10.6945 14.1784H12.5914C13.4679 14.1784 14.1784 13.4679 14.1784 12.5914V10.6945C14.1784 10.5565 14.2333 10.4241 14.3309 10.3265L15.5352 9.12224C16.1549 8.50245 16.155 7.49756 15.5352 6.87776L14.3309 5.67347C14.2333 5.57587 14.1784 5.4435 14.1784 5.30548V3.40865C14.1784 2.53212 13.4679 1.82156 12.5914 1.82156H10.6945C10.5565 1.82156 10.4241 1.76673 10.3265 1.66914L9.12224 0.464847C8.50245 -0.154949 7.49756 -0.154949 6.87776 0.464847Z" fill="#E60000"/>
						<line x1="5" y1="10.9393" x2="10.9393" y2="5" stroke="white" stroke-width="1.5" stroke-linecap="round"/>
						<circle cx="6" cy="5" r="1" fill="white"/>
						<circle cx="10" cy="11" r="1" fill="white"/>
					</svg>