<svg width="16" height="16" viewBox="0 0 16 16" fill="none" xmlns="http://www.w3.org/2000/svg">
<path d="M7.76701 4.72589C7.84479 4.71719 7.92257 4.71429 8.00035 4.71429C9.47263 4.71429 10.6671 5.93594 10.6671 7.5C10.6671 9.03795 9.47263 10.2857 8.00035 10.2857C6.50306 10.2857 5.33357 9.03795 5.33357 7.5C5.33357 7.41875 5.33634 7.3375 5.34468 7.25625C5.60302 7.38683 5.90304 7.5 6.22249 7.5C7.20309 7.5 8.00035 6.66719 8.00035 5.64286C8.00035 5.30915 7.89201 4.99576 7.76701 4.72589ZM13.3506 3.33884C14.6506 4.59821 15.5201 6.08103 15.9312 7.14308C16.0229 7.37232 16.0229 7.62768 15.9312 7.85692C15.5201 8.89286 14.6506 10.3757 13.3506 11.6612C12.0422 12.9321 10.2449 14 8.00035 14C5.75581 14 3.95851 12.9321 2.65067 11.6612C1.35062 10.3757 0.48169 8.89286 0.0683664 7.85692C0.0232361 7.74383 0 7.62252 0 7.5C0 7.37748 0.0232361 7.25617 0.0683664 7.14308C0.48169 6.08103 1.35062 4.59821 2.65067 3.33884C3.95851 2.06902 5.75581 1 8.00035 1C10.2449 1 12.0422 2.06902 13.3506 3.33884ZM8.00035 3.32143C5.79192 3.32143 4.00017 5.19308 4.00017 7.5C4.00017 9.80692 5.79192 11.6786 8.00035 11.6786C10.2088 11.6786 12.0005 9.80692 12.0005 7.5C12.0005 5.19308 10.2088 3.32143 8.00035 3.32143Z" fill="#A7A9B9"/>
<line x1="15" y1="1.41421" x2="2.41421" y2="14" stroke="#A7A9B9" stroke-width="2" stroke-linecap="round"/>
</svg>
