<svg width="140" height="140" viewBox="0 0 140 140" fill="none" xmlns="http://www.w3.org/2000/svg">
						<path d="M67.5 124L66.7898 124.704C66.9776 124.893 67.2333 125 67.5 125C67.7667 125 68.0224 124.893 68.2102 124.704L67.5 124ZM10.8376 66.8405L10.1274 67.5445L10.8376 66.8405ZM124.162 66.8405L124.873 67.5445L124.162 66.8405ZM58.3376 18.9239L57.6274 19.6279L58.3376 18.9239ZM67.5 28.1667L66.7898 28.8707C66.9776 29.0601 67.2333 29.1667 67.5 29.1667C67.7667 29.1667 68.0224 29.0601 68.2102 28.8707L67.5 28.1667ZM76.6624 18.9239L75.9522 18.2198L76.6624 18.9239ZM68.2102 123.296L11.5477 66.1365L10.1274 67.5445L66.7898 124.704L68.2102 123.296ZM123.452 66.1365L66.7898 123.296L68.2102 124.704L124.873 67.5445L123.452 66.1365ZM57.6274 19.6279L66.7898 28.8707L68.2102 27.4627L59.0478 18.2199L57.6274 19.6279ZM68.2102 28.8707L77.3726 19.6279L75.9522 18.2198L66.7898 27.4627L68.2102 28.8707ZM100.412 8C91.2364 8 82.438 11.6772 75.9522 18.2198L77.3726 19.6279C83.4847 13.4622 91.7725 10 100.412 10V8ZM133 42.8822C133 51.6059 129.565 59.9706 123.452 66.1365L124.873 67.5445C131.358 61.0022 135 52.1307 135 42.8822H133ZM135 42.8822C135 23.6255 119.523 8 100.412 8V10C118.402 10 133 24.7136 133 42.8822H135ZM34.5876 10C43.2275 10 51.5153 13.4622 57.6274 19.6279L59.0478 18.2199C52.562 11.6772 43.7636 8 34.5876 8V10ZM2 42.8822C2 24.7136 16.5982 10 34.5876 10V8C15.4772 8 0 23.6255 0 42.8822H2ZM11.5477 66.1365C5.43542 59.9706 2 51.6059 2 42.8822H0C0 52.1307 3.64192 61.0022 10.1274 67.5445L11.5477 66.1365Z" fill="#2D2727"/>
						<path d="M17.9971 85.0711L29.5 97L41.0029 85.0711C42.2816 83.745 43 81.9464 43 80.0711C43 76.1658 39.9472 73 36.1815 73C34.3731 73 32.6388 73.745 31.36 75.0711L29.5 77L27.64 75.0711C26.3612 73.745 24.6269 73 22.8185 73C19.0528 73 16 76.1658 16 80.0711C16 81.9464 16.7184 83.745 17.9971 85.0711Z" fill="white"/>
						<path d="M29.5 97L28.7802 97.6941C28.9686 97.8896 29.2285 98 29.5 98C29.7715 98 30.0314 97.8896 30.2198 97.6941L29.5 97ZM17.9971 85.0711L17.2773 85.7652H17.2773L17.9971 85.0711ZM41.0029 85.0711L41.7227 85.7652L41.0029 85.0711ZM27.64 75.0711L26.9201 75.7652L27.64 75.0711ZM29.5 77L28.7802 77.6941C28.9686 77.8896 29.2285 78 29.5 78C29.7715 78 30.0314 77.8896 30.2198 77.6941L29.5 77ZM31.36 75.0711L30.6402 74.3769L30.6402 74.3769L31.36 75.0711ZM30.2198 96.3059L18.7169 84.3769L17.2773 85.7652L28.7802 97.6941L30.2198 96.3059ZM40.2831 84.3769L28.7802 96.3059L30.2198 97.6941L41.7227 85.7652L40.2831 84.3769ZM26.9201 75.7652L28.7802 77.6941L30.2198 76.3059L28.3598 74.3769L26.9201 75.7652ZM30.2198 77.6941L32.0799 75.7652L30.6402 74.3769L28.7802 76.3059L30.2198 77.6941ZM36.1815 72C34.0959 72 32.1034 72.8595 30.6402 74.3769L32.0799 75.7652C33.1741 74.6305 34.6503 74 36.1815 74V72ZM42 80.0711C42 81.6927 41.3785 83.2409 40.2831 84.3769L41.7227 85.7652C43.1848 84.249 44 82.2001 44 80.0711H42ZM44 80.0711C44 75.6481 40.5335 72 36.1815 72V74C39.361 74 42 76.6835 42 80.0711H44ZM22.8185 74C24.3497 74 25.8259 74.6305 26.9201 75.7652L28.3598 74.3769C26.8966 72.8595 24.9041 72 22.8185 72V74ZM17 80.0711C17 76.6835 19.639 74 22.8185 74V72C18.4665 72 15 75.6481 15 80.0711H17ZM18.7169 84.3769C17.6215 83.2409 17 81.6927 17 80.0711H15C15 82.2002 15.8152 84.249 17.2773 85.7652L18.7169 84.3769Z" fill="#E60000"/>
						<path d="M90.7723 101.124L112.5 122L134.228 101.124C136.643 98.8037 138 95.6563 138 92.3744C138 85.5402 132.234 80 125.121 80C121.705 80 118.429 81.3037 116.013 83.6244L112.5 87L108.987 83.6244C106.571 81.3037 103.295 80 99.8794 80C92.7663 80 87 85.5402 87 92.3744C87 95.6563 88.3569 98.8037 90.7723 101.124Z" fill="white"/>
						<path d="M112.5 122L111.807 122.721C112.194 123.093 112.806 123.093 113.193 122.721L112.5 122ZM90.7723 101.124L90.0795 101.845L90.0795 101.845L90.7723 101.124ZM134.228 101.124L134.921 101.845L134.228 101.124ZM108.987 83.6244L108.294 84.3455L108.987 83.6244ZM112.5 87L111.807 87.7211C112.194 88.093 112.806 88.093 113.193 87.7211L112.5 87ZM116.013 83.6244L115.321 82.9033V82.9033L116.013 83.6244ZM113.193 121.279L112.106 120.235L110.721 121.677L111.807 122.721L113.193 121.279ZM109.934 118.148L107.761 116.06L106.375 117.502L108.548 119.59L109.934 118.148ZM105.588 113.972L103.415 111.885L102.03 113.327L104.202 115.415L105.588 113.972ZM101.243 109.797L99.0698 107.71L97.6842 109.152L99.8569 111.24L101.243 109.797ZM96.897 105.622L94.7243 103.535L93.3386 104.977L95.5114 107.064L96.897 105.622ZM92.5515 101.447L91.4651 100.403L90.0795 101.845L91.1659 102.889L92.5515 101.447ZM91.4651 100.403C91.1924 100.141 90.9345 99.8679 90.6919 99.5845L89.1726 100.885C89.4574 101.218 89.7599 101.538 90.0795 101.845L91.4651 100.403ZM89.4064 97.7426C89.0394 97.0861 88.7407 96.3971 88.5145 95.6855L86.6085 96.2914C86.8758 97.1321 87.2283 97.9452 87.6608 98.7186L89.4064 97.7426ZM88.0576 93.4935C88.0194 93.1232 88 92.7498 88 92.3744H86C86 92.8186 86.0229 93.2606 86.0682 93.6989L88.0576 93.4935ZM88 92.3744C88 91.8614 88.0354 91.357 88.1039 90.8629L86.1228 90.5884C86.0418 91.1731 86 91.7693 86 92.3744H88ZM88.9282 87.9586C89.3371 87.0304 89.8716 86.1636 90.5124 85.3783L88.9628 84.1139C88.2108 85.0356 87.5809 86.0559 87.0979 87.1525L88.9282 87.9586ZM92.7233 83.2947C93.5384 82.7048 94.4356 82.2129 95.3958 81.8378L94.6682 79.9749C93.5492 80.4119 92.5026 80.9856 91.5506 81.6746L92.7233 83.2947ZM98.3515 81.0931C98.8513 81.0317 99.3613 81 99.8794 81V79C99.2796 79 98.6882 79.0367 98.1076 79.1081L98.3515 81.0931ZM99.8794 81C100.269 81 100.656 81.0183 101.04 81.0543L101.227 79.0631C100.781 79.0212 100.331 79 99.8794 79V81ZM103.318 81.4871C104.064 81.7031 104.786 81.9888 105.473 82.3398L106.383 80.5589C105.582 80.1498 104.742 79.8172 103.875 79.566L103.318 81.4871ZM107.421 83.5865C107.724 83.8245 108.015 84.0777 108.294 84.3455L109.679 82.9033C109.353 82.5896 109.012 82.2932 108.658 82.0148L107.421 83.5865ZM108.294 84.3455L109.172 85.1894L110.558 83.7472L109.679 82.9033L108.294 84.3455ZM110.929 86.8772L111.807 87.7211L113.193 86.2789L112.314 85.435L110.929 86.8772ZM113.193 87.7211L114.071 86.8772L112.686 85.435L111.807 86.2789L113.193 87.7211ZM115.828 85.1894L116.706 84.3455L115.321 82.9033L114.442 83.7472L115.828 85.1894ZM116.706 84.3455C116.985 84.0777 117.276 83.8245 117.579 83.5865L116.342 82.0148C115.988 82.2932 115.647 82.5896 115.321 82.9033L116.706 84.3455ZM119.527 82.3398C120.214 81.9888 120.936 81.7031 121.682 81.4871L121.125 79.566C120.258 79.8172 119.418 80.1498 118.617 80.5589L119.527 82.3398ZM123.96 81.0543C124.344 81.0183 124.731 81 125.121 81V79C124.669 79 124.219 79.0212 123.773 79.0631L123.96 81.0543ZM125.121 81C125.639 81 126.149 81.0317 126.649 81.0931L126.892 79.1081C126.312 79.0367 125.72 79 125.121 79V81ZM129.604 81.8378C130.564 82.2129 131.462 82.7048 132.277 83.2947L133.449 81.6746C132.497 80.9856 131.451 80.4119 130.332 79.9749L129.604 81.8378ZM134.488 85.3783C135.128 86.1636 135.663 87.0304 136.072 87.9586L137.902 87.1525C137.419 86.0559 136.789 85.0356 136.037 84.1139L134.488 85.3783ZM136.896 90.8629C136.965 91.357 137 91.8614 137 92.3744H139C139 91.7693 138.958 91.1731 138.877 90.5884L136.896 90.8629ZM137 92.3744C137 92.7498 136.981 93.1232 136.942 93.4935L138.932 93.6989C138.977 93.2606 139 92.8186 139 92.3744H137ZM136.485 95.6855C136.259 96.3971 135.961 97.0862 135.594 97.7426L137.339 98.7186C137.772 97.9452 138.124 97.1321 138.391 96.2914L136.485 95.6855ZM134.308 99.5845C134.066 99.8679 133.808 100.141 133.535 100.403L134.921 101.845C135.24 101.538 135.543 101.218 135.827 100.885L134.308 99.5845ZM133.535 100.403L132.448 101.447L133.834 102.889L134.921 101.845L133.535 100.403ZM130.276 103.535L128.103 105.622L129.489 107.064L131.661 104.977L130.276 103.535ZM125.93 107.71L123.757 109.797L125.143 111.24L127.316 109.152L125.93 107.71ZM121.585 111.885L119.412 113.972L120.798 115.415L122.97 113.327L121.585 111.885ZM117.239 116.06L115.066 118.148L116.452 119.59L118.625 117.502L117.239 116.06ZM112.894 120.235L111.807 121.279L113.193 122.721L114.279 121.677L112.894 120.235Z" fill="#A7A9B9"/>
					</svg>