<svg width="24" height="24" viewBox="0 0 24 24" fill="none" xmlns="http://www.w3.org/2000/svg">
								<path d="M19.4974 13.5722L11.9974 21.0002L4.49737 13.5722C4.00268 13.0908 3.61301 12.5122 3.35292 11.8728C3.09282 11.2334 2.96793 10.5471 2.98611 9.85711C3.00428 9.16709 3.16513 8.48831 3.45853 7.86351C3.75192 7.23871 4.17151 6.68143 4.69086 6.22676C5.21021 5.77208 5.81808 5.42987 6.47618 5.22166C7.13429 5.01345 7.82838 4.94376 8.51474 5.01698C9.2011 5.0902 9.86487 5.30473 10.4642 5.64708C11.0636 5.98943 11.5856 6.45218 11.9974 7.00618C12.4109 6.4562 12.9335 5.9975 13.5325 5.65878C14.1314 5.32007 14.7939 5.10863 15.4783 5.0377C16.1627 4.96677 16.8545 5.03787 17.5101 5.24657C18.1658 5.45526 18.7714 5.79705 19.2889 6.25054C19.8064 6.70403 20.2248 7.25946 20.5178 7.88207C20.8108 8.50468 20.9721 9.18106 20.9917 9.86889C21.0112 10.5567 20.8886 11.2412 20.6315 11.8794C20.3744 12.5177 19.9883 13.096 19.4974 13.5782" stroke="#504F55" stroke-width="2" stroke-linecap="round" stroke-linejoin="round"></path>
							</svg>