<svg width="24" height="24" viewBox="0 0 24 24" fill="none" xmlns="http://www.w3.org/2000/svg">
								<path d="M12 2L11.9999 3H12L12 2ZM20 9.92H21L21 9.91L20 9.92ZM12.65 21.76L12.0537 20.9573L12.0261 20.9777L12 21.0001L12.65 21.76ZM11.35 21.76L10.6949 22.5155L10.7 22.5199L11.35 21.76ZM11.3484 21.7586L12.0035 21.0031L12.0033 21.0029L11.3484 21.7586ZM4 9.92L3 9.91V9.92H4ZM12 1C9.62861 0.999882 7.35296 1.93573 5.6677 3.60414L7.07479 5.02544C8.38555 3.72779 10.1555 2.99991 11.9999 3L12 1ZM18.3323 3.60414C16.647 1.93573 14.3714 0.999882 11.9999 1L12 3C13.8445 2.99991 15.6145 3.72779 16.9252 5.02544L18.3323 3.60414ZM21 9.91C20.9762 7.53868 20.0176 5.27255 18.3323 3.60414L16.9252 5.02544C18.236 6.3231 18.9816 8.08564 19 9.93L21 9.91ZM13.2463 22.5627C13.5003 22.374 15.3983 20.7211 17.2372 18.4221C19.0497 16.1562 21 13.0267 21 9.92H19C19 12.2933 17.4503 14.9538 15.6753 17.1729C14.8091 18.2559 13.9295 19.1844 13.2448 19.8581C12.9029 20.1944 12.6116 20.4653 12.3974 20.658C12.2902 20.7545 12.2034 20.8304 12.1402 20.8845C12.0686 20.9457 12.0446 20.964 12.0537 20.9573L13.2463 22.5627ZM12 23.0001C12.4767 23.0001 12.9377 22.8298 13.3 22.5199L12 21.0001L12 21.0001V23.0001ZM10.7 22.5199C11.0623 22.8298 11.5233 23.0001 12 23.0001V21.0001L12 21.0001L10.7 22.5199ZM10.6932 22.5141L10.6949 22.5155L12.0051 21.0045L12.0035 21.0031L10.6932 22.5141ZM3 9.92C3 13.0235 4.95855 16.1485 6.77287 18.4113C8.62546 20.7218 10.5153 22.3599 10.6935 22.5143L12.0033 21.0029C11.8584 20.8773 10.0741 19.3313 8.33324 17.1602C6.55413 14.9413 5 12.2869 5 9.92H3ZM5.6677 3.60414C3.98243 5.27255 3.02376 7.53868 3.00005 9.91L4.99995 9.93C5.01839 8.08564 5.76403 6.3231 7.07479 5.02544L5.6677 3.60414ZM14 9.74805C14 10.8526 13.1046 11.748 12 11.748V13.748C14.2091 13.748 16 11.9572 16 9.74805H14ZM12 7.74805C13.1046 7.74805 14 8.64348 14 9.74805H16C16 7.53891 14.2091 5.74805 12 5.74805V7.74805ZM10 9.74805C10 8.64348 10.8954 7.74805 12 7.74805V5.74805C9.79086 5.74805 8 7.53891 8 9.74805H10ZM12 11.748C10.8954 11.748 10 10.8526 10 9.74805H8C8 11.9572 9.79086 13.748 12 13.748V11.748Z" fill="#504F55"></path>
							</svg>