<svg width="16" height="16" viewBox="0 0 16 16" fill="none" xmlns="http://www.w3.org/2000/svg">
    <path fill-rule="evenodd" clip-rule="evenodd" d="M4.2527 2.87718C5.25138 1.88849 6.59991 1.33391 8.00521 1.33398C9.4105 1.33391 10.759 1.88849 11.7577 2.87718C12.7564 3.86587 13.3245 5.20876 13.3385 6.61398C13.3385 10.2673 8.67187 14.334 8.43854 14.5073C8.31779 14.6106 8.16411 14.6674 8.00521 14.6674C7.84631 14.6674 7.69263 14.6106 7.57188 14.5073L7.57078 14.5064C7.35544 14.3198 2.67188 10.2609 2.67188 6.61398C2.68593 5.20876 3.25403 3.86587 4.2527 2.87718ZM8.00391 8.49951C9.10848 8.49951 10.0039 7.60408 10.0039 6.49951C10.0039 5.39494 9.10848 4.49951 8.00391 4.49951C6.89934 4.49951 6.00391 5.39494 6.00391 6.49951C6.00391 7.60408 6.89934 8.49951 8.00391 8.49951Z" fill="#2D2727"></path>
</svg>