 <svg width="14" height="13" viewBox="0 0 14 13" fill="none" xmlns="http://www.w3.org/2000/svg">
                        <path fill-rule="evenodd" clip-rule="evenodd"
                            d="M4.10845 0C3.24758 0 2.48331 0.550861 2.21108 1.36755L1.14823 4.55608C0.505596 4.88876 0.0664062 5.55976 0.0664062 6.33333V9.26667C0.0664062 9.95069 0.409796 10.5545 0.933594 10.9151V11.7C0.933594 12.418 1.51562 13 2.23359 13C2.95156 13 3.53359 12.418 3.53359 11.7V11.2667H10.4648V11.7C10.4648 12.418 11.0469 13 11.7648 13C12.4828 13 13.0648 12.418 13.0648 11.7V10.9159C13.5892 10.5553 13.9331 9.95114 13.9331 9.26667V6.33333C13.9331 5.56026 13.4945 4.88963 12.8525 4.55673L11.7894 1.36754C11.5172 0.55086 10.7529 0 9.89208 0H4.10845ZM4.39792 1.73328H9.59792L10.4646 4.33328H3.53125L4.39792 1.73328ZM4.3974 7.80002C4.3974 8.27866 4.00938 8.66668 3.53073 8.66668C3.05208 8.66668 2.66406 8.27866 2.66406 7.80002C2.66406 7.32137 3.05208 6.93335 3.53073 6.93335C4.00938 6.93335 4.3974 7.32137 4.3974 7.80002ZM11.331 7.80002C11.331 8.27866 10.943 8.66668 10.4643 8.66668C9.98568 8.66668 9.59766 8.27866 9.59766 7.80002C9.59766 7.32137 9.98568 6.93335 10.4643 6.93335C10.943 6.93335 11.331 7.32137 11.331 7.80002Z"
                            fill="#A7A9B9" />
                    </svg>