<svg width="140" height="140" viewBox="0 0 140 140" fill="none" xmlns="http://www.w3.org/2000/svg">
<path d="M42.4961 31.3281L42.4961 120.009" stroke="#A7A9B9" stroke-width="2" stroke-dasharray="3 3"/>
<path d="M94.7969 47.8125L94.7969 135.356" stroke="#A7A9B9" stroke-width="2" stroke-dasharray="3 3"/>
<path d="M51.2662 33.6819L42.5192 30.7649C42.5055 30.7603 42.4906 30.7611 42.4775 30.7669L1.03422 49.2177C1.01341 49.2269 1 49.2476 1 49.2704L1 136.975C1 137.016 1.04127 137.044 1.07916 137.029L42.7637 120.298C42.7757 120.294 42.7889 120.293 42.8012 120.297L94.7766 135.35C94.7896 135.353 94.8035 135.352 94.8159 135.347L137.966 116.327C137.986 116.318 138 116.297 138 116.274V30.8428C138 30.802 137.959 30.7741 137.921 30.7892L95.1028 47.8031C95.0888 47.8086 95.0731 47.8085 95.0592 47.8026L87.241 44.5236" stroke="black" stroke-width="2"/>
<path d="M69.5 16.75L69.4999 17.75H69.5L69.5 16.75ZM56.1317 22.2476L55.4282 21.537V21.537L56.1317 22.2476ZM82.8683 22.2476L82.1648 22.9583V22.9583L82.8683 22.2476ZM88.5 35.56H89.5L89.4999 35.55L88.5 35.56ZM71.0437 63.68L70.4474 62.8773L70.4199 62.8977L70.3937 62.9201L71.0437 63.68ZM67.9563 63.68L67.3011 64.4355L67.3062 64.4399L67.9563 63.68ZM67.9524 63.6766L68.6075 62.9211L68.6073 62.9209L67.9524 63.6766ZM50.5 35.56L49.5 35.55V35.56H50.5ZM69.5 15.75C64.2302 15.7497 59.1732 17.8294 55.4282 21.537L56.8352 22.9583C60.2058 19.6215 64.7571 17.7498 69.4999 17.75L69.5 15.75ZM83.5718 21.537C79.8268 17.8294 74.7698 15.7497 69.4999 15.75L69.5 17.75C74.2429 17.7498 78.7942 19.6215 82.1648 22.9583L83.5718 21.537ZM89.4999 35.55C89.4473 30.2804 87.3169 25.2446 83.5718 21.537L82.1648 22.9583C85.5353 26.2951 87.4526 30.8274 87.5 35.57L89.4999 35.55ZM71.6401 64.4827C72.1347 64.1153 76.5592 60.2761 80.8645 54.8937C85.1434 49.5443 89.5 42.4342 89.5 35.56H87.5C87.5 41.7008 83.5441 48.3419 79.3027 53.6444C77.2032 56.2691 75.0754 58.5151 73.4207 60.1431C72.5938 60.9566 71.887 61.6139 71.3636 62.0849C71.1018 62.3205 70.8869 62.5085 70.7268 62.6455C70.6466 62.7141 70.5814 62.7687 70.5318 62.8096C70.507 62.83 70.487 62.8461 70.4718 62.8583C70.4642 62.8643 70.4582 62.8689 70.4538 62.8723C70.4493 62.8759 70.4473 62.8774 70.4474 62.8773L71.6401 64.4827ZM69.5 65.2502C70.3044 65.2502 71.0824 64.9628 71.6937 64.4399L70.3937 62.9201C70.1447 63.1331 69.8277 63.2502 69.5 63.2502V65.2502ZM67.3062 64.4399C67.9176 64.9628 68.6956 65.2502 69.5 65.2502V63.2502C69.1723 63.2502 68.8553 63.1331 68.6063 62.9201L67.3062 64.4399ZM67.2972 64.4322L67.3011 64.4355L68.6114 62.9245L68.6075 62.9211L67.2972 64.4322ZM49.5 35.56C49.5 42.4244 53.8735 49.5226 58.1583 54.8666C62.4814 60.2583 66.8972 64.0855 67.2975 64.4323L68.6073 62.9209C68.2403 62.6029 63.93 58.8679 59.7187 53.6155C55.4691 48.3155 51.5 41.6878 51.5 35.56H49.5ZM55.4282 21.537C51.6831 25.2446 49.5527 30.2804 49.5001 35.55L51.4999 35.57C51.5474 30.8274 53.4647 26.2951 56.8352 22.9583L55.4282 21.537ZM75.625 35.1514C75.625 38.5341 72.8827 41.2764 69.5 41.2764V43.2764C73.9873 43.2764 77.625 39.6387 77.625 35.1514H75.625ZM69.5 29.0264C72.8827 29.0264 75.625 31.7686 75.625 35.1514H77.625C77.625 30.6641 73.9873 27.0264 69.5 27.0264V29.0264ZM63.375 35.1514C63.375 31.7686 66.1173 29.0264 69.5 29.0264V27.0264C65.0127 27.0264 61.375 30.6641 61.375 35.1514H63.375ZM69.5 41.2764C66.1173 41.2764 63.375 38.5341 63.375 35.1514H61.375C61.375 39.6387 65.0127 43.2764 69.5 43.2764V41.2764Z" fill="#E60000"/>
</svg>
