<svg width="24" height="26" viewBox="0 0 24 26" fill="none" xmlns="http://www.w3.org/2000/svg">
<path d="M8.5 21H8C4 21 2 20 2 15V10C2 6 4 4 8 4H16C20 4 22 6 22 10V15C22 19 20 21 16 21H15.5C15.19 21 14.89 21.15 14.7 21.4L13.2 23.4C12.54 24.28 11.46 24.28 10.8 23.4L9.3 21.4C9.14 21.18 8.77 21 8.5 21Z" stroke="#2D2727" stroke-width="1.5" stroke-miterlimit="10" stroke-linecap="round" stroke-linejoin="round"/>
<path d="M15.9945 13H16.0035" stroke="#2D2727" stroke-width="2" stroke-linecap="round" stroke-linejoin="round"/>
<path d="M11.9945 13H12.0035" stroke="#2D2727" stroke-width="2" stroke-linecap="round" stroke-linejoin="round"/>
<path d="M7.99451 13H8.00349" stroke="#2D2727" stroke-width="2" stroke-linecap="round" stroke-linejoin="round"/>
</svg>
