<svg width="32" height="32" viewBox="0 0 32 32" fill="none" xmlns="http://www.w3.org/2000/svg">
<g clip-path="url(#clip0_2320_434968)">
<path d="M5.36308e-06 15.36C5.36308e-06 8.1184 5.37417e-06 4.4992 2.24 2.24C4.48 -0.0191946 8.1088 5.36308e-06 15.36 5.36308e-06H16.64C23.8817 5.36308e-06 27.5009 5.37417e-06 29.76 2.24C32.0191 4.48 32 8.1088 32 15.36V16.64C32 23.8817 32 27.5009 29.76 29.76C27.52 32.0191 23.8911 32 16.64 32H15.36C8.1184 32 4.4992 32 2.24 29.76C-0.0191946 27.52 5.36308e-06 23.8911 5.36308e-06 16.64V15.36Z" fill="#F1F1F3"/>
<path d="M16.0305 16.3155C18.6998 16.3155 20.8758 14.1395 20.8758 11.4702C20.8758 8.801 18.6998 6.625 16.0305 6.625C13.3323 6.625 11.1562 8.801 11.1562 11.4702C11.1562 14.1395 13.3323 16.3155 16.0305 16.3155ZM16.0305 9.46831C17.133 9.46831 18.0324 10.3677 18.0324 11.4702C18.0324 12.5728 17.133 13.4722 16.0305 13.4722C14.928 13.4722 14.0286 12.5728 14.0286 11.4702C13.9996 10.3677 14.899 9.46831 16.0305 9.46831Z" fill="white"/>
<path d="M17.9749 20.2909C18.9614 20.0587 19.9188 19.6815 20.7893 19.1303C21.4565 18.7241 21.6596 17.8247 21.2244 17.1574C20.8183 16.4901 19.9188 16.287 19.2515 16.7222C17.2786 17.9698 14.6964 17.9698 12.7235 16.7222C12.0562 16.316 11.1858 16.4901 10.7506 17.1574C10.3734 17.8247 10.5765 18.6951 11.2438 19.1013C12.1142 19.6525 13.0717 20.0297 14.0581 20.2619L11.3599 22.9601C10.8086 23.5114 10.8086 24.4108 11.3599 24.9621C11.65 25.2521 11.9981 25.3682 12.3753 25.3682C12.7525 25.3682 13.1007 25.2231 13.3908 24.9621L16.06 22.2928L18.7293 24.9621C19.2805 25.5133 20.1799 25.5133 20.7312 24.9621C21.2824 24.4108 21.2824 23.5114 20.7312 22.9601L17.9749 20.2909Z" fill="white"/>
<path d="M16.0305 16.3155C18.6998 16.3155 20.8758 14.1395 20.8758 11.4702C20.8758 8.801 18.6998 6.625 16.0305 6.625C13.3322 6.625 11.1562 8.801 11.1562 11.4702C11.1562 14.1395 13.3322 16.3155 16.0305 16.3155ZM16.0305 9.46831C17.133 9.46831 18.0324 10.3677 18.0324 11.4702C18.0324 12.5728 17.133 13.4722 16.0305 13.4722C14.928 13.4722 14.0286 12.5728 14.0286 11.4702C13.9996 10.3677 14.899 9.46831 16.0305 9.46831Z" fill="#2D2727"/>
<path d="M17.9749 20.2909C18.9614 20.0587 19.9188 19.6815 20.7891 19.1303C21.4565 18.7241 21.6596 17.8247 21.2244 17.1574C20.8183 16.4901 19.9188 16.287 19.2515 16.7222C17.2786 17.9698 14.6964 17.9698 12.7235 16.7222C12.0562 16.316 11.1858 16.4901 10.7506 17.1574C10.3734 17.8247 10.5765 18.6951 11.2438 19.1013C12.1142 19.6525 13.0716 20.0297 14.0581 20.2619L11.3598 22.9601C10.8086 23.5114 10.8086 24.4108 11.3598 24.9621C11.65 25.2521 11.9981 25.3682 12.3753 25.3682C12.7525 25.3682 13.1007 25.2231 13.3908 24.9621L16.06 22.2928L18.7293 24.9621C19.2805 25.5133 20.1799 25.5133 20.7312 24.9621C21.2824 24.4108 21.2824 23.5114 20.7312 22.9601L17.9749 20.2909Z" fill="#2D2727"/>
</g>
<defs>
<clipPath id="clip0_2320_434968">
<rect width="32" height="32" fill="white"/>
</clipPath>
</defs>
</svg>
