    <svg width="176" height="24" viewBox="0 0 176 24" fill="none"
                                xmlns="http://www.w3.org/2000/svg">
                                <g clip-path="url(#clip0_1211_439782)">
                                    <path
                                        d="M20.5736 19.0014H16.8491L19.1912 5.00144H22.8717L20.5736 19.0014ZM13.7937 5.00144L10.2717 14.6341L9.86667 12.5562L8.62516 6.26056C8.54993 5.8662 8.32624 5.51575 8.00022 5.28148C7.6742 5.0472 7.27071 4.94696 6.87296 5.00144H1.07044L1 5.23918C2.35906 5.57561 3.65933 6.1159 4.8566 6.84169L8.04402 19.0014H11.883L17.7296 5.00144H13.7673H13.7937ZM42.7711 19.0014H46.1522L43.2025 5.00144H40.244C39.8862 4.97307 39.5287 5.05932 39.2232 5.2477C38.9176 5.43608 38.68 5.71681 38.5447 6.04924L33.0503 19.0014H36.8893L37.6553 16.9235H42.3396L42.7711 19.0014ZM38.7208 14.0442L40.6579 8.76119L41.7497 14.0442H38.7208V14.0442ZM33.3321 8.36496L33.8604 5.35364C32.7956 4.97827 31.6783 4.77323 30.5497 4.74609C28.7182 4.74609 24.3862 5.53855 24.3862 9.37754C24.3862 12.9964 29.4843 13.0404 29.4843 14.9423C29.4843 16.8442 24.9145 16.5008 23.4088 15.3033L22.8629 18.4467C24.1794 18.9924 25.5939 19.2621 27.0189 19.2392C29.5371 19.2392 33.3233 17.9536 33.3233 14.4492C33.3233 10.8128 28.1811 10.4694 28.1811 8.88446C28.1811 7.29955 31.756 7.51087 33.3321 8.36496Z"
                                        fill="#A7A9B9" />
                                    <path
                                        d="M9.86667 12.5536L8.62516 6.25799C8.54993 5.86364 8.32624 5.51319 8.00022 5.27891C7.6742 5.04464 7.27071 4.9444 6.87296 4.99888H1.07044L1 5.23661C2.9961 5.73784 4.86095 6.66276 6.46792 7.94856C7.99017 9.15404 9.1634 10.7437 9.86667 12.5536V12.5536Z"
                                        fill="#A7A9B9" fill-opacity="0.5" />
                                </g>
                                <path
                                    d="M83.7584 11.1508C83.7574 9.4677 84.1356 7.80604 84.8648 6.28917C85.5941 4.77229 86.6556 3.43917 87.9707 2.3888C86.0335 0.843126 83.629 0.000900018 81.1508 0C78.1934 4.40682e-08 75.3572 1.17481 73.266 3.26598C71.1748 5.35716 70 8.1934 70 11.1508C70 14.1081 71.1748 16.9444 73.266 19.0355C75.3572 21.1267 78.1934 22.3015 81.1508 22.3015C83.6321 22.3027 86.0402 21.4604 87.9798 19.9127C86.6606 18.8655 85.5955 17.5332 84.8644 16.0158C84.1333 14.4984 83.7552 12.8351 83.7584 11.1508V11.1508Z"
                                    fill="#A7A9B9" />
                                <path
                                    d="M83.7584 11.1508C83.7574 9.4677 84.1356 7.80604 84.8648 6.28917C85.5941 4.77229 86.6556 3.43917 87.9707 2.3888C86.0335 0.843126 83.629 0.000900018 81.1508 0C78.1934 4.40682e-08 75.3572 1.17481 73.266 3.26598C71.1748 5.35716 70 8.1934 70 11.1508C70 14.1081 71.1748 16.9444 73.266 19.0355C75.3572 21.1267 78.1934 22.3015 81.1508 22.3015C83.6321 22.3027 86.0402 21.4604 87.9798 19.9127C86.6606 18.8655 85.5955 17.5332 84.8644 16.0158C84.1333 14.4984 83.7552 12.8351 83.7584 11.1508V11.1508Z"
                                    fill="#A7A9B9" />
                                <path
                                    d="M105.906 11.1508C105.912 12.6099 105.63 14.0559 105.077 15.4061C104.524 16.7564 103.71 17.9844 102.682 19.0199C101.654 20.0555 100.432 20.8783 99.086 21.4414C97.7399 22.0045 96.296 22.2968 94.8369 22.3015C92.3555 22.3027 89.9474 21.4604 88.0078 19.9127C89.323 18.8613 90.3848 17.5274 91.1144 16.0099C91.8441 14.4923 92.223 12.8301 92.223 11.1462C92.223 9.46238 91.8441 7.80012 91.1144 6.28259C90.3848 4.76506 89.323 3.43115 88.0078 2.37969C89.9486 0.835343 92.3566 -0.00374417 94.8369 1.25599e-05C97.7822 0.0144892 100.602 1.19656 102.677 3.28695C104.752 5.37734 105.913 8.20539 105.906 11.1508V11.1508Z"
                                    fill="#A7A9B9" fill-opacity="0.5" />
                                <path fill-rule="evenodd" clip-rule="evenodd"
                                    d="M84.8643 6.29112C84.135 7.80799 83.7569 9.46966 83.7578 11.1527C83.7546 12.8371 84.1327 14.5003 84.8638 16.0178C85.5949 17.5351 86.6599 18.8674 87.9791 19.9146H88.0074C89.3226 18.8631 90.3843 17.5293 91.1139 16.0118C91.8436 14.4943 92.2224 12.832 92.2224 11.1482C92.2224 9.46433 91.8436 7.80207 91.1139 6.28454C90.3863 4.77133 89.3285 3.44069 88.0185 2.39062H87.97C87.97 2.39067 87.9701 2.39071 87.9701 2.39075C86.6551 3.44112 85.5935 4.77424 84.8643 6.29112Z"
                                    fill="#504F55" />
                                <g clip-path="url(#clip1_1211_439782)">
                                    <path fill-rule="evenodd" clip-rule="evenodd"
                                        d="M141.665 5V5.0058C141.659 5.0058 139.829 5 139.341 6.74538C138.894 8.3458 137.633 12.7643 137.598 12.8861H137.25C137.25 12.8861 135.96 8.36899 135.507 6.73958C135.019 4.9942 133.183 5 133.183 5H129V18.2788H133.183V10.3927H133.357H133.532L135.972 18.2788H138.876L141.316 10.3985H141.665V18.2788H145.848V5H141.665Z"
                                        fill="#A7A9B9" fill-opacity="0.5" />
                                    <path fill-rule="evenodd" clip-rule="evenodd"
                                        d="M156.944 5C156.944 5 155.718 5.11017 155.143 6.39167L152.18 12.8861H151.831V5H147.648V18.2788H151.599C151.599 18.2788 152.883 18.1628 153.458 16.8871L156.363 10.3927H156.711V18.2788H160.894V5H156.944Z"
                                        fill="#A7A9B9" fill-opacity="0.5" />
                                    <path fill-rule="evenodd" clip-rule="evenodd"
                                        d="M162.754 11.0312V18.2795H166.937V14.0465H171.468C173.444 14.0465 175.117 12.7882 175.738 11.0312H162.754Z"
                                        fill="#A7A9B9" fill-opacity="0.5" />
                                    <path fill-rule="evenodd" clip-rule="evenodd"
                                        d="M171.469 5H162.168C162.633 7.52819 164.532 9.55771 166.99 10.2187C167.548 10.3695 168.134 10.4507 168.739 10.4507H175.908C175.972 10.1492 176.001 9.84184 176.001 9.52291C176.001 7.02371 173.973 5 171.469 5Z"
                                        fill="#A7A9B9" />
                                </g>
                                <defs>
                                    <clipPath id="clip0_1211_439782">
                                        <rect width="45.1522" height="14" fill="white" transform="translate(1 5)" />
                                    </clipPath>
                                    <clipPath id="clip1_1211_439782">
                                        <rect width="48" height="24" fill="white" transform="translate(128)" />
                                    </clipPath>
                                </defs>
                            </svg>