<svg width="48" height="48" viewBox="0 0 48 48" fill="none" xmlns="http://www.w3.org/2000/svg">
<path d="M24.0039 4L24.0039 5H24.004L24.0039 4ZM40.0039 19.84H41.004L41.0039 19.83L40.0039 19.84ZM25.3039 43.52L24.7076 42.7173L24.68 42.7377L24.6539 42.7601L25.3039 43.52ZM22.7039 43.52L22.0489 44.2757L22.0539 44.2799L22.7039 43.52ZM22.7006 43.5172L23.3556 42.7615L23.3555 42.7615L22.7006 43.5172ZM8.00391 19.84L7.00391 19.83V19.84H8.00391ZM24.004 3C19.5246 2.99978 15.2261 4.76749 12.0428 7.91893L13.4499 9.34023C16.2587 6.55955 20.0515 4.9998 24.0039 5L24.004 3ZM35.965 7.91893C32.7817 4.76749 28.4832 2.99978 24.0039 3L24.004 5C27.9564 4.9998 31.7491 6.55955 34.5579 9.34023L35.965 7.91893ZM41.0039 19.83C40.9591 15.3508 39.1482 11.0704 35.965 7.91893L34.5579 9.34023C37.3666 12.1209 38.9644 15.8978 39.004 19.85L41.0039 19.83ZM25.9002 44.3228C26.3293 44.004 30.0647 40.7611 33.6973 36.2196C37.3036 31.7112 41.0039 25.6867 41.0039 19.84H39.0039C39.0039 24.9533 35.7042 30.5088 32.1355 34.9704C30.3723 37.1746 28.585 39.0613 27.1948 40.429C26.5002 41.1124 25.9067 41.6643 25.4676 42.0594C25.248 42.257 25.0681 42.4145 24.9343 42.5289C24.8674 42.5861 24.8133 42.6315 24.7725 42.6651C24.7521 42.6819 24.736 42.6949 24.724 42.7044C24.7111 42.7147 24.7063 42.7182 24.7076 42.7173L25.9002 44.3228ZM24.0039 45.0001C24.719 45.0001 25.4105 44.7447 25.9539 44.2799L24.6539 42.7601C24.4728 42.915 24.2423 43.0001 24.0039 43.0001V45.0001ZM22.0539 44.2799C22.5973 44.7447 23.2889 45.0001 24.0039 45.0001V43.0001C23.7655 43.0001 23.535 42.915 23.3539 42.7601L22.0539 44.2799ZM22.0456 44.2728L22.0489 44.2757L23.3589 42.7644L23.3556 42.7615L22.0456 44.2728ZM7.00391 19.84C7.00391 25.6787 10.7188 31.6933 14.3298 36.197C17.9791 40.7483 21.706 43.9785 22.0457 44.2729L23.3555 42.7615C23.0491 42.4959 19.4277 39.3579 15.8902 34.9459C12.3143 30.4861 9.00391 24.9421 9.00391 19.84H7.00391ZM12.0428 7.91893C8.85957 11.0704 7.04875 15.3508 7.00396 19.83L9.00386 19.85C9.04338 15.8978 10.6412 12.1209 13.4499 9.34023L12.0428 7.91893ZM29 19.4971C29 22.2585 26.7614 24.4971 24 24.4971V26.4971C27.866 26.4971 31 23.3631 31 19.4971H29ZM24 14.4971C26.7614 14.4971 29 16.7356 29 19.4971H31C31 15.6311 27.866 12.4971 24 12.4971V14.4971ZM19 19.4971C19 16.7356 21.2386 14.4971 24 14.4971V12.4971C20.134 12.4971 17 15.6311 17 19.4971H19ZM24 24.4971C21.2386 24.4971 19 22.2585 19 19.4971H17C17 23.3631 20.134 26.4971 24 26.4971V24.4971Z" fill="#2D2727"/>
</svg>
