<svg width="24" height="24" viewBox="0 0 24 24" fill="none" xmlns="http://www.w3.org/2000/svg">
<path fill-rule="evenodd" clip-rule="evenodd" d="M13.4853 5C13.4853 4.44771 13.0376 4 12.4853 4C11.933 4 11.4853 4.44772 11.4853 5V11.4853H5C4.44772 11.4853 4 11.933 4 12.4853C4 13.0376 4.44772 13.4853 5 13.4853H11.4853V19.9706C11.4853 20.5229 11.933 20.9706 12.4853 20.9706C13.0376 20.9706 13.4853 20.5229 13.4853 19.9706V13.4853H19.9706C20.5229 13.4853 20.9706 13.0376 20.9706 12.4853C20.9706 11.933 20.5229 11.4853 19.9706 11.4853H13.4853V5Z" fill="#E60000"/>
</svg>
