<svg width="64" height="64" viewBox="0 0 64 64" fill="none" xmlns="http://www.w3.org/2000/svg">
        <circle cx="32" cy="32" r="31" stroke="#2D2727" stroke-width="2" />
        <path
            d="M20.7086 31.2944C20.3189 30.9031 19.6858 30.9017 19.2944 31.2914C18.9031 31.6811 18.9017 32.3142 19.2914 32.7056L20.7086 31.2944ZM27.9655 39.9998L27.2569 40.7054C27.4443 40.8936 27.6988 40.9995 27.9644 40.9998C28.23 41.0001 28.4848 40.8947 28.6726 40.7069L27.9655 39.9998ZM44.6726 24.7071C45.0631 24.3166 45.0631 23.6834 44.6726 23.2929C44.2821 22.9024 43.6489 22.9024 43.2584 23.2929L44.6726 24.7071ZM19.2914 32.7056L27.2569 40.7054L28.6741 39.2942L20.7086 31.2944L19.2914 32.7056ZM28.6726 40.7069L44.6726 24.7071L43.2584 23.2929L27.2584 39.2927L28.6726 40.7069Z"
            fill="#E60000" />
    </svg>