  <svg width="104" height="104" viewBox="0 0 104 104" fill="none" xmlns="http://www.w3.org/2000/svg">
                <path d="M96.0524 98.4283L7.42969 40.71V98.4283H96.0524Z" stroke="white" stroke-width="2"
                    stroke-linejoin="round" />
                <path
                    d="M6.82017 39.917C6.38233 40.2536 6.30029 40.8814 6.63692 41.3193C6.97354 41.7571 7.60137 41.8391 8.03921 41.5025L6.82017 39.917ZM51.9071 5.94238L52.5465 5.1735C52.1841 4.8721 51.6603 4.86474 51.2896 5.15584L51.9071 5.94238ZM95.4338 41.4955C95.8678 41.8371 96.4965 41.7623 96.8381 41.3283C97.1797 40.8943 97.1049 40.2656 96.6709 39.924L95.4338 41.4955ZM18.4921 33.4658C18.93 33.1292 19.012 32.5014 18.6754 32.0635C18.3388 31.6257 17.7109 31.5437 17.2731 31.8803L18.4921 33.4658ZM41.355 12.9558C40.9206 13.2969 40.8449 13.9255 41.186 14.3599C41.5271 14.7943 42.1557 14.87 42.5901 14.5289L41.355 12.9558ZM60.6474 14.5113C61.0721 14.8644 61.7026 14.8064 62.0557 14.3818C62.4088 13.9571 62.3509 13.3266 61.9262 12.9735L60.6474 14.5113ZM85.9908 31.5162C85.5568 31.1746 84.9281 31.2494 84.5865 31.6834C84.2448 32.1173 84.3197 32.7461 84.7536 33.0877L85.9908 31.5162ZM8.03921 41.5025L18.4921 33.4658L17.2731 31.8803L6.82017 39.917L8.03921 41.5025ZM42.5901 14.5289L52.5247 6.72892L51.2896 5.15584L41.355 12.9558L42.5901 14.5289ZM51.2677 6.71127L60.6474 14.5113L61.9262 12.9735L52.5465 5.1735L51.2677 6.71127ZM84.7536 33.0877L95.4338 41.4955L96.6709 39.924L85.9908 31.5162L84.7536 33.0877Z"
                    fill="white" />
                <path d="M46.0547 35.937L51.5084 41.3907L61.7341 31.165" stroke="#E60000" stroke-width="2"
                    stroke-linecap="round" stroke-linejoin="round" />
                <path d="M17.8828 47.5267V13.8955H85.3724V47.9812" stroke="#A7A9B9" stroke-width="2"
                    stroke-linejoin="round" stroke-dasharray="4 4" />
                <path d="M7.43201 98.4283H96.0547V40.71L51.7434 69.5691" stroke="white" stroke-width="2"
                    stroke-linejoin="round" />
            </svg>