<svg width="32" height="32" viewBox="0 0 32 32" fill="none" xmlns="http://www.w3.org/2000/svg">
<path d="M0 15.36C0 8.11923 0 4.49884 2.24942 2.24942C4.49884 0 8.11923 0 15.36 0H16.64C23.8808 0 27.5012 0 29.7506 2.24942C32 4.49884 32 8.11923 32 15.36V16.64C32 23.8808 32 27.5012 29.7506 29.7506C27.5012 32 23.8808 32 16.64 32H15.36C8.11923 32 4.49884 32 2.24942 29.7506C0 27.5012 0 23.8808 0 16.64V15.36Z" fill="#F1F1F3"/>
<path d="M17.0251 23.0544C9.73173 23.0544 5.57177 18.0544 5.39844 9.73438H9.05176C9.17176 15.841 11.865 18.4277 13.9984 18.961V9.73438H17.4385V15.001C19.5451 14.7744 21.7582 12.3744 22.5049 9.73438H25.945C25.3717 12.9877 22.9716 15.3877 21.265 16.3744C22.9716 17.1743 25.7051 19.2677 26.7451 23.0544H22.9583C22.145 20.521 20.1185 18.561 17.4385 18.2944V23.0544H17.0251Z" fill="#2D2727"/>
</svg>
