<svg width="48" height="24" fill="none" xmlns="http://www.w3.org/2000/svg"><path d="M19.758 11.15a11.206 11.206 0 014.213-8.761A10.941 10.941 0 0017.15 0a11.15 11.15 0 000 22.302 10.94 10.94 0 006.829-2.39 11.16 11.16 0 01-4.222-8.761z" fill="#A7A9B9"/><path d="M19.758 11.15a11.206 11.206 0 014.213-8.761A10.941 10.941 0 0017.15 0a11.15 11.15 0 000 22.302 10.94 10.94 0 006.829-2.39 11.16 11.16 0 01-4.222-8.761z" fill="#A7A9B9"/><path d="M41.906 11.15a11.103 11.103 0 01-11.07 11.152 10.94 10.94 0 01-6.828-2.39 11.222 11.222 0 000-17.532A10.941 10.941 0 0130.837 0a11.123 11.123 0 0111.069 11.15z" fill="#A7A9B9" fill-opacity=".5"/><path fill-rule="evenodd" clip-rule="evenodd" d="M20.865 6.29a11.204 11.204 0 00-1.107 4.86 11.16 11.16 0 004.222 8.763h.028a11.225 11.225 0 00.011-17.524h-.048a11.206 11.206 0 00-3.106 3.9z" fill="#504F55"/></svg>